{"glyphs":{"0":{"ha":888,"x_min":0,"x_max":0,"o":"m -15 118 b -19 -8 -19 89 -21 18 b 114 -247 -8 -119 39 -203 b 203 -275 140 -262 169 -272 b 293 -272 224 -279 271 -276 b 500 -169 358 -258 435 -221 b 811 242 619 -74 736 81 b 892 478 847 319 878 408 b 903 682 908 550 913 628 b 686 929 882 818 808 903 b 621 933 669 932 663 933 b 558 931 585 933 571 932 b 397 864 496 917 447 897 b 256 729 344 828 306 792 b 96 486 214 675 139 564 b 25 333 65 435 22 340 b 31 331 25 331 29 331 l 36 331 l 31 317 b -15 115 11 258 -8 178 z m 36 31 b 107 376 40 135 68 271 b 271 654 153 499 208 597 b 332 692 294 676 308 686 b 338 697 335 693 338 694 b 318 703 339 701 331 703 b 263 685 299 703 283 697 l 244 672 l 253 681 b 394 831 293 735 361 804 b 574 914 450 875 508 901 b 664 911 593 917 643 915 b 847 740 756 893 819 835 b 865 608 861 697 865 664 b 835 397 865 538 857 476 b 532 -100 786 231 665 33 b 408 -201 486 -147 456 -172 b 258 -258 358 -232 299 -256 b 239 -260 251 -260 242 -260 b 190 -256 231 -261 204 -258 b 131 -226 172 -251 146 -239 b 35 29 64 -178 31 -89 z "},"1":{"ha":878,"x_min":0,"x_max":0,"o":"m 747 771 b 888 936 814 869 858 924 b 893 947 897 940 900 944 b 864 953 892 947 878 950 b 758 953 831 958 788 958 b 601 907 711 946 672 935 b 417 849 522 875 468 858 b 297 847 385 843 321 842 b 210 893 268 853 231 872 b 192 903 200 903 197 903 b 179 890 181 903 176 899 b 249 836 185 876 225 844 b 382 824 278 825 332 819 b 621 886 451 828 511 843 b 771 933 697 917 728 925 b 838 936 793 936 825 938 l 844 935 l 835 926 b 664 715 796 896 726 810 b 375 200 592 606 536 507 b 192 -103 289 36 249 -31 b 110 -185 169 -132 132 -169 b 22 -231 89 -199 42 -225 l 8 -235 l 4 -231 b -8 -225 1 -225 -3 -225 b -19 -235 -19 -225 -22 -228 b -7 -247 -18 -240 -12 -244 b 44 -246 1 -250 28 -249 b 183 -174 86 -235 149 -201 b 310 -24 224 -140 269 -86 b 515 353 354 42 401 129 b 747 769 629 575 682 671 z "},"2":{"ha":931,"x_min":0,"x_max":0,"o":"m 783 -225 b 735 -226 775 -229 769 -229 b 522 -199 669 -225 629 -219 b 358 -169 442 -182 400 -175 b 325 -165 342 -167 326 -165 b 346 -153 325 -165 335 -160 b 504 -42 392 -126 458 -81 b 932 614 708 128 874 379 b 840 983 979 800 946 931 b 675 999 794 1007 738 1011 b 453 872 592 981 518 940 b 332 614 376 794 338 710 b 388 438 329 542 351 471 b 431 418 403 424 411 419 b 453 419 442 418 447 418 b 442 431 464 425 461 428 b 401 458 428 433 414 443 b 358 665 364 508 347 592 b 678 990 386 818 521 956 b 732 993 692 993 701 993 b 786 989 768 993 771 993 b 853 950 814 981 833 969 b 903 849 881 924 894 894 b 903 735 908 826 908 767 b 822 458 892 650 863 550 b 497 11 757 308 625 129 b 271 -153 426 -53 347 -111 l 251 -164 l 222 -164 b 54 -194 164 -167 103 -178 b -19 -243 13 -208 -19 -231 b 8 -261 -19 -251 -8 -258 b 85 -258 22 -264 58 -262 b 265 -197 139 -249 201 -229 l 289 -186 l 319 -190 b 504 -222 369 -196 415 -203 b 731 -247 617 -246 647 -249 b 804 -239 788 -247 796 -247 b 785 -228 815 -231 803 -222 z m 151 -208 b 56 -236 121 -219 78 -232 b 31 -240 47 -237 36 -240 l 21 -242 l 25 -236 b 129 -197 40 -221 78 -207 b 201 -186 150 -192 199 -186 b 153 -208 203 -187 182 -197 z "},"3":{"ha":892,"x_min":0,"x_max":0,"o":"m 749 364 b 569 421 694 390 638 408 b 436 432 525 428 492 431 l 382 433 l 414 447 b 761 640 550 501 678 572 b 908 857 844 708 897 788 b 738 1038 921 943 853 1014 b 671 1042 719 1042 711 1042 b 568 1031 625 1042 610 1042 b 318 907 476 1013 381 964 b 233 792 275 867 246 826 b 236 740 225 767 225 749 b 251 735 239 736 242 736 b 263 742 264 735 268 736 b 258 789 253 751 253 767 b 438 971 275 853 343 925 b 846 960 608 1058 771 1053 b 869 888 863 938 869 917 b 618 585 869 794 772 676 b 371 467 556 547 453 497 b 247 421 331 451 269 429 b 222 411 236 418 225 414 b 225 403 219 408 219 408 b 282 404 232 397 251 397 b 422 417 321 414 365 417 b 661 378 508 417 592 403 b 753 331 686 368 735 344 b 825 18 871 253 897 136 b 371 -260 742 -122 558 -235 b 254 -260 339 -264 285 -264 b 82 -181 181 -249 124 -222 b 21 -25 42 -139 21 -83 b 89 131 21 35 44 88 b 208 196 122 164 163 185 b 297 197 231 201 275 203 b 375 168 328 192 368 176 b 393 167 381 164 390 164 b 332 204 401 175 375 192 b 264 214 307 214 292 214 b 126 185 213 214 164 204 b -15 -75 25 131 -33 25 b 25 -172 -10 -108 6 -146 b 153 -264 56 -211 101 -243 b 263 -286 182 -274 231 -285 b 369 -286 281 -289 351 -287 b 625 -210 453 -278 542 -253 b 725 -153 664 -192 692 -175 b 911 97 825 -81 892 8 b 913 179 914 117 915 163 b 751 364 896 257 842 318 z "},"4":{"ha":953,"x_min":0,"x_max":0,"o":"m 854 767 b 963 960 918 888 940 926 b 971 981 974 975 975 978 b 953 981 968 982 958 982 b 914 938 946 976 926 957 b 753 658 885 897 836 814 b 706 575 731 617 708 579 b 572 450 686 553 625 493 b 386 317 482 375 436 342 b 204 271 331 292 286 281 b 107 260 160 268 129 264 b 92 258 99 258 92 258 b 106 269 92 258 97 264 b 297 464 163 311 244 396 b 497 857 403 600 481 753 b 497 947 504 890 503 926 b 397 1013 482 992 450 1013 b 285 982 361 1013 329 1003 b 14 708 167 926 63 819 b -3 485 -25 617 -32 514 b 31 478 8 475 25 471 b 26 483 32 481 31 481 b 3 597 8 490 -3 542 b 281 963 21 742 131 885 b 393 997 329 988 363 997 b 424 993 411 997 414 997 b 460 946 443 985 454 969 b 456 857 464 926 463 886 b 367 643 443 799 414 731 b 93 301 290 507 214 411 b 36 243 56 268 36 247 b 50 235 36 240 42 236 b 85 240 53 233 68 236 b 201 257 122 247 139 250 b 354 289 278 265 314 274 b 511 386 407 310 444 333 b 667 524 575 438 625 481 l 692 549 l 682 531 b 531 231 642 453 610 390 b 428 24 482 132 436 39 b 303 -271 385 -67 315 -231 b 301 -297 297 -287 296 -294 b 324 -294 308 -301 318 -300 b 347 -247 325 -292 338 -269 b 775 614 447 -33 636 347 b 853 763 799 660 835 728 z "},"5":{"ha":1267,"x_min":0,"x_max":0,"o":"m 944 586 b 753 651 897 632 832 654 b 469 556 665 647 554 610 b 453 544 461 550 453 546 b 456 553 451 544 453 547 b 540 717 478 592 503 643 b 644 953 601 839 621 886 b 658 992 651 975 658 992 b 665 983 658 992 663 988 b 840 935 693 947 758 929 b 1006 960 881 938 913 942 b 1197 981 1131 983 1165 986 b 1264 957 1236 975 1258 967 b 1288 958 1269 947 1288 947 b 1285 967 1288 960 1286 964 b 1208 997 1276 978 1247 990 b 996 975 1168 1003 1128 999 b 804 951 876 953 850 950 b 742 964 771 953 760 956 b 692 1054 708 981 693 1008 b 671 1081 689 1078 688 1081 b 644 1057 653 1081 647 1075 b 642 1042 644 1051 642 1044 b 619 988 639 1040 631 1014 b 592 914 608 960 596 928 b 410 557 564 851 464 654 b 375 494 399 536 383 508 b 374 461 361 467 361 465 b 399 468 382 458 393 461 b 482 539 425 497 449 517 b 803 629 582 604 722 644 b 967 451 892 611 950 547 b 965 344 971 425 971 375 b 938 236 961 314 949 264 b 508 -193 869 53 708 -108 b 96 -208 339 -265 192 -271 b 13 -69 47 -178 21 -132 b 15 28 8 -47 11 4 b 308 339 47 183 164 307 b 406 339 336 344 382 344 b 503 221 468 324 501 283 b 472 89 506 181 494 133 b 381 -39 454 53 393 -33 b 381 -53 372 -43 372 -50 b 449 8 394 -54 407 -43 b 507 93 478 42 492 63 b 539 211 528 136 539 175 b 339 357 539 310 461 367 b 214 322 294 353 258 343 b -21 -40 75 253 -21 107 b -8 -124 -21 -75 -18 -96 b 4 -156 -6 -135 1 -149 b 221 -274 42 -222 115 -264 b 376 -264 261 -278 331 -274 b 725 -106 492 -242 621 -183 b 947 153 819 -35 894 53 b 1008 333 979 214 999 272 b 1011 453 1014 365 1015 425 b 946 583 1001 508 981 549 z "},"6":{"ha":790,"x_min":0,"x_max":0,"o":"m 561 451 b 318 419 481 467 397 457 b 313 440 297 410 299 408 b 625 857 378 592 485 732 b 738 940 675 900 713 928 b 765 946 749 946 751 947 b 785 953 783 944 788 947 b 731 957 779 961 751 964 b 568 838 703 947 642 903 b 442 713 538 810 468 740 b 272 461 371 631 318 551 b 232 372 258 432 236 386 b 214 356 231 369 224 364 b 121 264 192 339 142 288 b 51 154 96 231 71 193 b -19 -26 19 90 -8 17 b -18 -92 -24 -50 -24 -79 b -8 -99 -15 -97 -14 -99 l -4 -99 l -6 -92 b -3 -26 -8 -75 -8 -47 b 100 200 14 36 63 142 b 163 281 118 225 142 257 b 214 328 183 303 215 333 b 190 247 210 317 196 269 b 196 -133 153 104 154 -33 b 379 -283 231 -219 297 -275 b 458 -281 400 -286 438 -283 b 742 -62 564 -258 674 -175 b 803 93 772 -12 792 42 b 806 186 807 115 808 164 b 558 453 788 322 692 425 z m 679 -69 b 649 -110 669 -83 656 -103 b 579 -181 631 -131 599 -164 b 439 -256 536 -217 481 -246 b 378 -254 421 -258 394 -258 b 281 -179 342 -246 306 -217 b 249 253 219 -86 208 76 b 289 385 261 303 283 378 b 356 418 293 389 332 408 b 482 443 401 436 436 443 b 564 432 517 443 535 442 b 758 207 669 401 744 315 b 681 -69 769 121 742 22 z "},"7":{"ha":819,"x_min":0,"x_max":0,"o":"m 819 936 b 789 917 814 936 808 931 b 475 769 714 854 601 803 b 99 778 308 728 182 731 b 4 853 71 793 10 843 b -19 853 -3 865 -24 864 b 68 768 -17 838 28 796 b 168 731 94 750 128 738 b 283 721 207 722 225 721 b 369 725 331 721 342 721 b 733 844 503 743 639 788 b 758 858 746 851 756 858 b 757 856 758 860 758 858 b 601 581 738 825 647 667 b 458 301 558 501 486 360 l 453 288 l 436 285 b 232 231 372 274 239 238 b 247 224 228 226 236 224 b 358 247 261 224 268 225 b 439 267 401 258 438 267 b 442 264 442 267 443 267 b 418 211 442 264 431 240 b 286 -92 338 42 318 -4 b 242 -211 274 -126 253 -181 b 222 -269 231 -242 222 -267 b 228 -274 222 -269 225 -272 b 249 -272 235 -276 244 -276 b 296 -183 254 -268 261 -256 b 349 -75 310 -153 335 -103 b 439 114 375 -22 388 4 b 488 219 454 149 475 197 b 511 272 499 244 508 268 b 519 282 514 279 515 281 b 672 303 556 290 642 301 b 710 300 693 304 697 304 b 729 301 725 297 729 297 b 704 314 729 303 715 310 b 558 304 682 318 625 314 b 525 300 539 301 525 300 b 689 633 522 303 644 549 b 815 874 775 794 792 826 b 842 926 829 900 842 925 b 822 936 842 931 829 936 z "},"8":{"ha":875,"x_min":0,"x_max":0,"o":"m 696 1014 b 542 974 636 1007 579 992 b 486 928 514 960 481 931 b 504 936 492 925 496 928 b 706 1003 544 972 625 999 b 774 994 735 1003 753 1001 b 857 890 815 981 846 943 b 818 658 872 818 858 740 b 568 418 771 567 688 486 b 451 360 544 404 457 361 b 410 442 446 358 422 404 b 492 831 371 561 399 699 b 631 963 536 893 600 954 b 636 976 644 965 647 972 b 599 976 628 981 613 981 b 478 883 569 967 515 926 b 346 647 414 811 364 725 b 389 356 321 542 335 446 b 399 338 394 347 399 338 b 357 317 399 336 381 328 b 153 213 264 275 199 242 b -19 -14 56 147 -3 69 b -15 -99 -22 -36 -21 -81 b 32 -179 -7 -131 8 -153 b 232 -261 79 -225 149 -253 b 338 -258 257 -264 311 -262 b 644 -46 496 -237 617 -153 b 647 38 651 -24 653 14 b 619 122 644 64 635 92 b 536 243 599 161 578 193 b 472 324 497 292 488 303 b 458 347 464 336 458 347 b 486 361 458 347 471 354 b 851 665 675 447 788 542 b 893 832 881 725 893 775 b 871 935 893 875 886 907 b 694 1014 839 997 779 1024 z m 469 251 b 578 103 531 179 558 142 b 603 -7 597 61 604 32 b 582 -83 601 -37 597 -56 b 325 -242 543 -164 443 -224 b 231 -243 299 -244 251 -246 b 114 -212 188 -239 146 -226 b 8 -86 60 -185 22 -140 b 8 -3 3 -64 3 -26 b 222 239 28 90 97 169 b 408 326 264 263 401 326 b 429 303 410 326 419 317 b 471 253 439 292 458 268 z "},"9":{"ha":842,"x_min":0,"x_max":0,"o":"m 839 788 b 806 768 825 788 819 785 b 731 660 801 763 768 714 b 643 531 696 606 656 547 b 238 157 485 303 342 172 b 131 233 188 149 149 176 b 164 532 108 301 119 418 b 465 942 229 708 342 858 b 614 1004 515 975 561 994 b 694 1004 635 1008 679 1008 b 788 957 732 997 764 981 b 808 951 797 947 803 946 b 808 971 813 957 813 961 b 714 1025 797 994 761 1015 b 600 1026 689 1031 629 1031 b 481 986 558 1019 519 1007 b 329 875 425 960 383 928 b 132 583 247 794 179 694 b 86 240 75 447 58 326 b 206 140 106 179 146 146 b 425 233 269 133 343 164 b 517 325 446 251 492 297 b 764 664 582 399 628 460 b 819 743 793 706 818 742 b 819 731 821 744 821 742 b 656 254 792 603 724 406 b 236 -247 538 -12 388 -192 b 153 -261 206 -258 192 -261 b 3 -206 65 -261 19 -243 b -14 -189 -4 -189 -6 -187 l -21 -189 l -21 -197 b 21 -253 -21 -218 -3 -242 b 108 -275 40 -264 72 -271 b 167 -276 114 -276 142 -276 b 229 -272 206 -276 215 -275 b 456 -132 303 -254 382 -206 b 736 331 563 -26 653 125 b 860 747 796 481 850 663 b 856 783 863 768 861 778 b 839 788 853 788 849 788 z "},"\n":{"ha":0,"x_min":0,"x_max":0,"o":""},"\r":{"ha":0,"x_min":0,"x_max":0,"o":""}," ":{"ha":285,"x_min":0,"x_max":0,"o":""},"!":{"ha":297,"x_min":0,"x_max":0,"o":"m 315 443 b 292 436 308 447 301 444 b 192 200 260 406 229 332 b 169 125 183 171 174 138 b 147 54 165 113 156 81 b 49 -169 118 -40 97 -86 b 32 -197 40 -183 32 -196 b 36 -203 32 -199 35 -200 b 58 -200 42 -204 51 -203 b 72 -186 61 -199 68 -193 b 132 -103 88 -169 125 -119 b 239 221 163 -47 203 75 b 281 371 253 276 272 349 b 313 436 288 392 306 428 b 314 443 318 442 318 443 z m -3 -275 b -21 -333 -7 -281 -19 -319 b -19 -346 -22 -342 -22 -343 b 3 -344 -14 -349 -3 -349 b 22 -310 4 -342 14 -326 l 38 -279 l 33 -275 b -4 -276 25 -269 3 -269 z "},"$":{"ha":579,"x_min":0,"x_max":0,"o":"m 543 -94 b 350 -21 497 -64 457 -47 b 282 -3 314 -12 285 -4 b 303 111 281 -3 288 35 b 339 292 315 172 332 253 b 375 375 354 369 351 361 b 426 393 399 386 413 392 b 435 401 442 394 444 397 b 372 394 421 407 397 404 b 358 394 358 389 358 389 b 371 481 361 403 371 475 b 365 488 371 488 371 488 b 356 481 358 488 358 488 b 343 426 354 475 349 451 b 332 379 338 401 332 381 b 314 364 331 376 324 371 b 206 275 279 343 235 307 b 125 85 139 203 111 136 b 219 -14 133 43 169 7 b 238 -22 229 -17 236 -21 b 229 -68 238 -24 235 -44 b 186 -328 213 -147 193 -260 l 185 -349 l 179 -349 b 161 -346 176 -349 169 -347 b 28 -292 115 -340 64 -319 b 4 -262 13 -281 8 -274 l 3 -254 l -6 -254 b -18 -261 -14 -254 -15 -254 b -3 -296 -22 -271 -18 -282 b 111 -358 21 -319 78 -350 b 175 -369 131 -364 164 -369 l 185 -369 l 182 -383 b 178 -437 182 -390 181 -415 b 178 -482 175 -479 175 -481 b 197 -481 182 -486 192 -486 b 214 -408 201 -476 204 -461 l 219 -371 l 247 -369 b 558 -264 376 -364 497 -324 b 597 -193 581 -239 593 -219 b 543 -97 604 -160 585 -125 z m 197 42 b 181 164 167 74 161 114 b 268 286 196 197 231 247 b 321 335 288 307 318 335 b 315 308 321 335 319 322 b 265 99 294 221 283 176 b 246 10 256 51 246 11 b 197 42 242 4 213 25 z m 547 -219 b 521 -253 540 -232 536 -237 b 451 -303 499 -275 482 -286 b 264 -349 399 -326 333 -343 b 232 -351 251 -350 236 -351 b 225 -347 225 -351 225 -351 b 235 -281 225 -344 231 -314 b 247 -183 239 -247 246 -203 b 275 -35 254 -147 274 -36 b 432 -75 275 -32 408 -67 b 550 -156 492 -97 536 -125 b 556 -183 554 -164 556 -168 b 547 -219 556 -203 556 -203 z "},"&":{"ha":804,"x_min":0,"x_max":0,"o":"m 819 -96 b 772 -76 813 -89 801 -83 b 644 -81 729 -65 701 -65 b 513 -121 614 -89 603 -92 b 328 -147 413 -153 365 -160 b 278 -108 303 -139 288 -126 b 254 -92 271 -96 265 -92 b 239 -108 242 -93 238 -97 b 258 -142 242 -119 247 -131 b 308 -168 272 -153 286 -162 b 358 -174 322 -172 328 -174 b 553 -135 417 -175 449 -169 b 606 -118 582 -125 606 -118 b 575 -192 608 -119 588 -168 b 485 -324 549 -247 524 -283 b 358 -415 444 -364 403 -393 b 108 -419 264 -462 172 -464 b 49 -344 86 -404 61 -372 b 36 -240 38 -314 32 -276 b 229 94 47 -114 122 14 b 349 161 267 124 313 147 b 390 167 365 167 369 167 b 418 169 408 167 414 168 b 422 175 419 172 422 175 b 404 186 422 181 414 185 b 319 281 343 197 319 225 b 335 344 319 303 325 321 b 553 496 368 421 457 483 b 622 496 572 497 607 497 b 653 486 638 493 653 488 b 638 460 653 486 647 474 b 582 364 614 424 597 393 b 558 300 568 333 557 303 b 576 296 558 297 569 294 b 596 321 582 297 585 299 b 735 533 628 381 692 479 b 753 564 754 558 757 561 b 715 567 747 571 726 574 b 682 531 708 564 694 547 b 669 515 675 519 671 514 b 650 519 668 517 658 518 b 525 524 625 525 556 526 b 325 425 446 511 375 478 b 275 338 301 400 283 369 b 271 263 268 317 265 282 b 322 192 278 232 297 204 b 335 183 329 188 335 185 b 313 175 335 183 325 181 b 174 100 271 163 210 129 b 11 -115 94 36 42 -35 b 8 -361 -25 -210 -25 -293 b 169 -469 38 -419 92 -456 b 226 -469 181 -469 196 -471 b 292 -465 264 -469 271 -469 b 510 -342 371 -447 446 -406 b 631 -125 571 -282 607 -217 b 638 -107 633 -115 636 -108 b 669 -99 639 -107 653 -103 b 764 -93 708 -89 731 -86 b 804 -108 789 -99 801 -103 b 825 -110 808 -112 818 -114 b 822 -97 829 -108 828 -103 z "},"(":{"ha":218,"x_min":0,"x_max":0,"o":"m 236 464 b 117 357 218 469 154 413 b -8 79 60 274 8 160 b -14 -100 -22 19 -25 -46 b 44 -225 -4 -147 18 -193 b 138 -292 58 -240 114 -279 b 158 -297 147 -296 154 -297 b 175 -292 168 -297 175 -294 b 161 -281 175 -292 169 -286 b 58 -160 108 -243 81 -210 b 31 -51 44 -126 36 -94 b 36 67 29 -22 31 35 b 147 369 53 176 94 293 b 228 454 172 408 208 444 b 233 461 236 458 238 460 z "},")":{"ha":167,"x_min":0,"x_max":0,"o":"m 158 250 b 63 415 139 313 114 357 b 14 464 31 454 21 464 b 47 404 4 464 8 456 b 121 269 86 353 103 322 b 121 -43 158 163 158 74 b 82 -137 111 -72 94 -115 b 33 -224 72 -160 46 -206 b -14 -283 19 -243 -8 -279 b -15 -296 -21 -289 -21 -293 b 21 -289 -6 -300 8 -297 b 106 -197 36 -278 82 -229 b 153 -103 118 -182 142 -135 b 188 81 175 -36 188 25 b 160 250 188 131 178 197 z "},"*":{"ha":189,"x_min":0,"x_max":0,"o":"m 136 303 b 150 319 136 303 142 310 b 208 393 164 335 208 390 b 174 397 208 400 185 403 b 107 319 158 390 128 354 l 97 307 l 92 325 b 53 388 78 364 65 383 b 19 383 42 393 19 390 b 28 369 19 381 24 375 b 51 326 31 363 42 343 b 64 296 64 301 67 297 b 39 292 63 294 51 293 b -21 272 1 286 -21 281 b -15 267 -21 269 -19 268 b 46 269 -8 264 17 264 b 75 275 60 272 72 275 b -3 176 76 274 6 182 b -4 171 -4 175 -6 174 b 14 171 -3 168 8 168 b 64 225 19 175 35 190 b 88 247 76 238 88 249 b 100 221 89 247 94 236 l 111 196 l 119 194 b 128 214 131 194 131 197 b 115 250 125 219 121 236 b 111 276 108 269 108 274 b 115 281 113 278 114 281 b 175 288 125 283 158 288 b 197 294 192 288 197 290 b 160 303 197 300 186 303 b 136 303 147 303 136 303 z "},"+":{"ha":349,"x_min":0,"x_max":0,"o":"m 363 167 b 260 174 350 174 326 175 l 197 171 l 204 190 b 240 296 214 214 236 281 b 238 311 242 307 242 308 b 211 313 233 314 217 315 b 203 303 208 311 206 307 b 158 186 199 294 168 213 l 153 169 l 108 164 b 26 160 82 164 46 160 b -19 151 -11 158 -19 157 b 118 147 -19 140 36 138 b 147 147 133 147 146 147 b 144 132 147 147 146 140 b 101 -3 136 103 103 3 b 101 -10 97 -7 97 -8 b 119 -10 106 -14 114 -14 b 154 67 125 -7 129 3 b 185 138 168 97 181 131 l 192 151 l 208 153 b 353 154 286 158 347 158 b 364 153 354 153 358 153 b 364 164 372 153 372 158 z "},"-":{"ha":272,"x_min":0,"x_max":0,"o":"m 288 167 b 97 164 281 169 167 167 b 18 161 69 161 35 160 b -21 153 -15 161 -22 160 b 3 140 -19 147 -11 142 b 28 139 8 140 19 139 b 168 147 43 139 138 144 b 232 154 176 150 206 153 b 286 160 258 157 282 158 b 286 169 293 164 293 167 z "},"/":{"ha":460,"x_min":0,"x_max":0,"o":"m 458 442 b 397 367 444 432 414 397 b 331 226 385 347 358 292 b 158 -117 264 69 203 -51 b 49 -236 125 -169 85 -212 b -11 -267 25 -253 -4 -267 b -11 -281 -22 -267 -22 -275 b 36 -276 -3 -286 18 -283 b 114 -236 56 -269 101 -246 b 215 -114 147 -214 182 -172 b 368 235 264 -31 311 78 b 438 397 403 329 418 367 b 475 435 449 414 465 431 b 479 442 478 436 481 440 b 458 440 478 444 468 444 z "},"<":{"ha":188,"x_min":0,"x_max":0,"o":"m 100 26 b 29 64 64 44 32 63 b 58 117 19 75 19 76 b 135 199 99 158 114 175 b 175 261 154 225 176 258 b 169 264 175 263 172 264 b 156 250 165 264 163 260 b 17 111 118 194 76 154 b -18 83 -14 88 -14 90 b 4 47 -25 74 -17 60 b 103 -7 19 36 68 11 b 188 -42 135 -22 172 -37 b 207 -39 197 -43 203 -43 b 99 28 213 -32 186 -17 z "},">":{"ha":168,"x_min":0,"x_max":0,"o":"m 183 168 b 132 197 176 178 168 183 b 32 244 103 208 75 221 b -15 265 8 258 -11 267 b -3 253 -24 264 -19 261 b 31 233 6 247 21 239 b 113 192 51 219 72 208 b 151 164 144 176 151 172 b 94 79 151 151 136 129 b 6 -42 68 47 6 -36 b 18 -51 6 -46 10 -49 b 65 -24 32 -54 39 -50 b 163 93 114 26 140 57 b 182 168 188 133 192 153 z "},"?":{"ha":379,"x_min":0,"x_max":0,"o":"m 369 435 b 163 467 326 478 238 492 b -17 269 64 435 -3 361 b -18 183 -19 247 -21 203 b 15 97 -12 146 -1 114 b 42 81 25 86 33 81 b 46 86 51 81 53 85 b 15 122 38 90 25 104 b -8 224 -1 151 -8 182 b 4 300 -8 257 -6 274 b 192 457 32 378 101 436 b 265 457 208 460 249 460 b 319 428 288 451 304 442 b 344 385 333 414 340 403 b 329 292 349 361 343 329 b 218 144 313 250 288 218 b 103 -35 146 69 121 31 l 94 -67 l 94 -99 b 99 -146 94 -125 96 -133 b 104 -162 101 -153 103 -161 b 118 -164 107 -165 114 -165 b 119 -128 119 -164 119 -149 b 126 -69 119 -94 121 -92 b 186 54 139 -19 158 19 b 256 125 192 60 222 92 b 378 276 331 200 356 231 b 397 351 392 304 396 319 b 368 435 397 392 392 413 z m 85 -257 b 75 -303 76 -261 75 -267 b 78 -336 75 -331 75 -333 b 103 -335 85 -343 103 -342 b 113 -301 103 -332 107 -318 b 119 -258 125 -262 125 -262 b 86 -257 114 -253 94 -253 z "},"@":{"ha":756,"x_min":0,"x_max":0,"o":"m 728 -32 b 585 -174 683 -83 625 -140 b 296 -301 501 -240 403 -283 b 194 -300 267 -306 219 -306 b 82 -243 146 -292 111 -274 b 28 -136 54 -215 39 -182 b 25 -72 25 -119 25 -111 b 28 -4 25 -36 25 -25 b 115 231 42 71 71 153 b 192 344 133 264 169 319 b 292 447 211 371 268 426 b 458 532 346 488 403 518 b 733 436 579 564 690 525 b 749 267 757 390 763 326 b 688 125 740 225 714 167 b 482 -26 621 25 529 -43 b 449 78 453 -15 439 25 b 519 247 458 121 485 183 b 531 269 525 258 531 268 b 508 276 535 278 519 281 b 496 264 506 275 500 269 b 481 254 489 258 485 254 l 475 254 l 475 271 b 368 328 475 340 425 367 b 278 242 340 310 299 271 b 175 -32 211 153 164 29 b 211 -65 179 -57 188 -65 b 281 -25 232 -65 247 -57 b 394 118 311 4 333 32 b 438 179 418 150 436 178 b 435 169 438 181 436 176 b 411 97 425 151 414 114 b 499 -33 397 19 436 -36 b 592 10 528 -31 556 -19 b 671 88 610 24 654 67 b 774 332 731 163 769 257 b 629 547 778 436 725 514 b 536 558 597 557 581 558 b 471 554 501 558 492 558 b 231 433 385 540 307 500 b 50 197 161 372 94 285 b 21 -217 -32 33 -43 -119 b 104 -289 38 -242 74 -274 b 203 -315 128 -301 169 -312 b 300 -314 225 -319 276 -317 b 532 -226 376 -303 463 -269 b 621 -160 558 -210 596 -182 b 746 -19 658 -125 736 -37 b 746 -12 749 -14 749 -14 b 725 -29 742 -10 742 -11 z m 232 -33 b 213 -47 224 -40 214 -47 b 211 11 204 -49 203 -19 b 253 122 218 36 238 89 b 303 214 264 149 286 192 b 411 331 331 263 386 319 b 435 326 419 336 425 335 b 456 258 451 311 456 293 l 456 235 l 449 225 b 232 -33 304 36 271 -3 z "},"A":{"ha":1147,"x_min":0,"x_max":0,"o":"m 269 -82 l 281 -83 b 308 -86 286 -85 299 -86 b 375 -86 328 -89 356 -89 b 407 -83 385 -86 397 -85 b 468 -67 422 -81 439 -76 b 514 -44 485 -62 513 -47 b 515 -43 514 -43 514 -43 b 536 -29 519 -43 528 -36 b 542 -25 539 -26 542 -25 b 575 8 544 -25 569 0 b 579 17 578 11 579 14 b 561 8 579 22 572 19 b 525 -25 543 -10 526 -25 b 514 -32 525 -25 519 -29 b 454 -62 506 -39 468 -58 b 396 -75 438 -67 413 -74 b 297 -76 375 -81 319 -81 l 282 -75 l 294 -64 b 317 -42 301 -57 311 -47 b 514 147 354 -8 514 146 b 525 161 514 149 519 154 b 581 219 532 168 558 194 b 629 269 606 244 628 268 b 642 281 631 271 636 276 b 672 317 644 286 658 301 b 754 410 697 343 728 378 b 771 428 763 419 769 428 b 821 408 772 428 794 419 b 935 368 871 389 929 368 b 932 349 938 368 938 361 b 928 336 931 344 928 339 b 919 308 928 335 925 322 b 908 276 914 294 910 281 b 900 247 908 274 904 260 b 888 207 896 233 890 214 b 875 157 886 197 881 175 b 853 31 868 121 857 64 b 847 -117 847 -10 844 -75 b 858 -203 850 -158 853 -178 b 865 -228 863 -212 864 -224 b 900 -303 871 -247 892 -294 b 906 -311 903 -304 904 -308 b 971 -381 914 -325 961 -375 b 983 -386 974 -381 979 -383 b 1008 -403 988 -390 999 -397 b 1025 -411 1015 -407 1025 -410 b 1093 -433 1028 -414 1075 -429 b 1136 -439 1103 -436 1121 -437 b 1279 -436 1185 -443 1235 -442 b 1381 -411 1299 -433 1358 -419 b 1446 -386 1418 -399 1432 -393 b 1464 -381 1453 -383 1461 -381 b 1475 -374 1465 -379 1471 -376 b 1496 -364 1479 -371 1488 -367 b 1519 -349 1503 -360 1514 -353 b 1533 -340 1526 -343 1532 -340 b 1558 -324 1536 -340 1554 -328 b 1565 -319 1561 -321 1564 -319 b 1572 -317 1568 -319 1569 -319 b 1592 -303 1575 -314 1583 -308 b 1615 -286 1601 -297 1611 -290 b 1625 -281 1619 -283 1624 -281 b 1632 -276 1625 -281 1629 -279 b 1649 -264 1635 -275 1642 -269 b 1669 -249 1657 -258 1665 -253 b 1679 -243 1675 -246 1678 -243 b 1692 -233 1679 -243 1686 -239 b 1704 -224 1697 -228 1703 -224 b 1715 -214 1704 -224 1710 -219 b 1726 -203 1721 -208 1725 -203 b 1753 -175 1729 -203 1750 -181 b 1761 -167 1754 -174 1758 -169 b 1769 -156 1763 -164 1765 -158 l 1772 -149 l 1768 -147 b 1758 -153 1764 -146 1763 -147 b 1753 -160 1754 -156 1753 -158 b 1711 -203 1753 -162 1713 -203 b 1699 -214 1710 -203 1704 -208 b 1686 -224 1692 -219 1686 -224 b 1675 -231 1686 -224 1681 -226 b 1661 -242 1669 -236 1664 -240 b 1653 -249 1658 -243 1654 -246 b 1632 -262 1649 -250 1642 -257 b 1614 -275 1625 -267 1617 -274 b 1603 -283 1613 -276 1608 -281 b 1586 -294 1599 -286 1592 -290 b 1571 -303 1579 -299 1574 -303 b 1556 -314 1569 -303 1563 -308 b 1542 -321 1550 -318 1544 -321 b 1525 -331 1542 -321 1535 -325 b 1508 -342 1518 -336 1510 -342 b 1499 -347 1508 -342 1503 -343 b 1431 -382 1492 -353 1435 -382 b 1419 -386 1429 -382 1425 -383 b 1382 -400 1406 -392 1385 -400 b 1358 -407 1381 -400 1369 -403 b 1265 -426 1329 -417 1318 -419 b 1156 -429 1242 -431 1178 -432 b 1058 -406 1114 -425 1081 -417 b 1040 -399 1051 -403 1042 -399 b 1022 -389 1038 -397 1029 -393 b 1008 -381 1014 -385 1008 -381 b 958 -336 1004 -381 972 -353 b 928 -292 949 -325 928 -296 b 919 -275 928 -292 925 -283 b 906 -242 914 -265 908 -250 b 886 -82 886 -171 886 -169 b 892 21 886 -15 888 -3 b 922 181 897 75 913 147 b 928 201 925 186 928 197 b 936 231 929 206 932 219 b 946 264 939 242 944 257 b 958 300 947 271 953 288 b 967 325 963 314 967 325 b 975 350 967 328 974 346 b 993 347 978 351 981 351 b 1088 321 1015 338 1072 324 b 1196 317 1122 315 1153 314 b 1304 335 1251 319 1268 321 b 1369 365 1343 347 1369 360 b 1353 367 1369 372 1364 372 b 1122 333 1296 340 1189 325 b 1071 342 1108 335 1086 339 b 1042 347 1057 344 1043 347 b 981 364 1038 347 982 364 b 982 371 981 364 981 368 b 988 386 985 375 986 382 b 994 404 989 390 992 399 b 1003 426 997 411 1001 421 b 1015 456 1006 433 1011 446 b 1025 476 1019 465 1025 475 b 1035 499 1025 478 1029 488 b 1044 521 1039 510 1044 519 b 1075 590 1044 524 1049 532 b 1108 656 1081 601 1096 631 b 1142 721 1121 681 1136 710 b 1153 742 1147 732 1153 742 b 1161 758 1153 743 1158 750 b 1197 826 1174 783 1192 819 b 1203 835 1200 831 1203 833 b 1206 842 1203 836 1203 840 b 1221 869 1213 853 1221 867 b 1225 878 1221 869 1222 875 b 1240 903 1228 882 1235 893 b 1256 931 1246 914 1253 926 b 1263 943 1258 936 1263 942 b 1267 953 1263 944 1264 949 b 1296 1014 1276 969 1296 1008 b 1272 1019 1296 1019 1285 1022 b 1242 1022 1264 1018 1261 1018 b 1132 1038 1206 1031 1163 1036 b 1083 1042 1118 1038 1096 1040 b 922 1043 1046 1044 964 1046 b 735 1024 829 1039 799 1036 b 665 1007 697 1015 686 1014 b 636 997 654 1003 642 999 b 608 989 631 997 618 992 b 575 978 599 986 585 981 b 546 967 568 975 554 969 b 529 960 538 964 531 960 b 507 950 528 960 518 954 b 483 940 496 944 485 940 b 469 932 482 940 475 936 b 442 918 458 925 451 922 b 425 908 438 917 431 913 b 411 901 418 904 411 901 b 369 875 408 901 397 893 b 347 861 361 869 353 864 b 335 851 344 858 338 854 b 304 829 331 849 318 839 b 279 808 292 819 281 810 b 274 804 279 808 275 806 b 260 794 271 803 264 797 b 239 775 256 790 246 781 b 171 708 228 764 196 733 b 161 697 165 703 161 697 b 151 685 161 697 156 692 b 124 651 140 674 125 656 b 113 636 122 649 118 642 b 100 619 107 629 101 621 b 92 608 99 617 96 611 b 85 596 90 604 86 600 b 78 583 82 592 79 586 b 63 560 65 567 63 561 b 58 553 63 558 61 554 b 22 476 53 543 22 481 b 21 471 22 475 22 471 b 18 464 21 469 19 467 b 13 451 15 460 14 454 b 3 422 8 440 3 425 b -3 404 3 419 1 413 b -18 317 -8 381 -15 347 b -18 238 -19 281 -19 269 b -3 164 -14 208 -11 188 b 3 143 0 153 3 144 b 4 136 3 142 3 139 b 18 108 6 135 11 122 b 36 75 25 94 32 81 b 42 64 39 71 42 67 b 44 58 42 64 43 61 b 56 46 47 57 51 51 b 107 -6 68 31 92 7 b 124 -19 114 -12 121 -18 b 129 -24 125 -22 128 -24 b 138 -29 131 -24 135 -25 b 219 -67 150 -39 188 -57 b 251 -79 236 -74 251 -79 b 175 -142 251 -81 199 -124 b 108 -186 146 -165 133 -174 b 51 -203 82 -200 68 -203 b 39 -206 40 -201 35 -203 b 39 -208 40 -206 40 -207 b 46 -217 36 -212 38 -215 b 81 -217 56 -219 68 -219 b 138 -189 92 -214 131 -196 b 149 -181 140 -186 146 -183 b 258 -92 168 -169 219 -128 z m 1225 944 b 1207 910 1217 928 1211 918 b 1182 867 1201 900 1189 881 b 1171 847 1179 861 1175 853 b 1160 829 1168 842 1163 833 b 1147 807 1158 824 1151 814 b 1138 792 1142 799 1138 792 b 1133 781 1138 790 1136 786 b 1122 764 1131 778 1125 769 b 1108 738 1119 758 1113 747 b 1099 721 1103 731 1099 724 b 1092 704 1099 719 1096 713 b 1079 685 1086 697 1081 686 b 1069 665 1078 681 1074 674 b 1061 649 1064 658 1061 650 b 1051 631 1061 647 1056 639 b 1042 610 1046 619 1042 611 b 1033 593 1042 608 1038 601 b 1022 574 1029 586 1025 576 b 1008 544 1021 569 1015 557 b 982 485 989 503 982 486 b 972 461 982 485 978 474 b 963 436 967 450 963 438 b 947 403 963 435 958 425 b 942 386 946 397 942 392 b 924 383 939 376 938 376 b 911 388 918 386 913 388 b 889 397 908 388 899 392 b 861 407 878 401 865 406 b 847 413 856 408 850 411 b 829 421 844 414 836 418 b 814 426 821 425 814 426 b 804 431 813 426 808 428 b 788 436 801 431 794 435 b 779 443 781 440 778 442 b 796 464 781 447 788 454 b 803 474 800 468 803 472 b 814 485 803 474 808 479 b 832 508 819 492 828 501 b 853 531 838 514 847 525 b 861 543 858 536 861 542 b 864 547 861 544 863 547 b 904 593 867 549 875 558 b 917 607 910 601 915 607 b 921 613 918 607 919 610 b 931 625 922 614 926 621 b 949 647 936 631 944 640 b 982 682 954 653 969 669 b 1124 836 1054 758 1088 794 b 1169 888 1132 847 1153 871 b 1208 932 1186 904 1203 925 b 1222 944 1225 950 1226 953 z m 206 -50 b 186 -40 197 -46 188 -42 b 136 -8 179 -39 142 -14 b 128 -3 132 -6 129 -3 b 78 50 125 -3 83 42 b 71 60 75 53 72 57 b 35 131 63 68 42 108 b 19 183 24 158 21 168 b 14 214 18 189 15 203 b 14 317 11 238 11 290 b 19 351 15 328 18 343 b 28 386 21 358 25 375 b 38 421 31 399 36 414 b 58 471 42 436 54 464 b 61 478 58 474 61 476 b 69 499 61 481 64 490 b 78 518 75 508 78 517 b 88 536 78 519 82 528 b 97 556 92 544 97 553 b 108 574 99 558 103 565 b 118 588 114 581 118 588 b 132 610 118 590 129 606 b 136 617 135 613 136 614 b 142 624 136 618 138 621 b 151 636 143 626 147 632 b 175 667 161 650 174 667 b 175 669 175 667 175 668 b 186 681 175 669 181 676 b 196 693 192 688 196 693 b 238 740 196 694 218 718 b 321 814 254 757 301 797 b 347 835 331 819 342 831 b 360 843 354 839 358 843 b 369 850 361 843 365 847 b 386 861 375 854 382 860 b 406 875 390 864 399 869 b 419 883 413 879 418 883 b 431 890 419 883 425 886 b 456 904 436 894 447 901 b 476 917 464 908 472 914 b 486 921 481 919 485 921 b 494 925 488 921 492 924 b 574 963 506 932 564 960 b 592 968 575 964 585 965 b 608 975 597 971 604 975 b 614 978 610 975 613 976 b 618 979 614 978 615 979 b 649 989 619 979 635 983 b 681 999 664 994 679 999 b 710 1007 682 999 696 1003 b 918 1038 764 1021 842 1033 b 1108 1035 958 1040 1069 1039 b 1253 1010 1185 1028 1253 1015 b 1247 1004 1253 1010 1251 1007 b 1240 997 1244 1001 1242 997 b 1218 971 1239 994 1229 983 b 1185 935 1206 958 1192 942 b 1147 893 1179 928 1161 908 b 1058 794 1121 867 1088 828 b 988 717 1046 778 1025 757 b 906 628 963 692 942 668 b 799 499 883 603 822 531 b 751 456 760 449 763 451 b 704 474 738 461 719 469 b 671 483 697 475 681 481 b 642 490 660 486 647 490 b 608 496 636 492 621 493 b 503 501 574 503 540 504 b 360 472 442 497 414 492 b 208 371 308 453 263 424 b 149 294 181 344 161 319 b 139 257 139 274 135 254 b 147 253 142 257 144 256 b 156 250 149 251 153 250 b 161 260 161 250 161 251 b 171 285 161 268 163 269 b 192 311 178 293 186 304 b 261 378 206 326 242 364 b 276 393 269 386 276 392 b 279 394 276 393 278 394 b 292 403 281 394 286 397 b 306 413 299 408 304 413 b 318 419 308 413 313 415 b 394 461 332 431 356 443 b 469 482 419 471 435 476 b 571 486 508 488 525 489 b 639 479 608 485 618 483 b 751 442 675 471 751 446 b 699 376 751 442 725 410 b 525 196 664 336 631 301 b 392 63 467 138 408 78 b 315 -14 378 47 343 11 b 264 -62 289 -40 265 -62 b 211 -46 257 -62 228 -53 z m 217 357 b 196 336 206 346 197 336 b 228 368 194 336 218 360 b 217 357 232 372 228 367 z "},"B":{"ha":1597,"x_min":0,"x_max":0,"o":"m 422 -119 b 306 -179 381 -149 346 -165 b 224 -190 275 -190 260 -192 b 88 -133 147 -187 104 -169 b 69 -122 82 -122 79 -119 b 67 -129 65 -124 65 -124 b 72 -146 68 -132 69 -140 b 250 -208 92 -186 154 -208 b 339 -196 290 -208 304 -206 b 454 -143 379 -183 417 -165 l 475 -131 l 486 -142 b 731 -243 547 -190 639 -228 b 815 -253 765 -249 786 -251 b 982 -246 864 -256 931 -253 b 1344 -107 1121 -226 1253 -175 b 1421 -29 1369 -87 1406 -51 b 1458 46 1436 -8 1453 26 b 1446 175 1471 90 1467 131 b 1397 243 1433 201 1421 219 b 1251 335 1358 281 1311 311 b 1058 375 1199 356 1121 372 b 1031 378 1049 376 1036 376 l 1021 379 l 1060 392 b 1438 593 1214 446 1342 514 b 1614 888 1558 696 1631 815 b 1547 950 1607 918 1582 942 b 1469 950 1531 953 1492 953 b 1208 819 1394 936 1299 888 b 939 542 1122 754 1029 658 b 915 514 926 526 917 514 b 969 625 915 515 936 558 b 1117 878 1025 738 1069 814 b 1208 969 1153 926 1192 967 b 1231 978 1213 971 1222 975 b 1249 985 1238 981 1247 985 b 1258 996 1256 986 1258 990 l 1258 1001 l 1240 1000 b 1190 986 1219 1000 1206 996 b 1081 975 1174 976 1154 975 b 892 983 1021 975 997 975 b 581 997 728 996 663 997 b 421 986 514 996 471 993 b 3 746 214 960 65 875 b -8 575 -28 685 -31 625 b 96 492 11 533 46 506 b 178 486 117 486 140 483 b 261 504 225 488 253 494 b 263 510 264 508 264 508 b 239 507 258 513 249 511 b 171 500 229 503 197 500 b 38 575 111 500 64 528 b 25 675 25 603 19 642 b 263 931 42 782 131 878 b 507 981 328 956 403 971 b 739 981 539 985 688 985 b 868 972 761 981 819 975 b 1094 963 996 964 1029 961 l 1153 964 l 1136 947 b 951 697 1075 892 1021 819 b 836 481 919 643 901 608 b 768 347 801 410 769 350 b 764 342 765 347 764 343 b 650 135 763 329 689 196 b 554 3 619 86 582 35 b 467 -81 524 -32 475 -81 b 461 -83 465 -81 463 -82 b 453 -81 458 -86 458 -86 b 408 -14 442 -68 418 -33 b 381 64 399 6 383 50 b 375 64 381 72 376 72 b 399 -25 375 47 385 8 b 439 -92 411 -53 421 -69 b 444 -103 446 -100 447 -103 b 418 -119 442 -103 431 -111 z m 861 411 b 908 488 881 451 885 456 b 1168 769 992 600 1081 697 b 1468 936 1265 853 1385 919 b 1536 936 1492 940 1519 940 b 1506 714 1603 914 1592 819 b 1401 608 1486 688 1431 632 b 1019 408 1296 521 1189 464 b 883 372 943 383 919 376 b 847 368 865 369 849 368 b 842 368 844 367 842 367 b 863 411 842 368 851 388 z m 521 -92 b 617 0 549 -69 593 -28 b 808 300 675 68 746 178 l 824 331 l 832 332 b 935 354 851 335 904 347 l 964 364 l 997 364 b 1288 292 1108 364 1211 338 b 1415 142 1356 250 1399 201 b 1421 97 1421 128 1421 124 b 1403 18 1421 64 1419 50 b 1158 -174 1364 -58 1279 -126 b 936 -228 1089 -203 1019 -219 b 808 -232 913 -231 821 -233 b 781 -229 804 -231 792 -231 b 519 -135 682 -219 585 -183 b 521 -93 490 -114 490 -117 z "},"C":{"ha":856,"x_min":0,"x_max":0,"o":"m 294 697 b 64 385 193 597 122 503 b -19 64 7 268 -19 165 b -1 -67 -19 11 -14 -24 b 244 -253 36 -176 125 -244 b 579 -146 351 -258 458 -225 b 883 163 718 -54 799 18 b 885 185 896 183 896 185 b 849 142 879 185 875 179 b 575 -118 760 15 694 -37 b 129 -192 388 -243 232 -269 b 115 388 -4 -92 -10 139 b 344 694 172 501 254 610 l 368 717 l 378 714 b 856 768 513 667 699 688 b 979 850 908 794 949 821 b 1021 904 1001 871 1013 886 b 1028 933 1026 915 1028 919 b 1022 958 1028 947 1026 950 b 733 967 993 1010 876 1014 b 363 758 608 925 475 850 l 342 740 l 331 746 b 242 825 296 764 258 797 b 208 893 226 847 221 858 b 189 926 197 925 194 929 b 193 903 188 926 188 922 b 215 842 201 875 206 860 b 313 743 235 803 268 769 b 331 733 322 738 331 733 b 296 697 331 733 315 717 z m 397 742 b 636 901 475 808 547 857 b 868 981 719 943 797 969 b 956 978 893 983 942 983 b 992 950 975 972 986 964 b 992 906 997 940 997 919 b 836 771 975 864 913 810 b 607 700 765 736 686 711 b 485 697 582 697 507 696 b 382 721 450 701 408 711 l 375 725 z "},"D":{"ha":1642,"x_min":0,"x_max":0,"o":"m 88 -186 b 192 -222 114 -201 156 -215 b 253 -224 203 -224 219 -225 b 325 -219 293 -224 303 -222 b 497 -150 378 -208 444 -182 b 515 -140 507 -146 515 -140 b 539 -147 517 -140 528 -143 b 721 -176 597 -167 649 -175 b 1281 -28 901 -181 1101 -128 b 1785 640 1565 131 1758 386 b 1669 1008 1800 786 1758 915 b 1551 1092 1632 1044 1599 1069 b 1365 1147 1494 1119 1438 1136 b 1208 1149 1335 1150 1244 1151 b 707 958 1032 1135 847 1064 b 614 878 669 931 649 914 b 528 776 576 842 551 811 b 425 475 458 676 422 571 b 436 403 428 444 429 433 b 438 379 442 381 442 381 b 390 328 431 375 406 347 b 314 171 347 269 325 224 b 314 76 308 147 308 99 b 463 -117 331 -6 381 -72 b 475 -125 469 -121 475 -125 b 453 -136 475 -125 464 -131 b 222 -206 365 -186 296 -208 b 139 -190 192 -204 169 -200 b 39 -125 103 -179 75 -161 b -3 -72 17 -103 6 -90 b -14 -60 -8 -61 -10 -60 b -21 -64 -18 -60 -21 -61 b -7 -100 -24 -68 -15 -86 b 86 -189 11 -126 58 -172 z m 472 631 b 538 757 486 668 513 718 b 735 957 586 828 658 903 b 1185 1132 868 1051 1025 1114 b 1335 1133 1218 1136 1306 1136 b 1631 1003 1463 1118 1558 1076 b 1742 769 1692 943 1728 867 b 1743 643 1746 743 1747 672 b 1575 258 1726 504 1671 378 b 1261 -7 1492 154 1386 64 b 797 -156 1113 -92 957 -142 b 683 -157 778 -158 696 -158 b 661 -154 681 -157 669 -156 b 567 -136 633 -153 592 -143 b 542 -126 554 -131 542 -126 b 563 -110 542 -125 551 -119 b 768 99 636 -57 703 14 l 790 131 l 814 131 b 1019 193 888 135 965 158 b 1065 244 1042 208 1071 240 b 1050 231 1065 246 1058 239 b 988 186 1032 214 1015 200 b 813 138 938 160 875 143 l 796 136 l 825 181 b 943 376 868 244 896 292 b 1085 649 969 425 994 471 b 1289 983 1189 853 1236 929 b 1363 1036 1318 1014 1336 1026 b 1372 1042 1368 1038 1372 1040 b 1354 1044 1374 1044 1364 1046 b 1285 1008 1332 1042 1314 1031 b 1174 875 1249 979 1219 943 b 1036 638 1126 807 1101 764 b 769 172 904 388 836 269 l 746 139 l 736 140 b 708 144 731 142 718 143 b 485 319 610 165 531 228 b 463 376 475 340 463 371 b 461 383 463 381 461 382 b 449 433 458 386 453 414 b 475 631 442 497 449 564 z m 460 -85 b 347 78 399 -42 361 11 b 342 135 342 94 342 103 b 347 192 342 167 342 174 b 375 267 353 217 363 242 b 431 353 386 288 414 331 b 446 364 442 364 444 367 b 528 231 468 307 492 269 b 717 133 579 178 644 144 l 738 131 l 719 106 b 515 -97 646 11 590 -43 b 501 -108 508 -103 501 -108 b 460 -85 497 -108 475 -94 z "},"E":{"ha":1021,"x_min":0,"x_max":0,"o":"m 292 -253 b 675 -139 411 -247 535 -210 b 871 -14 738 -107 786 -75 b 1008 94 972 58 1008 86 b 996 99 1008 97 1001 100 b 964 78 994 97 981 89 b 672 -114 849 -3 724 -86 b 375 -222 581 -164 468 -204 b 68 -164 233 -247 126 -228 b 69 67 14 -108 14 -25 b 492 393 147 193 308 318 b 600 426 551 418 563 421 b 690 450 671 435 689 440 b 629 460 692 460 663 464 b 553 443 606 457 572 449 l 536 438 l 496 442 b 439 447 463 443 451 444 b 335 529 379 464 342 492 b 342 596 331 547 332 575 b 396 681 353 624 371 653 b 444 704 418 707 413 703 b 972 864 611 711 814 772 b 1119 1011 1082 926 1135 978 b 1083 1036 1114 1024 1104 1031 b 986 1040 1065 1042 1017 1043 b 622 907 882 1025 751 976 b 399 747 535 858 450 797 b 371 719 386 736 375 724 l 364 714 l 344 718 b 232 761 294 725 260 739 b 199 851 206 782 194 814 b 294 1017 207 904 244 971 b 342 1043 315 1036 325 1042 b 353 1047 347 1043 353 1044 b 328 1053 354 1050 339 1053 b 275 1025 313 1053 297 1044 b 215 954 251 1004 235 983 b 176 819 183 904 169 857 b 201 769 181 800 186 786 b 321 711 225 742 265 722 b 351 707 333 708 347 707 l 358 707 l 344 689 b 288 579 317 654 294 611 b 290 525 285 561 286 540 b 463 424 306 472 374 433 b 479 418 486 419 486 419 b 371 369 453 408 396 383 b -14 -7 169 269 21 125 b -18 -93 -21 -32 -22 -69 b 172 -249 -3 -172 65 -226 b 292 -256 197 -253 261 -257 z m 517 790 b 986 1011 661 896 850 985 b 1078 993 1053 1025 1082 1019 b 711 764 1067 935 889 825 b 444 714 625 736 511 714 b 426 713 436 714 429 713 b 424 714 425 711 424 713 b 514 790 424 715 489 771 z "},"F":{"ha":1053,"x_min":0,"x_max":0,"o":"m 1168 743 b 1189 740 1168 743 1178 742 b 1308 738 1219 736 1279 735 b 1547 836 1399 746 1492 783 b 1614 986 1594 881 1619 939 b 1542 1069 1608 1025 1582 1056 b 1465 1074 1524 1075 1488 1076 b 1272 947 1403 1064 1331 1017 b 1169 810 1247 918 1204 861 b 1136 764 1150 781 1138 764 b 1038 782 1131 764 1082 774 b 897 807 982 793 942 801 b 479 744 708 832 582 814 b 433 703 458 731 442 717 b 431 686 426 692 425 688 b 438 692 436 686 438 686 b 494 744 439 700 469 728 b 581 786 517 758 554 778 b 731 808 622 800 669 808 b 1008 775 806 811 888 801 b 1124 751 1057 764 1107 754 l 1131 750 l 1119 731 b 999 524 1099 697 1046 607 b 953 440 975 479 953 442 b 874 431 949 436 901 431 b 775 457 831 431 804 438 b 751 475 765 461 756 469 l 742 483 l 736 476 b 731 465 729 471 729 471 b 804 421 736 451 771 431 b 919 415 833 414 881 411 b 939 417 931 417 939 418 b 875 304 940 417 897 342 b 647 -6 793 167 725 74 b 353 -197 553 -103 451 -169 b 164 -186 286 -217 219 -212 b 32 -14 100 -154 51 -92 b 22 64 25 14 22 33 b 39 179 22 104 28 139 b 354 551 81 326 207 475 b 519 596 419 585 468 597 b 631 539 572 593 599 581 b 664 481 646 521 658 497 b 664 431 668 467 668 443 b 668 418 661 419 663 418 b 675 425 671 418 672 419 b 643 551 689 464 679 503 b 521 608 615 588 578 606 b 379 582 474 610 431 603 b 25 242 228 521 92 392 b -8 139 14 217 -3 164 b 64 -157 -33 22 -7 -86 b 231 -233 108 -200 161 -225 b 319 -233 247 -236 299 -236 b 728 11 453 -219 603 -129 b 989 408 817 111 881 208 l 1000 429 l 1046 440 b 1185 467 1124 457 1163 464 b 1249 464 1208 469 1239 468 b 1261 464 1254 463 1258 463 b 1258 475 1267 467 1265 469 b 1186 481 1247 481 1226 481 b 1061 461 1142 481 1142 481 b 1014 453 1036 457 1014 453 b 1075 572 1013 453 1022 471 b 1171 744 1118 651 1169 744 z m 1201 797 b 1368 1004 1265 901 1318 967 b 1421 1031 1392 1025 1403 1031 b 1436 1035 1433 1031 1436 1031 b 1429 1039 1436 1036 1432 1038 l 1422 1042 l 1438 1047 b 1544 1047 1485 1064 1518 1064 b 1579 971 1568 1031 1579 1008 b 1529 858 1579 933 1563 894 b 1331 758 1486 811 1413 775 b 1185 760 1303 753 1201 754 b 1201 797 1181 761 1181 763 z "},"G":{"ha":836,"x_min":0,"x_max":0,"o":"m 981 436 b 981 436 981 436 981 436 b 736 325 968 429 831 354 b 697 314 714 318 697 314 b 708 342 697 314 701 328 b 786 554 736 408 760 474 b 836 743 804 614 836 731 b 821 758 838 756 836 758 b 810 758 815 760 810 758 b 747 661 810 756 774 699 b 592 468 682 567 646 519 b 385 318 521 396 451 346 b 183 396 282 275 206 304 b 179 492 178 415 175 464 b 183 514 181 504 182 514 b 197 510 185 515 192 514 b 697 753 358 435 596 550 b 726 872 719 800 728 831 b 692 958 725 914 718 933 b 638 996 678 972 661 985 b 581 1007 628 1001 597 1007 b 449 972 539 1007 489 993 b 239 760 388 939 303 853 b 151 588 203 704 164 633 b 146 578 149 582 147 578 b 125 624 143 578 131 607 b 118 700 119 647 117 665 b 142 814 119 740 125 771 b 394 1094 188 931 290 1043 b 488 1128 417 1106 472 1125 b 486 1133 497 1129 497 1132 b 353 1085 463 1135 396 1110 b 239 992 318 1064 268 1024 b 99 651 136 878 83 750 b 132 561 104 618 115 586 l 140 551 l 136 531 b 149 364 122 464 126 410 b 175 329 157 347 160 343 b 247 286 197 307 214 297 b 294 283 260 283 268 283 b 347 288 325 283 329 283 b 458 338 382 297 418 314 b 696 569 536 386 625 474 b 790 708 714 594 775 683 b 799 724 794 717 799 724 b 794 708 799 722 797 717 b 754 588 788 692 772 646 b 678 381 729 511 703 436 b 642 297 664 347 642 300 b 561 276 642 297 604 286 b 236 169 385 231 315 208 b 1 -43 125 114 43 40 b -24 -140 -15 -78 -24 -107 b -8 -206 -24 -167 -19 -185 b 40 -256 1 -224 24 -246 b 92 -275 53 -264 75 -272 b 182 -272 106 -276 165 -275 b 303 -222 219 -264 264 -246 b 661 243 428 -143 549 14 l 686 296 l 694 297 b 849 349 736 308 810 333 b 981 418 903 371 940 390 b 986 428 981 418 988 419 b 979 433 985 435 979 433 z m 188 544 b 272 736 203 603 235 676 b 308 788 289 764 300 781 b 324 808 311 792 319 801 b 414 908 351 844 389 886 b 596 979 471 954 535 979 b 631 974 618 979 619 978 b 686 911 656 960 676 936 b 689 832 692 894 692 856 b 639 714 682 797 663 751 b 481 558 599 653 539 594 b 347 503 431 526 394 513 b 265 499 325 497 282 497 b 190 528 242 503 203 518 l 186 531 z m 614 240 b 457 -22 564 136 511 50 b 158 -257 358 -153 249 -239 b 69 -246 125 -262 93 -258 b 25 -199 53 -236 32 -215 b 11 -139 14 -178 11 -164 b 75 18 11 -87 32 -36 b 151 92 89 36 129 76 b 563 261 247 165 342 204 b 632 281 600 271 631 279 b 615 242 635 281 625 264 z "},"H":{"ha":1410,"x_min":0,"x_max":0,"o":"m 1294 500 b 1236 381 1275 467 1247 408 l 1228 364 l 1219 367 b 1158 386 1214 368 1186 376 b 906 450 1043 424 971 442 b 882 453 894 451 883 453 b 1108 904 879 453 1085 864 b 1208 1035 1147 975 1185 1022 b 1213 1043 1215 1039 1218 1042 b 1168 1025 1203 1047 1186 1042 b 951 907 1128 992 1036 942 b 508 794 810 847 656 808 b 363 794 475 792 390 792 b 197 850 289 801 235 819 b 158 897 179 864 168 878 b 203 1047 133 947 150 1004 b 449 1124 261 1092 361 1124 b 597 1068 519 1124 569 1104 b 618 1001 614 1047 619 1028 b 589 932 615 975 606 951 b 532 888 579 921 553 900 b 521 881 526 885 521 881 b 544 885 521 876 535 879 b 596 919 558 892 585 910 b 639 1013 622 940 639 978 b 608 1086 639 1043 631 1065 b 529 1128 588 1108 564 1119 b 433 1136 500 1136 478 1138 b 321 1119 388 1135 368 1132 b 174 1047 256 1103 208 1079 b 125 947 140 1014 125 983 b 135 899 125 928 128 915 b 303 792 158 847 217 810 b 568 789 375 778 471 776 b 842 853 658 801 751 822 b 1097 967 942 886 1021 921 b 1126 983 1113 975 1125 982 b 1103 947 1129 985 1131 986 b 986 758 1065 897 1042 858 b 889 578 957 704 925 647 b 844 493 875 553 856 514 l 825 457 l 808 454 b 735 442 785 453 751 447 b 676 411 715 436 692 424 b 665 376 653 393 647 376 b 675 381 669 376 672 378 b 686 394 675 385 681 390 b 757 433 706 414 731 426 b 818 442 782 440 818 444 b 724 281 818 438 753 328 b 549 50 658 175 608 110 b 463 -28 518 18 489 -8 b 186 -100 358 -104 267 -129 b 60 10 135 -81 88 -40 b 19 144 36 53 24 97 b 126 465 8 250 47 367 b 210 549 144 488 186 531 b 378 633 263 590 322 621 b 475 633 404 639 453 639 b 568 568 514 622 544 601 b 604 442 592 531 604 492 b 588 347 604 410 599 382 b 464 181 567 283 518 218 b 339 114 431 156 364 121 b 329 108 325 111 322 110 b 482 178 347 103 439 146 b 563 261 513 201 542 233 b 603 344 576 283 594 319 b 558 596 636 449 621 536 b 471 642 533 619 506 633 b 367 638 444 647 397 644 b 183 547 304 624 242 593 b 94 458 158 531 114 485 b -19 164 21 368 -19 263 b 136 -110 -19 42 42 -65 b 508 -47 244 -162 385 -139 b 599 33 540 -24 564 -3 b 858 415 686 124 765 240 l 872 442 l 886 440 b 926 435 894 440 913 438 b 1149 375 989 425 1047 408 b 1214 353 1181 364 1210 354 b 1221 347 1221 351 1222 350 b 1153 99 1189 271 1163 176 b 1153 -60 1147 64 1147 -26 b 1186 -192 1158 -112 1169 -149 b 1358 -386 1225 -292 1285 -358 b 1468 -404 1379 -393 1421 -400 b 1511 -404 1472 -404 1492 -404 b 1558 -400 1543 -404 1547 -403 b 1571 -392 1563 -397 1569 -394 b 1569 -386 1575 -389 1575 -389 b 1549 -389 1565 -386 1561 -386 b 1508 -392 1536 -392 1531 -392 b 1386 -372 1465 -390 1411 -381 b 1321 -328 1363 -364 1344 -351 b 1244 -207 1289 -296 1264 -256 b 1208 -62 1226 -162 1217 -122 b 1208 97 1204 -26 1204 63 b 1264 308 1218 165 1236 236 l 1275 338 l 1292 336 b 1386 336 1318 332 1364 333 b 1406 347 1406 342 1413 344 b 1379 347 1403 349 1396 349 b 1338 344 1367 346 1347 344 b 1281 350 1318 344 1282 347 b 1338 474 1278 351 1306 414 b 1585 835 1399 592 1486 719 b 1803 1042 1660 922 1750 1008 b 1819 1053 1813 1047 1819 1053 b 1803 1054 1819 1057 1811 1058 b 1692 981 1781 1049 1742 1024 b 1292 497 1536 850 1393 678 z "},"I":{"ha":768,"x_min":0,"x_max":0,"o":"m 1058 1031 b 986 972 1032 1014 1014 1000 b 842 778 931 919 892 867 l 831 761 l 722 725 b 508 642 581 676 564 669 b 419 588 472 624 444 607 b 300 432 336 528 281 456 b 313 431 304 426 314 425 b 311 443 311 432 311 438 b 435 586 311 474 365 536 b 526 640 458 603 494 625 b 769 728 576 664 603 675 b 821 744 797 736 819 743 b 808 713 822 744 817 731 b 689 435 775 646 750 586 b 586 196 636 304 615 257 b 319 -139 504 32 421 -72 b 126 -199 251 -182 181 -204 b 36 -154 89 -193 58 -181 b -8 -49 8 -126 -3 -97 b 13 76 -12 -12 -7 25 b 103 251 42 158 75 224 b 110 263 108 258 111 263 b 72 219 106 263 85 238 b -3 53 51 186 13 103 b -10 -103 -21 -3 -24 -60 b 114 -208 8 -162 50 -197 b 229 -200 146 -214 192 -210 b 388 -122 281 -186 342 -157 b 575 96 456 -69 522 7 b 719 399 625 175 664 258 b 775 536 731 428 756 490 b 861 736 811 628 838 690 l 875 767 l 901 776 b 1065 854 961 800 1022 829 b 1226 1018 1150 906 1213 969 b 1226 1047 1231 1031 1231 1038 b 1058 1033 1213 1092 1138 1085 z m 1114 908 b 911 794 1061 869 983 825 b 886 785 897 790 886 785 b 928 857 885 785 908 828 b 1026 976 961 904 989 940 b 1160 1063 1075 1022 1119 1051 b 1192 1061 1175 1065 1182 1065 b 1207 1033 1203 1057 1208 1049 b 1114 910 1204 1000 1168 951 z "},"J":{"ha":915,"x_min":0,"x_max":0,"o":"m 1213 942 b 1167 924 1201 946 1186 940 b 951 804 1126 890 1036 840 b 507 692 808 744 656 706 b 361 692 475 690 389 690 b 196 747 289 700 235 718 b 158 796 178 763 167 776 b 203 944 132 847 149 903 b 447 1021 260 990 360 1021 b 597 967 519 1021 569 1003 b 617 899 613 947 619 925 b 588 831 615 874 606 850 b 532 786 579 819 551 797 b 521 778 525 782 521 778 b 543 782 521 775 533 776 b 596 817 557 790 585 808 b 639 910 621 838 639 876 b 608 985 639 942 629 964 b 528 1026 586 1006 564 1018 b 432 1035 499 1033 478 1036 b 321 1018 388 1033 367 1031 b 174 944 256 1001 208 976 b 125 844 140 914 125 881 b 135 797 125 826 128 814 b 303 690 158 746 217 708 b 568 686 375 675 471 675 b 842 750 658 699 751 719 b 1097 864 942 783 1021 819 b 1126 881 1113 874 1125 881 b 1103 844 1129 882 1131 883 b 986 656 1065 794 1042 756 b 889 475 957 603 925 547 b 844 392 875 450 856 413 l 825 353 l 825 353 b 825 351 825 353 825 351 b 811 331 821 342 817 336 b 722 179 796 301 747 218 b 549 -53 657 74 608 8 b 463 -131 517 -85 489 -110 b 186 -203 358 -207 265 -231 b 58 -92 135 -183 88 -142 b 18 43 36 -49 22 -6 b 125 364 8 147 47 264 b 208 447 143 386 186 428 b 376 531 261 488 322 519 b 475 531 404 536 453 536 b 567 465 513 519 543 499 b 603 340 592 431 603 390 b 588 246 603 308 599 281 b 464 78 565 181 518 115 b 338 14 429 53 364 19 b 328 7 324 8 321 8 b 481 76 347 1 439 43 b 561 160 513 100 542 131 b 603 243 575 181 594 218 b 558 493 636 347 619 435 b 469 539 532 518 506 531 b 365 536 443 544 397 543 b 182 447 303 521 240 492 b 92 357 158 428 113 382 b -21 63 19 265 -21 160 b 135 -212 -21 -60 40 -167 b 507 -149 243 -264 383 -240 b 597 -69 539 -125 564 -103 b 858 314 685 21 764 138 l 871 339 l 875 339 b 875 343 875 340 875 342 b 878 349 876 344 878 347 b 878 351 878 350 878 350 l 878 351 b 1103 803 875 351 1081 761 b 1204 933 1142 872 1181 919 b 1208 942 1213 936 1214 940 z "},"K":{"ha":1178,"x_min":0,"x_max":0,"o":"m 303 -325 b 447 -264 351 -315 404 -293 b 769 128 558 -192 669 -58 l 792 165 l 797 164 b 847 138 808 161 832 147 b 913 72 864 125 897 92 b 992 -75 935 42 947 18 b 1114 -293 1051 -203 1075 -243 b 1183 -365 1132 -317 1164 -349 b 1388 -456 1243 -414 1313 -443 b 1493 -453 1413 -460 1461 -458 b 1581 -425 1546 -442 1571 -435 b 1582 -419 1585 -419 1585 -419 b 1558 -421 1578 -415 1569 -417 b 1475 -436 1546 -425 1508 -433 b 1335 -418 1425 -443 1388 -439 b 1108 -207 1242 -382 1171 -315 b 1042 -74 1097 -185 1056 -103 b 989 33 1029 -42 1000 17 b 819 181 942 114 885 164 b 804 185 813 183 804 185 b 808 193 803 186 804 190 b 825 208 811 200 814 203 b 992 318 871 233 928 269 b 1224 513 1047 360 1097 401 b 1494 736 1375 644 1436 696 b 1738 843 1585 801 1669 838 b 1804 836 1758 844 1790 842 b 1836 833 1818 831 1835 829 b 1822 847 1838 838 1832 843 b 1751 858 1806 857 1789 858 b 1692 853 1721 858 1714 858 b 1553 803 1651 844 1594 825 b 1186 521 1468 757 1374 685 b 864 264 1015 375 953 324 b 835 244 849 253 836 244 b 844 268 835 244 838 254 b 944 503 871 325 893 376 b 1032 704 989 614 1001 642 b 1171 924 1082 806 1131 883 b 1199 943 1185 936 1188 940 b 1225 947 1206 944 1217 947 b 1239 951 1231 949 1238 950 b 1225 964 1242 954 1236 960 b 1168 954 1213 967 1196 964 b 997 861 1131 942 1092 919 b 914 814 968 844 931 822 b 513 669 786 739 640 688 b 353 669 481 667 381 665 b 164 740 271 681 213 703 b 97 850 129 769 104 810 b 103 919 94 871 96 900 b 207 1032 119 967 154 1006 b 318 1060 247 1053 275 1060 b 396 1044 351 1060 368 1057 b 486 958 438 1028 472 994 b 497 874 497 933 501 900 b 463 778 492 840 475 792 b 464 768 456 769 456 768 b 518 869 478 768 503 815 b 519 936 522 892 524 917 b 406 1058 507 990 463 1036 b 218 1057 350 1081 276 1079 b 65 910 142 1029 86 975 b 60 868 61 894 60 890 b 75 797 60 836 64 822 b 294 656 108 728 188 678 b 585 658 375 639 486 640 b 833 742 661 674 751 703 b 1032 851 882 764 954 803 b 1136 914 1078 881 1125 908 l 1147 919 l 1138 908 b 1014 711 1104 871 1053 789 b 925 526 989 664 969 621 b 876 415 907 483 885 433 b 790 244 858 376 818 294 b 740 192 768 203 769 206 b 717 176 719 183 715 181 b 736 169 718 172 722 171 l 747 168 l 725 131 b 561 -103 672 40 626 -25 b 447 -214 532 -136 472 -194 b 271 -303 388 -262 331 -290 b 190 -300 244 -307 211 -306 b 97 -242 156 -290 119 -267 b 47 -157 75 -217 63 -193 b 65 240 3 -43 11 111 b 403 525 131 390 256 496 b 453 529 415 528 428 529 b 503 525 482 529 488 528 b 561 499 522 519 547 508 b 603 458 574 490 593 471 b 632 332 626 425 636 381 b 481 74 624 233 571 143 b 431 38 458 56 436 40 b 428 33 425 36 425 36 b 461 40 431 28 444 31 b 539 97 486 54 519 81 b 643 268 589 144 628 208 b 647 399 654 311 656 365 b 518 528 629 464 583 508 b 368 526 475 542 419 540 b 233 469 328 517 271 492 b 71 304 169 428 108 368 b -19 31 22 224 -8 125 b -15 -86 -21 3 -19 -60 b 64 -269 -4 -165 25 -229 b 150 -319 89 -293 117 -310 b 238 -332 181 -331 192 -332 b 303 -326 275 -332 281 -331 z "},"L":{"ha":642,"x_min":0,"x_max":0,"o":"m 978 -221 b 999 -203 999 -214 1007 -208 b 976 -203 994 -200 988 -200 b 869 -225 964 -208 897 -221 b 781 -229 833 -231 813 -231 b 415 -135 682 -222 556 -189 b 285 -86 318 -97 304 -92 l 264 -79 l 304 -37 b 403 69 347 3 371 31 b 653 478 492 181 557 288 b 760 682 706 585 754 675 b 793 690 760 682 774 686 b 1156 886 974 731 1096 797 b 1188 978 1179 921 1189 950 b 1110 1042 1186 1019 1160 1042 b 908 942 1050 1042 983 1008 b 765 767 860 897 811 838 b 715 682 757 753 717 686 b 646 669 715 682 683 676 b 489 636 568 657 532 647 b 258 521 397 611 324 575 b 182 442 236 503 199 465 b 165 376 149 397 143 375 b 172 385 172 376 172 378 b 182 408 172 388 176 399 b 369 581 213 469 288 540 b 626 658 439 617 508 636 b 707 671 699 671 707 672 b 697 653 707 671 703 663 b 619 501 686 631 654 571 b 472 236 553 371 518 308 b 263 -33 410 136 338 43 l 226 -69 l 210 -65 b 38 -81 146 -53 82 -58 b -19 -150 4 -97 -19 -125 b 6 -186 -19 -167 -12 -176 b 71 -189 17 -190 50 -192 b 215 -115 110 -182 164 -154 b 242 -97 228 -107 240 -99 b 340 -136 244 -97 283 -111 b 733 -247 496 -200 619 -236 b 876 -246 764 -251 851 -250 b 976 -224 903 -242 957 -229 z m 779 719 b 871 850 806 764 838 807 b 976 958 893 881 953 940 b 1106 1021 1026 997 1074 1019 b 1150 997 1128 1024 1142 1015 b 1099 843 1171 958 1150 897 b 815 701 1039 781 943 733 b 771 692 793 697 774 692 b 781 718 763 690 761 686 z m 182 -108 b 64 -174 138 -142 92 -167 b 4 -149 26 -183 4 -174 b 94 -81 4 -119 42 -90 b 167 -79 111 -76 150 -76 b 206 -89 188 -82 206 -86 b 182 -108 206 -89 196 -99 z "},"M":{"ha":1547,"x_min":0,"x_max":0,"o":"m 279 -219 b 549 -100 364 -208 464 -164 b 701 44 594 -64 658 -3 b 797 167 726 74 769 128 b 1042 553 875 271 929 358 b 1240 875 1146 735 1192 810 b 1332 975 1279 925 1321 972 b 1338 975 1335 975 1338 975 b 1325 958 1338 975 1332 967 b 1258 847 1308 933 1288 900 b 1178 686 1225 786 1213 758 b 1132 588 1163 653 1142 610 b 1007 281 1092 497 1035 360 b 957 110 985 215 964 147 b 956 35 950 78 949 47 b 979 19 961 24 967 19 b 1031 53 994 19 1004 26 b 1186 242 1061 83 1072 97 b 1589 725 1392 503 1481 611 b 1785 900 1653 793 1738 869 b 1786 886 1797 908 1797 908 b 1672 721 1769 853 1740 810 b 1531 521 1611 640 1585 601 b 1329 153 1419 353 1375 274 b 1269 -153 1282 29 1264 -65 b 1294 -262 1271 -193 1281 -236 b 1361 -340 1308 -290 1336 -321 b 1431 -376 1376 -353 1408 -369 b 1538 -401 1458 -386 1504 -397 b 1582 -403 1542 -401 1561 -403 b 1782 -379 1642 -403 1682 -397 b 1858 -365 1814 -374 1847 -367 b 1881 -357 1879 -362 1882 -360 b 1738 -372 1878 -353 1842 -357 b 1592 -386 1654 -386 1640 -386 b 1501 -378 1547 -386 1536 -386 b 1339 -262 1419 -358 1364 -319 b 1358 83 1304 -186 1310 -79 b 1514 419 1386 183 1436 292 b 1661 643 1554 489 1597 553 b 1813 876 1747 763 1781 814 b 1804 928 1832 919 1831 928 b 1749 897 1790 928 1781 924 b 1625 783 1706 863 1685 842 b 1208 293 1506 664 1431 575 b 1022 68 1089 142 1064 110 b 981 31 1004 47 985 31 b 981 60 978 31 978 44 b 1025 214 985 75 1011 167 b 1081 365 1039 253 1063 319 b 1264 792 1122 472 1231 724 b 1347 944 1289 842 1325 907 b 1375 989 1360 965 1372 986 b 1375 997 1378 994 1378 994 b 1365 997 1374 997 1369 997 b 1356 1000 1363 997 1358 999 b 1317 994 1347 1006 1329 1003 b 1286 982 1311 992 1297 986 b 1128 914 1256 974 1219 957 b 774 767 938 825 876 800 b 565 718 692 740 639 728 b 417 714 529 714 447 711 b 289 764 361 719 318 736 b 258 804 275 779 268 786 b 272 931 239 844 243 888 b 329 983 283 944 310 969 b 556 1046 393 1026 475 1049 b 681 999 614 1043 653 1029 b 706 914 706 974 714 946 b 649 833 697 878 681 854 b 599 808 635 824 607 810 b 597 801 592 806 592 803 b 646 815 606 799 621 803 b 717 879 683 835 703 851 b 728 931 725 896 728 911 b 646 1039 728 981 700 1017 b 440 1047 589 1061 515 1064 b 269 964 369 1033 310 1003 b 226 908 249 944 236 928 b 225 803 210 872 210 836 b 411 697 254 747 315 711 b 571 697 442 692 533 692 b 835 763 665 708 731 725 b 1151 901 936 799 989 821 b 1263 953 1228 938 1260 953 b 1247 936 1263 953 1256 946 b 1006 574 1181 861 1122 775 b 842 304 914 418 893 383 b 692 99 783 215 739 154 b 324 -181 558 -54 446 -140 b 229 -197 286 -193 267 -197 b 179 -192 200 -197 194 -196 b 81 -136 142 -182 108 -162 b 10 21 46 -101 22 -47 b 8 133 6 49 4 103 b 39 256 13 174 25 218 b 235 494 75 347 149 439 b 338 544 261 511 311 536 b 542 544 411 569 483 569 b 646 424 594 521 631 481 b 649 371 647 414 649 403 b 633 267 649 328 646 311 b 531 90 613 192 582 140 b 415 21 497 58 461 36 b 386 17 399 15 394 14 b 375 15 381 17 375 17 b 390 8 375 13 381 10 b 531 65 415 6 494 38 b 594 128 550 81 581 110 b 682 364 646 194 679 286 b 625 517 686 428 667 478 b 331 557 561 576 442 593 b 182 475 285 542 225 508 b 94 386 158 454 114 411 b 17 257 64 349 35 299 b -14 -3 -19 171 -31 81 b 31 -117 -8 -42 13 -90 b 179 -214 64 -167 115 -200 b 278 -217 203 -218 253 -219 z "},"N":{"ha":1442,"x_min":0,"x_max":0,"o":"m 1892 907 b 1847 908 1892 917 1872 917 b 1631 746 1778 883 1704 829 b 1431 450 1564 671 1504 583 b 1278 147 1381 361 1349 297 b 1097 -194 1189 -42 1136 -142 b 1028 -253 1075 -224 1044 -250 b 982 -182 1008 -256 990 -226 b 979 -42 978 -160 976 -81 b 1044 308 986 53 1014 197 b 1221 772 1081 442 1138 592 b 1258 853 1235 803 1251 839 b 1274 885 1264 868 1271 882 b 1276 892 1275 888 1276 892 b 1253 893 1276 897 1264 899 b 1246 892 1246 889 1246 889 b 1225 894 1247 897 1238 897 b 1206 892 1219 892 1210 892 b 1028 842 1183 892 1115 872 b 675 735 786 760 761 751 b 381 740 554 710 442 713 b 308 824 342 757 314 790 b 388 960 303 868 336 925 b 628 971 464 1010 581 1017 b 643 950 635 965 639 958 b 651 914 649 938 650 936 b 642 853 651 888 649 868 b 642 842 639 842 639 842 b 665 922 654 838 668 883 b 658 953 665 938 664 942 b 457 1008 636 1003 547 1028 b 278 858 369 990 292 925 b 278 814 275 842 275 831 b 388 714 288 771 328 735 b 518 694 428 703 465 697 b 849 750 615 692 715 708 b 1042 817 872 758 947 783 b 1181 864 1110 842 1178 864 b 1163 842 1182 864 1175 853 b 1039 694 1122 803 1085 757 b 892 471 994 633 963 585 b 611 47 763 258 682 136 b 268 -217 496 -103 375 -197 b 226 -219 261 -218 242 -219 b 181 -214 203 -219 194 -218 b 124 -189 163 -210 140 -200 b 69 -133 108 -179 81 -151 b 19 11 43 -97 28 -50 b 21 135 14 39 15 103 b 146 417 36 236 81 336 b 224 494 163 438 203 478 b 386 581 275 538 335 568 b 469 581 411 586 451 586 b 581 428 533 564 572 510 b 539 207 586 368 569 275 b 419 75 514 149 465 97 b 354 53 399 65 363 53 b 353 49 346 53 346 51 b 397 58 361 47 371 49 b 457 85 422 65 440 74 b 569 224 506 118 542 163 b 608 346 589 265 600 300 b 608 453 614 378 614 426 b 515 581 596 514 564 557 b 440 597 490 593 472 597 b 319 575 397 600 363 593 b 44 303 208 531 110 433 b -12 126 17 247 -3 190 b -15 50 -15 104 -15 93 b -6 -51 -15 -4 -14 -15 b 181 -240 22 -157 86 -224 b 281 -242 201 -243 254 -244 b 464 -161 340 -233 403 -207 b 908 443 603 -60 713 89 b 1161 821 1013 632 1075 725 b 1194 857 1171 833 1186 849 b 1219 871 1208 869 1210 869 b 1236 874 1225 871 1233 874 l 1242 875 l 1238 869 b 1179 760 1231 857 1196 790 b 1019 374 1125 653 1051 471 b 936 -117 961 188 928 -12 b 1008 -267 943 -204 968 -253 b 1081 -256 1029 -274 1057 -269 b 1142 -193 1094 -247 1126 -214 b 1285 85 1175 -146 1214 -69 b 1601 668 1429 401 1503 536 b 1753 831 1646 728 1711 797 b 1890 904 1800 868 1867 904 b 1899 908 1897 904 1899 906 z "},"O":{"ha":989,"x_min":0,"x_max":0,"o":"m 28 454 b 31 461 31 458 31 460 b 8 461 31 465 14 467 b -19 318 -8 451 -19 386 b 28 169 -19 247 -6 204 b 38 151 39 158 39 158 b 31 -10 31 110 26 26 b 104 -183 42 -86 64 -142 b 251 -253 142 -224 192 -247 b 631 -106 364 -264 497 -212 b 897 193 728 -29 824 78 b 981 764 1057 442 1089 658 b 850 821 949 796 903 817 b 819 831 818 825 819 825 b 822 867 821 833 822 850 b 819 914 824 892 822 901 b 771 986 813 949 797 974 b 714 999 753 997 744 997 b 628 986 681 1000 663 997 b 475 899 586 971 521 935 b 114 414 336 792 192 597 b 46 193 86 347 58 258 l 44 186 l 38 194 b 10 354 15 228 6 288 b 29 453 14 404 19 440 z m 103 253 b 364 746 149 419 247 607 b 697 982 475 879 603 969 b 794 881 756 990 792 953 b 790 825 794 864 792 826 b 765 822 790 825 779 824 b 513 717 674 814 583 776 b 442 644 485 693 449 657 b 435 625 439 638 436 631 b 438 614 435 618 435 617 b 453 619 444 613 453 615 b 529 701 453 631 486 667 b 746 801 597 757 667 788 b 788 803 772 807 788 807 b 781 771 788 801 785 786 b 586 400 749 647 681 518 b 197 131 463 246 322 149 b 108 136 165 126 132 128 b 81 151 96 140 81 147 b 103 253 81 158 97 228 z m 79 131 b 94 126 79 131 85 131 b 201 119 125 118 163 114 b 481 264 292 132 382 178 b 588 371 510 288 563 342 b 811 782 692 493 779 654 b 817 806 814 794 817 806 b 864 800 818 807 853 803 b 997 675 925 786 976 738 b 1008 588 1008 646 1008 633 b 1004 524 1008 551 1008 542 b 767 63 978 381 889 208 b 338 -236 631 -100 475 -208 b 253 -239 315 -240 269 -242 b 94 -97 176 -226 121 -176 b 75 42 81 -57 75 -15 b 81 128 75 76 78 121 z "},"P":{"ha":1357,"x_min":0,"x_max":0,"o":"m 540 161 b 489 69 518 115 499 83 b 482 57 482 61 481 58 b 514 93 485 54 501 74 b 592 244 539 135 581 215 b 588 428 618 317 615 381 b 493 493 567 464 535 486 b 400 490 471 497 426 497 b 64 210 275 460 147 354 b -15 -126 -6 93 -36 -36 b 19 -208 -8 -158 3 -183 b 147 -286 47 -251 92 -279 l 147 -286 b 244 -283 165 -290 224 -287 b 447 -179 311 -269 378 -236 b 563 -65 478 -156 536 -97 b 740 196 629 14 686 99 b 754 219 747 208 754 219 b 768 210 756 219 761 214 b 931 150 808 178 868 157 b 1042 153 954 147 1015 147 b 1269 247 1118 164 1197 197 b 1569 676 1397 340 1511 501 b 1603 874 1594 750 1604 811 b 1589 953 1601 913 1599 928 b 1451 1028 1568 1011 1517 1039 b 1288 946 1404 1019 1347 992 b 900 501 1172 858 1022 686 b 879 472 889 486 881 474 b 1011 740 872 467 982 688 b 1193 1001 1081 867 1154 974 b 1213 1007 1203 1008 1203 1008 b 1229 1004 1218 1006 1225 1004 b 1236 1008 1236 1004 1236 1006 b 1232 1014 1236 1011 1235 1014 b 1231 1019 1229 1017 1229 1018 b 1232 1024 1235 1019 1235 1021 b 1190 1021 1229 1026 1218 1026 b 954 921 1146 1014 1124 1004 b 610 771 781 835 711 804 b 368 725 513 738 443 725 b 197 764 297 725 242 738 b 114 931 131 803 99 868 b 311 1076 132 999 214 1060 b 475 990 396 1092 450 1063 b 482 931 481 969 482 957 b 475 875 482 904 481 886 b 475 868 472 868 472 868 b 492 975 489 868 501 936 b 392 1092 481 1040 446 1079 b 281 1088 363 1097 318 1097 b 174 1046 246 1081 200 1063 b 78 928 125 1014 92 974 b 78 858 74 911 74 875 b 247 718 96 796 161 742 b 508 718 318 700 414 700 b 681 769 565 731 614 744 b 1040 936 772 803 818 825 b 1161 996 1104 969 1151 992 b 1153 983 1165 997 1164 994 b 1060 860 1125 953 1097 917 b 853 486 1001 771 953 686 b 782 351 821 425 789 364 b 746 286 765 319 751 293 l 742 281 l 735 292 b 689 408 717 319 701 358 b 681 488 681 443 678 469 b 678 511 685 510 685 510 b 664 494 669 511 669 510 b 672 382 657 472 658 431 b 721 265 686 331 703 290 l 729 254 l 725 249 b 656 133 719 238 674 161 b 411 -158 575 4 497 -86 b 233 -256 354 -206 292 -242 b 186 -261 215 -260 211 -261 b 142 -256 158 -261 156 -260 b 101 -236 125 -250 115 -246 b 29 -131 68 -214 42 -176 b 86 194 3 -40 24 81 b 463 488 175 358 342 488 b 597 339 542 488 597 426 b 585 264 597 314 594 296 b 542 165 575 233 564 211 z m 789 281 b 821 343 797 297 813 325 b 1092 731 860 425 992 613 b 1392 992 1197 854 1304 947 b 1488 1018 1431 1011 1467 1021 b 1565 918 1529 1014 1558 978 b 1544 731 1574 868 1565 808 b 1396 428 1513 624 1460 514 b 1049 178 1299 297 1169 203 b 1013 174 1042 176 1025 175 b 808 217 939 164 865 181 b 772 247 794 226 772 244 b 789 281 772 247 781 264 z "},"Q":{"ha":1000,"x_min":0,"x_max":0,"o":"m 1013 -253 b 971 -261 1008 -250 1001 -251 b 821 -286 906 -283 886 -286 b 597 -253 747 -286 725 -283 b 422 -226 504 -231 478 -226 b 631 -106 490 -203 561 -162 b 897 193 728 -29 822 78 b 981 764 1056 442 1088 658 b 849 821 947 796 901 817 b 819 831 817 825 818 825 b 822 867 819 833 821 850 b 819 914 822 892 822 901 b 771 986 813 949 796 974 b 714 999 753 997 744 997 b 626 986 681 1000 663 997 b 475 899 586 971 521 935 b 114 414 336 792 192 597 b 44 193 85 347 58 258 l 43 186 l 38 194 b 8 354 15 228 4 288 b 28 453 13 404 19 440 b 31 458 31 456 31 458 b 8 460 31 464 14 464 b -19 315 -8 449 -19 385 b 28 168 -19 247 -6 203 b 38 149 39 157 39 157 b 31 -12 31 108 26 25 b 104 -186 42 -87 64 -143 b 251 -256 142 -225 192 -249 b 258 -256 254 -256 257 -256 b 222 -274 246 -261 231 -269 b 189 -307 203 -286 186 -303 b 210 -301 192 -310 200 -308 b 308 -258 232 -286 278 -265 b 331 -253 315 -256 324 -254 b 351 -250 338 -253 344 -251 b 442 -244 379 -246 408 -243 b 585 -268 488 -246 506 -249 b 847 -306 719 -300 771 -308 b 992 -274 907 -303 951 -293 b 1014 -254 1013 -262 1018 -258 z m 103 253 b 364 747 149 421 247 607 b 697 983 475 881 603 971 b 794 882 756 990 792 953 b 790 825 794 865 792 828 b 765 824 790 825 779 825 b 513 718 674 814 583 778 b 442 644 485 693 449 658 b 435 626 439 639 436 631 b 438 615 435 619 435 618 b 453 621 444 614 453 617 b 529 703 453 632 486 667 b 746 803 597 757 667 789 b 788 803 772 807 788 807 b 781 772 788 801 785 788 b 586 400 749 647 681 518 b 197 131 463 247 322 150 b 108 136 165 126 132 129 b 81 153 96 142 81 149 b 103 253 81 160 96 229 z m 250 -236 b 92 -94 175 -225 119 -175 b 74 44 79 -54 74 -14 b 78 131 74 79 75 125 b 93 128 79 132 83 131 b 201 121 125 119 163 117 b 481 264 292 133 382 181 b 588 374 508 290 561 342 b 810 783 692 494 778 657 b 815 807 814 797 815 807 b 863 801 817 808 851 803 b 997 675 925 788 975 740 b 1008 589 1007 647 1008 635 b 1004 525 1008 553 1008 543 b 765 64 978 383 888 210 b 338 -233 631 -99 475 -207 b 251 -236 314 -237 269 -240 z "},"R":{"ha":1400,"x_min":0,"x_max":0,"o":"m 342 647 b 147 744 251 656 186 689 b 149 918 113 797 113 861 b 218 986 164 939 194 971 b 372 1050 261 1017 314 1038 b 431 1054 390 1053 399 1054 b 486 1050 465 1054 469 1054 b 569 1001 519 1040 550 1024 b 597 954 582 986 592 974 b 603 919 603 940 603 936 b 597 883 603 903 603 897 b 564 814 590 858 575 826 b 558 803 558 806 557 803 b 606 861 568 799 592 831 b 624 924 621 897 624 904 b 608 981 624 943 619 958 b 485 1067 588 1025 544 1053 b 364 1065 458 1071 396 1071 b 206 1006 304 1054 251 1035 b 94 869 147 968 111 925 b 89 825 89 856 89 851 b 94 778 89 796 89 794 b 286 635 119 706 189 653 b 394 626 322 626 346 625 b 528 643 443 628 476 631 b 835 757 632 667 725 701 b 1142 946 928 803 997 847 b 1240 1008 1183 975 1239 1010 b 1225 992 1240 1008 1235 1001 b 1154 897 1208 974 1175 931 b 975 581 1108 831 1076 774 b 861 369 938 510 881 404 b 856 361 858 364 857 361 b 853 372 856 361 854 367 b 825 442 847 392 835 428 b 808 464 821 450 814 460 b 789 469 803 469 801 469 b 743 447 765 469 749 460 b 781 360 736 431 747 406 b 815 318 794 342 810 324 l 825 308 l 817 292 b 664 68 769 214 711 126 b 297 -201 551 -74 419 -169 b 131 -193 236 -217 175 -214 b 79 -158 108 -183 97 -175 b 18 -39 47 -129 25 -86 b 14 60 14 -17 13 36 b 67 225 21 117 38 168 b 296 460 118 326 203 414 b 408 490 342 481 369 490 b 475 475 436 490 451 486 b 558 339 519 453 550 404 b 561 292 561 329 561 311 b 531 171 558 243 553 214 b 468 65 514 139 481 81 b 469 57 463 58 463 57 b 485 68 475 57 478 60 b 564 193 503 89 549 161 b 588 267 575 214 585 244 b 588 363 592 292 592 340 b 465 497 571 432 529 478 b 410 501 449 501 446 501 b 354 497 376 501 369 501 b 140 369 281 478 204 433 b -19 29 47 275 -10 153 b 64 -183 -25 -60 3 -136 b 163 -231 92 -207 125 -222 b 264 -233 186 -236 236 -236 b 575 -87 369 -222 469 -175 b 689 28 603 -65 661 -6 b 831 225 732 78 789 157 b 846 247 839 236 846 247 b 853 224 847 247 850 236 b 933 -11 881 111 901 53 b 1022 -150 958 -64 986 -106 b 1129 -256 1047 -179 1101 -233 b 1399 -372 1208 -319 1301 -358 b 1494 -374 1421 -375 1474 -375 b 1671 -297 1560 -365 1617 -340 b 1746 -203 1729 -250 1768 -200 b 1736 -212 1742 -203 1739 -206 b 1603 -325 1722 -236 1644 -303 b 1349 -347 1528 -367 1443 -374 b 1125 -219 1265 -325 1197 -286 b 976 -22 1061 -161 1018 -103 b 886 238 942 49 918 115 b 878 276 881 258 878 275 b 896 271 879 276 886 275 b 1115 258 954 247 1036 243 b 1260 308 1161 268 1214 286 b 1633 821 1449 400 1593 597 b 1638 886 1636 842 1638 850 b 1632 944 1638 925 1636 928 b 1600 1004 1625 971 1615 988 b 1514 1036 1578 1028 1554 1036 b 1444 1025 1489 1036 1475 1035 b 1121 758 1347 992 1236 900 b 1101 735 1110 743 1101 733 b 1169 857 1106 744 1146 818 b 1292 1028 1214 931 1256 990 b 1338 1057 1313 1047 1315 1051 b 1354 1064 1346 1058 1353 1061 b 1303 1064 1364 1071 1325 1071 b 1104 950 1256 1047 1206 1019 b 739 738 944 843 842 783 b 342 647 592 674 438 638 z m 824 343 b 804 369 822 346 814 358 b 774 425 786 396 778 408 b 774 453 769 439 769 447 b 781 453 775 456 775 456 b 824 360 789 447 815 388 b 828 342 825 350 828 342 b 825 344 828 342 825 342 z m 1278 900 b 1381 974 1308 925 1350 956 b 1599 914 1517 1054 1588 1036 b 1529 636 1606 840 1581 739 b 1349 400 1481 538 1425 464 b 1161 293 1292 353 1233 319 b 1069 271 1135 283 1096 275 b 996 268 1049 268 1008 267 b 908 286 963 271 932 278 b 879 300 897 292 881 299 b 907 350 879 300 892 324 b 1025 575 942 414 967 461 b 1092 696 1069 665 1071 668 b 1281 901 1149 771 1221 850 z "},"S":{"ha":1294,"x_min":0,"x_max":0,"o":"m 896 565 b 878 549 888 551 886 550 b 765 522 872 546 822 535 b 481 449 608 486 549 472 b 122 233 325 394 214 329 b -19 -64 28 138 -19 39 b 60 -212 -19 -144 14 -208 b 75 -211 68 -214 71 -212 b 72 -206 78 -208 78 -208 b 43 -178 56 -193 51 -189 b 8 -49 21 -149 8 -104 b 79 151 8 17 31 81 b 229 307 114 204 171 264 b 529 451 306 365 414 417 b 764 510 592 471 647 485 b 853 528 801 517 840 525 b 878 533 865 531 876 533 b 865 507 878 533 874 522 b 819 356 843 461 825 406 b 819 239 814 328 814 269 b 847 121 824 208 833 165 b 858 81 853 99 858 81 b 831 72 858 81 846 78 b 525 -43 721 44 611 1 b 199 -361 344 -136 225 -251 b 197 -436 193 -383 193 -417 b 228 -494 203 -454 215 -479 b 435 -582 268 -543 342 -575 b 775 -499 558 -590 681 -561 b 838 -446 801 -481 815 -467 b 942 -244 896 -389 929 -325 b 942 -100 947 -217 947 -133 b 907 51 936 -54 924 0 b 901 76 903 65 900 76 b 954 89 901 78 925 83 b 1058 114 982 96 1031 107 b 1264 179 1160 138 1215 156 b 1358 244 1325 210 1364 238 b 1347 244 1358 249 1347 246 b 1265 196 1344 239 1310 218 b 965 106 1185 156 1158 149 b 896 89 929 97 897 89 b 878 139 893 89 893 89 b 854 244 867 178 858 215 b 856 361 851 272 851 335 b 911 528 864 417 885 476 l 919 544 l 944 551 b 1201 686 1061 585 1147 631 b 1236 776 1235 722 1247 753 b 1185 800 1229 793 1213 800 b 1115 783 1161 800 1143 796 b 894 563 1038 744 949 656 z m 861 65 b 889 -32 864 63 882 -3 b 906 -190 903 -94 908 -132 b 878 -332 904 -250 897 -289 b 657 -528 840 -415 758 -489 b 508 -562 608 -549 565 -558 b 369 -550 463 -567 414 -562 b 235 -340 254 -521 203 -439 b 281 -257 244 -311 257 -289 b 661 0 351 -161 492 -68 b 858 65 722 25 856 68 z m 1190 782 b 1183 711 1204 774 1201 739 b 958 572 1150 660 1068 608 b 936 575 925 560 926 560 b 1136 767 990 658 1068 733 b 1190 782 1163 782 1181 786 z "},"T":{"ha":853,"x_min":0,"x_max":0,"o":"m 228 297 b 308 325 253 308 279 318 b 354 326 335 331 346 331 b 369 326 363 324 371 324 b 308 336 365 336 342 340 b 214 314 282 333 236 321 b 14 114 136 281 60 206 b -17 26 -1 82 -8 58 b -22 -29 -21 7 -22 1 b -17 -81 -22 -60 -21 -64 b 143 -212 4 -157 58 -203 b 229 -210 164 -214 208 -214 b 506 -75 325 -193 418 -147 b 797 318 607 10 708 147 b 942 647 844 410 881 490 b 1054 890 989 763 1024 836 b 1069 914 1063 903 1069 914 b 1110 904 1069 914 1088 910 b 1451 869 1257 875 1354 865 b 1757 960 1585 875 1701 910 b 1796 1026 1771 974 1792 1010 b 1778 1046 1797 1038 1788 1047 b 1775 1040 1775 1044 1774 1043 b 1736 982 1775 1031 1758 1004 b 1604 913 1704 951 1664 931 b 1218 903 1497 881 1367 879 b 1085 929 1179 910 1089 926 b 1089 940 1082 931 1082 931 b 1124 974 1101 953 1121 974 b 1125 981 1126 974 1128 978 b 1103 976 1121 982 1111 981 b 1075 953 1099 975 1086 964 l 1056 935 l 1031 939 b 847 964 975 949 903 958 b 647 964 803 969 686 969 b 436 911 563 954 497 938 b 342 853 392 892 363 874 b 321 797 318 829 310 807 b 328 792 324 793 326 792 b 331 803 329 792 331 797 b 403 876 335 825 363 853 b 629 947 454 908 553 938 b 858 947 699 954 785 954 b 1011 924 901 942 972 931 b 1035 919 1019 922 1029 919 l 1044 917 l 1031 896 b 969 789 1011 868 994 838 b 886 604 944 740 931 708 b 763 336 831 475 803 414 b 514 -22 675 172 603 67 b 439 -87 478 -57 469 -65 b 247 -186 371 -139 314 -168 b 158 -197 214 -196 189 -199 b 97 -182 131 -196 119 -193 b 13 -32 42 -157 13 -103 b 228 294 13 90 108 235 z "},"U":{"ha":1340,"x_min":0,"x_max":0,"o":"m 1425 260 b 1418 257 1422 260 1419 258 b 1321 117 1381 201 1344 147 b 1111 -136 1236 -1 1182 -64 b 889 -297 1014 -235 950 -281 b 792 -233 838 -310 806 -289 b 792 -132 786 -212 786 -165 b 947 315 806 -29 861 128 b 1197 799 1015 465 1079 589 b 1253 914 1242 879 1256 908 b 1247 919 1253 915 1250 918 b 1225 919 1243 921 1229 921 b 1194 879 1222 918 1208 900 b 1126 782 1181 858 1150 815 b 832 343 1018 631 972 563 b 626 31 722 171 664 82 b 357 -225 515 -124 429 -206 b 271 -164 315 -235 285 -212 b 267 -108 268 -151 267 -144 b 271 -47 267 -76 268 -65 b 351 200 282 24 313 115 b 436 364 367 232 396 288 b 575 640 517 511 547 574 b 611 897 615 746 628 831 b 547 979 603 933 578 964 b 478 992 524 990 511 992 b 364 965 439 992 408 986 b 125 772 281 929 192 858 b 61 678 108 753 74 701 b -18 463 22 610 -7 531 b -10 333 -24 419 -21 367 b 42 279 0 301 21 279 b 42 285 49 279 49 281 b -1 351 25 289 7 319 b -8 425 -4 369 -8 413 b -6 449 -7 431 -6 442 b 53 635 -1 501 19 568 b 182 815 88 704 125 756 b 347 942 239 874 290 913 b 558 928 453 996 529 992 b 571 854 569 907 571 892 b 401 411 571 749 531 642 b 231 22 297 226 251 119 b 222 -72 224 -15 222 -32 b 225 -131 222 -106 222 -114 b 304 -236 239 -189 264 -224 b 365 -235 319 -239 347 -239 b 458 -182 393 -228 425 -210 b 551 -89 479 -167 528 -117 b 839 336 621 -6 689 96 b 1051 660 925 474 992 575 b 1129 769 1086 711 1128 769 b 1128 765 1131 769 1129 768 b 882 306 1075 682 939 431 b 747 -97 808 147 764 11 b 747 -203 744 -125 743 -185 b 810 -304 756 -254 778 -289 b 835 -314 818 -308 829 -312 l 835 -314 b 992 -265 881 -321 935 -304 b 1160 -112 1044 -231 1096 -183 b 1349 131 1225 -42 1297 53 b 1431 258 1369 164 1401 213 b 1425 261 1431 258 1429 261 z "},"V":{"ha":1083,"x_min":0,"x_max":0,"o":"m 968 238 b 425 -243 789 -32 585 -214 b 310 -193 371 -253 331 -236 b 297 -119 299 -169 297 -154 b 311 -21 297 -86 300 -64 b 454 346 332 65 368 156 b 589 671 535 524 561 586 b 631 893 619 764 632 832 b 550 1050 628 974 601 1025 b 264 976 481 1085 378 1058 b 44 714 179 914 94 814 b -14 535 13 651 -4 600 b -15 419 -19 507 -19 440 b 14 378 -8 390 -1 378 b 22 385 25 378 28 381 b 4 469 13 392 6 425 b 58 699 1 547 18 617 b 182 882 90 767 131 826 b 501 1050 286 994 422 1067 b 575 783 585 1032 611 932 b 418 392 549 682 511 586 b 281 65 342 226 308 149 b 254 -160 247 -35 240 -103 b 361 -264 269 -217 307 -253 b 447 -260 381 -267 425 -265 b 775 -53 547 -239 658 -169 b 983 204 849 21 914 101 b 1218 761 1113 399 1196 596 b 1218 903 1222 794 1222 878 b 1176 1008 1210 947 1197 981 b 1104 1078 1163 1026 1121 1067 b 1065 1093 1088 1090 1076 1094 b 1061 1085 1053 1092 1047 1085 b 1108 1050 1071 1085 1083 1075 b 1186 904 1156 1001 1175 968 b 1190 833 1189 886 1190 876 b 1175 701 1190 778 1188 757 b 969 236 1142 547 1075 396 z "},"W":{"ha":1704,"x_min":0,"x_max":0,"o":"m 508 364 b 656 611 603 514 625 549 b 708 969 733 764 751 885 b 590 1053 685 1014 649 1040 b 535 1058 574 1057 565 1058 b 481 1054 508 1058 493 1057 b 278 968 408 1042 347 1014 b 74 761 197 914 129 844 b -19 451 6 658 -25 556 b 39 275 -14 386 8 318 b 147 203 69 235 124 197 b 146 208 153 204 153 208 b 129 214 142 208 136 211 b -1 510 39 260 -14 381 b 197 879 13 643 78 764 b 442 1026 269 947 361 1003 b 529 1040 479 1038 493 1040 b 578 1036 558 1040 565 1039 b 675 936 631 1021 661 990 b 679 832 682 911 683 865 b 549 522 668 746 626 647 b 472 403 539 504 504 451 b 335 181 401 297 374 253 b 258 -25 297 111 268 31 b 258 -117 253 -53 253 -97 b 328 -197 269 -161 292 -186 b 392 -196 342 -203 374 -201 b 475 -153 414 -190 451 -171 b 953 471 576 -76 710 97 b 1058 631 1031 590 1056 631 b 1051 617 1058 632 1056 625 b 947 403 1003 526 976 472 b 850 79 892 275 860 168 b 850 -36 846 46 846 -8 b 922 -183 858 -101 885 -153 b 1006 -219 943 -201 976 -215 b 1315 -93 1093 -231 1197 -189 b 1715 394 1454 17 1596 189 b 1878 871 1824 576 1886 764 b 1831 988 1874 925 1860 958 b 1797 1014 1818 1003 1813 1007 b 1697 1033 1769 1028 1719 1036 b 1672 1021 1686 1031 1672 1025 b 1686 1024 1672 1019 1678 1019 b 1742 1021 1696 1029 1715 1028 b 1815 976 1775 1014 1799 997 b 1792 622 1867 910 1858 786 b 1663 365 1761 546 1713 447 b 1333 -47 1575 221 1436 44 b 1089 -193 1249 -122 1165 -174 b 1008 -199 1063 -201 1029 -203 b 953 -167 986 -193 969 -185 b 901 -53 925 -137 908 -106 b 904 76 897 -25 899 42 b 1031 464 921 188 958 307 b 1158 717 1053 514 1125 654 b 1276 938 1232 853 1267 918 l 1288 960 l 1282 964 b 1264 964 1278 967 1269 968 b 1188 853 1258 963 1236 929 b 1136 775 1172 831 1149 794 b 1056 649 1125 754 1088 697 b 697 124 875 371 788 243 b 447 -151 585 -29 511 -108 b 336 -183 400 -182 361 -193 b 300 -131 318 -175 306 -157 b 364 119 289 -82 313 8 b 508 367 392 181 428 242 z "},"X":{"ha":1189,"x_min":0,"x_max":0,"o":"m 22 263 b 10 250 18 263 15 260 b -19 140 -7 225 -15 192 b -19 24 -21 103 -21 50 b 33 -96 -14 -21 6 -67 b 185 -169 68 -131 121 -158 b 285 -176 208 -175 257 -178 b 707 -10 432 -174 575 -118 b 953 276 803 67 886 164 l 969 307 l 967 271 b 994 60 961 190 969 126 b 1064 -61 1011 14 1032 -22 b 1425 -264 1144 -160 1275 -232 b 1558 -276 1453 -269 1532 -278 b 1679 -264 1603 -276 1644 -271 b 1828 -214 1714 -256 1794 -229 b 1864 -186 1844 -206 1865 -190 b 1844 -192 1863 -183 1856 -185 b 1692 -247 1822 -206 1744 -233 b 1351 -225 1578 -274 1467 -267 b 1058 7 1215 -178 1113 -96 b 1011 253 1022 78 1008 154 b 1060 486 1014 324 1031 400 l 1072 519 l 1089 517 b 1185 539 1118 514 1144 519 b 1442 754 1279 585 1386 674 b 1488 868 1471 797 1486 833 b 1485 899 1489 883 1488 889 b 1458 932 1481 913 1471 925 b 1428 940 1451 936 1447 938 b 1390 939 1408 942 1403 942 b 1119 699 1303 919 1210 836 l 1103 672 l 1107 724 b 1099 876 1113 790 1110 828 b 983 1029 1081 957 1042 1007 b 886 1039 963 1036 913 1042 b 803 1018 858 1036 836 1031 b 597 892 735 992 671 954 b 321 501 457 775 358 636 b 325 419 308 458 311 425 b 336 419 331 417 336 417 b 336 428 336 419 336 424 b 347 524 331 447 336 486 b 525 801 378 617 435 706 b 892 1022 635 919 785 1010 b 929 1021 901 1022 914 1022 b 965 1013 949 1019 953 1018 b 1007 981 982 1003 993 996 b 1054 854 1029 953 1046 910 b 924 333 1075 714 1025 519 b 835 194 903 297 858 228 b 378 -140 699 11 546 -101 b 232 -151 328 -151 282 -154 b 140 -133 190 -147 169 -143 b 33 -47 92 -115 58 -87 b 1 175 3 3 -8 81 b 21 253 6 219 8 233 b 24 267 29 265 29 267 z m 1089 560 b 1231 790 1128 646 1178 728 b 1442 919 1306 882 1407 943 b 1461 886 1450 914 1458 903 b 1454 822 1464 871 1461 842 b 1357 675 1442 779 1401 719 b 1111 522 1281 599 1172 531 b 1075 525 1092 519 1075 519 b 1092 560 1075 526 1082 542 z "},"Y":{"ha":1354,"x_min":0,"x_max":0,"o":"m 1039 513 b 928 103 994 331 972 247 b 861 -97 913 50 864 -94 b 792 -122 861 -100 829 -110 b 429 -251 585 -185 510 -211 b 197 -458 317 -308 238 -379 b 175 -558 181 -493 175 -519 b 214 -643 178 -596 186 -617 b 251 -669 229 -658 232 -661 b 331 -693 275 -681 304 -690 b 582 -626 414 -703 504 -678 b 704 -510 621 -600 672 -551 b 894 -150 772 -424 838 -301 b 913 -104 904 -126 913 -106 b 960 -86 914 -103 935 -94 b 1201 26 1074 -47 1135 -18 b 1325 131 1244 56 1281 86 b 1451 283 1382 192 1431 251 b 1449 293 1456 292 1456 292 b 1426 274 1444 296 1442 293 b 1289 125 1393 232 1335 169 b 997 -54 1207 46 1119 -8 b 922 -81 969 -64 925 -81 b 931 -53 921 -81 925 -68 b 1047 343 965 47 1014 210 b 1090 519 1054 372 1074 451 b 1132 693 1107 589 1125 667 b 1161 836 1147 758 1160 819 b 1158 853 1161 847 1161 849 b 1131 854 1153 857 1136 858 b 1108 808 1129 853 1119 832 b 500 -90 892 319 710 50 b 256 -74 376 -171 281 -164 b 254 17 251 -56 251 -8 b 347 253 265 83 293 156 b 414 364 358 271 388 321 b 514 544 471 460 492 497 b 571 699 542 603 561 653 b 575 756 575 719 575 725 b 571 808 575 783 575 792 b 528 894 564 847 551 871 b 394 938 494 926 454 940 b 236 892 343 936 294 922 b 44 721 156 853 89 793 b 15 340 -26 607 -37 464 b 58 283 25 315 44 290 b 78 281 63 281 75 279 b 75 286 81 283 78 286 b 15 381 60 286 31 333 b -3 514 1 425 -4 458 b 14 619 -1 560 3 581 b 192 846 44 710 108 792 b 364 918 242 881 308 907 b 446 918 392 924 426 924 b 518 849 478 908 504 883 b 522 703 531 815 533 754 b 494 617 518 681 506 643 b 347 353 471 564 435 499 b 286 247 319 306 292 258 b 211 42 247 178 222 107 b 211 -40 208 24 208 -24 b 292 -150 219 -93 249 -133 b 392 -157 319 -160 363 -162 b 642 8 469 -140 551 -86 b 813 219 701 67 753 131 b 1039 625 886 329 929 406 b 1108 758 1078 700 1108 760 b 1097 719 1107 757 1103 739 b 1042 514 1081 664 1063 596 z m 851 -136 b 693 -457 808 -257 749 -376 b 393 -671 603 -586 506 -657 b 294 -664 354 -676 322 -675 b 244 -635 272 -658 260 -650 b 219 -497 211 -601 203 -554 b 263 -414 225 -475 247 -433 b 349 -328 279 -392 324 -347 b 635 -190 419 -276 508 -233 b 803 -137 675 -176 731 -158 b 854 -121 829 -131 853 -122 b 851 -139 857 -121 856 -124 z "},"Z":{"ha":1168,"x_min":0,"x_max":0,"o":"m 865 14 b 865 -22 867 14 867 -3 b 826 -240 864 -100 851 -169 b 644 -551 789 -353 719 -471 b 299 -732 550 -651 425 -717 b 211 -732 275 -733 231 -735 b 75 -672 156 -725 108 -703 b 39 -446 21 -617 8 -539 b 222 -222 68 -361 131 -283 b 319 -167 254 -200 275 -187 b 650 -51 401 -126 472 -101 b 838 6 725 -31 797 -8 b 865 14 853 11 865 14 z m 1217 244 b 1140 175 1188 217 1158 190 b 925 56 1083 132 1006 89 l 906 49 l 901 69 b 864 168 894 107 879 144 b 636 226 815 239 729 261 b 619 221 626 222 619 221 b 642 239 619 221 629 228 b 1014 653 821 385 953 529 b 1054 783 1042 706 1053 743 b 981 917 1057 846 1031 893 b 911 938 958 928 942 933 b 463 764 788 954 604 883 b 271 458 361 678 282 554 b 282 411 268 431 272 408 b 285 442 285 413 285 421 b 292 492 285 467 286 472 b 403 685 308 556 344 619 b 715 892 479 772 597 850 b 814 918 746 903 786 914 b 875 922 835 922 844 922 b 929 918 908 922 915 922 b 1014 839 975 906 1001 881 b 1013 761 1018 822 1018 781 b 822 458 994 679 928 575 b 479 151 746 374 638 278 b 425 106 450 128 425 107 b 442 99 425 101 433 99 l 446 99 l 442 93 b 440 85 436 88 436 88 b 468 97 447 81 451 83 b 692 224 542 165 625 211 b 758 222 714 228 743 228 b 808 189 779 214 792 206 b 835 154 822 175 826 168 b 858 89 846 132 853 113 b 864 29 863 64 865 32 b 753 -6 863 28 794 6 b 625 -43 736 -11 679 -28 b 415 -106 519 -72 461 -89 b 75 -315 258 -161 150 -228 b -8 -471 36 -361 3 -419 b 39 -687 -32 -562 -17 -633 b 133 -742 65 -711 94 -728 b 233 -760 164 -751 186 -756 b 333 -756 249 -761 314 -760 b 738 -514 488 -735 633 -649 b 896 -169 814 -417 871 -292 b 911 -26 908 -111 911 -86 l 911 26 l 944 39 b 1186 181 1046 79 1119 122 b 1247 242 1201 194 1225 217 l 1218 242 z "},"[":{"ha":267,"x_min":0,"x_max":0,"o":"m 236 463 b 181 458 229 461 204 460 b 82 418 111 453 97 447 b 60 349 75 404 64 371 b 8 31 46 283 31 181 b -11 -124 1 -33 -8 -103 b 8 -251 -26 -229 -25 -243 b 88 -249 19 -253 26 -253 b 196 -232 147 -243 188 -236 b 200 -225 199 -231 200 -228 b 192 -219 199 -219 197 -219 b 183 -222 189 -219 186 -219 b 103 -232 181 -225 181 -225 b 22 -236 36 -239 25 -240 b 25 -193 18 -233 19 -219 b 36 -140 29 -181 35 -156 b 78 193 44 -94 64 67 b 118 431 100 392 103 414 b 192 447 128 440 142 443 b 235 453 200 449 219 451 b 271 457 249 454 265 457 b 286 461 282 457 288 458 b 236 461 285 464 253 464 z "},"\\":{"ha":64,"x_min":0,"x_max":0,"o":"m 81 -229 b 71 -153 79 -204 76 -182 b 39 60 58 -69 51 -31 b 18 258 25 160 24 183 b 3 407 14 304 8 369 l 1 424 l -7 425 b -19 390 -19 425 -19 424 b -14 174 -21 356 -18 214 b -1 14 -11 125 -6 57 b 33 -211 6 -47 28 -187 b 46 -260 36 -219 42 -242 b 64 -312 54 -299 58 -310 b 82 -311 71 -315 81 -314 b 81 -226 86 -308 86 -303 z "},"]":{"ha":171,"x_min":0,"x_max":0,"o":"m 190 350 b 169 453 188 414 182 436 b 46 464 151 474 126 475 b 14 461 31 461 17 460 b 8 453 3 464 -1 457 b 58 454 17 450 22 450 b 110 458 78 458 96 458 b 136 453 131 458 131 458 b 146 435 140 449 143 442 b 151 378 149 425 150 418 b 140 164 151 329 149 276 b 121 -97 135 90 125 -42 b 106 -187 118 -153 115 -171 b 65 -215 99 -201 89 -208 b -8 -233 42 -224 -1 -233 b -19 -235 -14 -233 -18 -233 b -15 -243 -22 -236 -21 -242 b 108 -225 -3 -249 75 -237 b 161 -175 136 -215 154 -199 b 179 58 168 -156 174 -79 b 186 167 181 81 183 129 b 189 351 192 269 192 304 z "},"a":{"ha":367,"x_min":0,"x_max":0,"o":"m 372 164 b 283 99 361 154 308 117 b 189 49 240 69 210 53 b 172 49 179 47 178 47 b 164 78 164 53 163 63 b 221 203 169 101 190 147 b 246 246 231 219 242 239 l 251 258 l 247 261 b 236 264 244 264 242 264 b 208 239 226 264 224 260 b 192 218 203 231 196 221 l 183 211 l 186 219 b 146 289 200 261 182 289 b 42 225 113 289 79 268 b -28 75 3 178 -28 114 b 3 42 -28 53 -18 42 b 26 49 13 42 15 43 b 129 140 49 61 74 82 b 169 181 149 161 167 181 b 158 161 169 182 165 174 b 136 78 140 125 133 99 b 160 42 136 58 146 47 b 208 44 169 39 196 40 b 260 71 224 49 244 60 b 389 172 297 96 389 168 b 375 168 389 175 381 174 z m 167 208 l 164 192 l 132 161 b 14 58 69 100 32 68 b 6 56 8 57 6 56 b 3 75 3 56 1 68 b 81 228 6 108 46 186 b 142 278 100 253 126 275 b 167 256 153 279 164 269 b 167 208 169 246 169 228 z "},"b":{"ha":378,"x_min":0,"x_max":0,"o":"m 64 239 b 128 274 74 242 106 258 b 367 482 197 319 307 414 b 493 682 426 551 475 628 b 497 751 501 707 503 735 b 428 796 490 781 465 796 b 374 783 408 796 394 792 b 100 439 290 744 186 614 b -22 88 36 313 3 214 b -33 8 -33 33 -36 13 b -24 8 -32 8 -29 8 b -11 18 -15 8 -15 8 b 149 213 26 106 92 185 b 201 208 181 228 193 226 b 201 165 204 199 204 178 l 200 158 l 179 153 b 71 92 131 142 100 122 b 47 22 47 63 38 36 b 122 21 58 7 93 6 b 219 131 164 42 200 83 b 226 149 222 139 225 147 b 242 153 226 150 233 153 b 328 175 264 157 314 169 b 418 232 353 185 404 218 l 421 236 l 417 238 b 394 228 414 239 408 238 b 258 169 344 196 311 181 b 233 163 247 165 236 164 b 231 181 231 163 231 163 b 217 222 231 203 226 213 b 201 232 213 225 206 231 b 158 232 192 236 172 236 b 97 201 143 228 114 213 b 31 133 81 189 44 151 b 19 119 25 125 19 119 b 44 199 19 119 25 136 b 63 240 57 236 58 239 z m 74 282 b 394 772 164 528 293 725 b 461 764 426 788 449 785 b 469 699 471 747 475 724 b 297 429 458 632 388 522 b 74 253 231 363 128 281 b 61 249 64 249 61 247 b 74 282 61 250 67 264 z m 188 128 b 96 31 168 89 126 46 b 74 31 81 25 76 25 b 92 86 67 40 75 65 b 146 128 104 103 125 118 b 193 143 163 136 192 146 b 188 128 194 142 192 136 z "},"c":{"ha":274,"x_min":0,"x_max":0,"o":"m 264 171 b 129 74 211 124 169 93 b 64 53 101 58 82 53 b 42 58 51 53 49 53 b 31 74 39 61 33 68 b 25 103 25 82 25 85 b 35 143 26 119 28 126 b 103 236 49 188 69 215 b 140 240 115 244 114 244 b 151 254 151 239 158 247 b 96 258 142 263 114 264 b -8 144 47 244 8 201 b -8 81 -14 125 -14 96 b 33 42 0 60 13 47 b 103 43 49 36 82 36 b 192 92 129 53 164 69 b 299 192 219 110 299 186 b 264 171 299 197 289 192 z "},"d":{"ha":393,"x_min":0,"x_max":0,"o":"m 169 178 l 182 181 b 231 208 196 186 204 192 b 553 578 357 293 488 444 b 547 714 594 665 593 706 b 519 714 536 715 532 715 b 431 664 494 708 464 692 b 347 578 410 646 367 603 b 175 304 281 500 213 389 b 165 282 171 292 167 283 b 153 285 164 282 160 282 b 99 275 138 286 115 283 b -3 160 64 258 24 213 b -15 58 -25 117 -31 75 b 14 47 -8 50 -1 47 b 110 113 42 47 71 68 l 126 132 l 129 115 b 188 36 135 67 153 43 b 231 42 197 35 217 38 b 308 82 247 47 275 63 b 435 150 374 122 417 146 b 442 154 439 151 442 153 b 411 151 442 158 425 156 b 289 89 393 144 325 110 b 183 53 229 53 200 43 b 164 79 176 56 168 68 b 169 169 158 96 161 132 z m 178 199 b 188 226 181 207 186 225 b 192 235 189 228 190 231 b 254 375 192 247 226 324 b 519 694 340 533 443 658 b 553 699 538 703 547 704 b 344 318 594 661 482 457 b 197 203 300 275 243 231 b 176 199 178 192 175 192 z m 150 238 b 131 167 142 214 133 185 b 108 138 131 161 125 156 b 31 69 71 97 50 78 b 17 63 25 65 18 63 b 8 85 10 63 8 69 b 103 251 11 121 64 215 b 153 268 121 269 143 275 l 157 264 z "},"e":{"ha":292,"x_min":0,"x_max":0,"o":"m 317 204 b 308 201 314 204 311 203 b 272 169 308 200 292 186 b 108 54 181 89 153 69 b 46 61 81 44 60 46 b 29 104 35 71 31 82 b 40 179 29 125 31 142 l 42 186 l 58 186 b 89 196 71 186 75 188 b 142 263 119 210 142 239 b 100 294 142 285 128 296 b 49 268 81 292 68 286 b -1 169 25 244 8 213 b 49 42 -18 104 1 54 b 107 42 63 38 90 38 b 179 79 126 47 158 63 b 308 194 208 101 283 168 b 315 206 319 204 319 206 z m 51 214 b 64 242 56 222 61 235 b 99 278 72 254 89 272 l 106 281 l 110 275 b 114 258 114 271 114 269 b 96 218 114 242 108 231 b 75 203 90 213 81 206 b 47 197 63 197 51 194 b 51 214 44 197 46 201 z "},"f":{"ha":243,"x_min":0,"x_max":0,"o":"m 494 764 b 410 767 478 782 443 783 b 197 538 351 738 281 661 b -78 -46 83 368 -25 138 b -136 -403 -117 -183 -143 -342 b -125 -443 -135 -429 -132 -436 b -110 -449 -119 -449 -118 -449 b -93 -446 -103 -449 -97 -447 b -6 -275 -65 -432 -25 -353 b 11 -129 6 -233 14 -167 b -3 -36 8 -82 6 -62 b 24 -33 -3 -33 -3 -33 b 69 -28 47 -33 53 -32 b 167 15 100 -19 142 -1 b 279 114 219 53 283 108 b 261 107 276 119 269 115 b 158 28 242 88 200 54 b -3 -21 97 -14 36 -32 b -17 -6 -8 -19 -10 -18 l -24 8 l -14 35 b 53 196 6 89 47 192 b 65 200 53 197 60 199 b 179 268 88 204 125 226 b 407 485 269 336 350 411 b 494 636 442 529 481 596 b 497 764 514 697 515 743 z m -33 -292 b -97 -432 -47 -351 -74 -408 b -106 -439 -101 -436 -106 -439 b -110 -433 -107 -439 -108 -436 b -112 -393 -112 -429 -112 -418 b -108 -329 -112 -365 -112 -354 b -49 -75 -96 -256 -72 -151 b -36 -31 -43 -56 -36 -36 b -32 -21 -35 -25 -32 -21 b -29 -35 -31 -22 -31 -28 b -24 -68 -29 -42 -25 -56 b -33 -292 -10 -128 -14 -211 z m 485 683 b 308 389 471 593 406 483 b 90 221 243 325 138 244 b 60 208 81 215 60 208 b 97 288 60 210 79 250 b 394 728 197 486 314 658 b 463 764 424 751 451 765 b 486 683 481 758 492 722 z "},"g":{"ha":383,"x_min":0,"x_max":0,"o":"m 421 246 b 326 143 407 225 358 171 b 254 88 303 122 281 106 b 169 35 238 75 169 33 b 174 50 169 35 171 42 b 211 251 206 160 221 242 b 194 251 207 256 199 256 b 189 249 192 247 189 247 b 168 269 186 254 175 265 b 138 275 161 274 157 275 l 117 275 l 101 267 b -1 147 64 249 32 211 b -39 36 -25 103 -37 61 b -25 8 -39 19 -36 14 b 8 14 -14 6 -4 8 b 92 99 19 22 56 58 b 164 186 119 129 125 136 b 181 206 172 197 181 206 b 131 29 182 204 151 93 l 122 8 l 82 -14 b -179 -192 -47 -85 -121 -135 b -297 -383 -239 -251 -281 -319 b -301 -462 -303 -407 -304 -442 b -247 -525 -296 -496 -275 -519 b -149 -503 -219 -531 -182 -522 b 31 -300 -89 -468 -25 -396 b 147 -31 72 -225 108 -142 l 164 19 l 192 36 b 333 136 253 74 297 106 b 431 253 374 171 436 246 b 419 246 429 257 426 256 z m 161 208 b 140 181 156 200 146 188 b 97 128 135 172 114 149 b 11 36 64 86 36 56 b -7 25 3 31 -6 25 b -3 50 -10 25 -8 35 b 58 171 8 74 46 149 b 140 258 88 218 125 258 b 163 231 144 258 157 242 l 169 221 z m 108 -37 b -14 -315 68 -153 29 -242 b -203 -506 -74 -414 -143 -485 b -262 -497 -231 -515 -247 -514 b -282 -431 -275 -483 -282 -462 b -250 -311 -282 -392 -272 -356 b 10 -64 -204 -219 -122 -142 b 118 -3 36 -47 117 -3 b 108 -37 119 -3 114 -19 z "},"h":{"ha":410,"x_min":0,"x_max":0,"o":"m 32 149 b 61 244 32 154 47 204 b 75 271 69 268 69 269 b 139 306 85 275 117 292 b 378 514 208 351 318 447 b 504 714 438 582 486 658 b 508 782 513 739 514 765 b 439 828 501 813 476 828 b 385 815 419 828 406 825 b 110 471 301 775 196 646 b 10 215 64 379 35 300 b -24 51 -3 171 -25 64 b -17 40 -22 42 -22 42 b 1 50 -6 38 -4 38 b 42 118 11 68 28 97 b 186 269 76 171 142 239 b 225 289 201 281 219 289 b 203 219 232 289 228 271 b 168 131 181 174 172 153 b 164 82 163 108 161 97 b 181 50 167 68 172 58 b 206 44 188 44 189 44 b 235 51 219 44 224 46 b 325 125 258 63 278 78 b 389 192 349 149 378 179 b 438 247 411 215 438 246 b 435 249 438 249 436 249 b 419 236 432 249 425 243 b 286 103 400 214 304 119 b 228 63 264 85 244 71 b 200 60 213 54 204 54 b 231 192 190 75 199 118 b 258 275 253 242 258 258 b 251 296 258 289 258 289 b 232 303 246 301 244 301 b 208 299 222 303 217 303 b 142 254 196 294 163 272 b 36 138 108 226 63 176 b 25 119 31 128 25 119 b 28 125 25 119 25 122 b 33 151 31 132 32 142 z m 86 315 b 408 806 178 561 308 758 b 475 796 442 821 463 818 b 483 731 485 781 488 756 b 308 461 471 664 401 554 b 86 286 243 394 142 314 b 75 281 76 281 75 281 b 86 315 75 282 81 297 z "},"i":{"ha":247,"x_min":0,"x_max":0,"o":"m 103 325 b 119 331 113 325 114 325 b 110 353 132 343 129 353 b 86 342 99 353 90 349 b 88 328 82 335 82 333 b 103 325 92 325 93 324 z m 232 167 b 133 79 197 132 156 94 b 53 39 104 58 74 43 b 25 50 40 36 31 40 b 21 74 22 56 21 58 b 39 154 21 94 26 119 b 79 249 49 186 69 231 l 86 263 l 82 265 b 57 265 76 269 65 269 b 24 219 47 261 38 247 b -14 86 -3 165 -14 125 b -8 57 -12 71 -11 64 b 19 31 -3 44 8 35 b 167 89 56 18 113 42 b 269 193 215 131 269 186 b 233 167 269 200 260 192 z "},"j":{"ha":225,"x_min":0,"x_max":0,"o":"m 242 219 b 147 118 226 197 178 146 b 75 61 124 97 103 79 b -11 8 58 49 -10 8 b -7 25 -11 8 -8 15 b 32 225 26 135 42 214 b 14 225 26 231 19 231 b 0 171 10 221 10 218 b -47 4 -3 156 -35 47 l -56 -18 l -97 -39 b -357 -215 -226 -108 -300 -158 b -475 -408 -417 -275 -458 -343 b -481 -487 -481 -431 -483 -468 b -425 -550 -475 -519 -453 -544 b -328 -528 -397 -556 -361 -547 b -149 -325 -268 -492 -203 -419 b -31 -54 -107 -251 -69 -168 l -14 -6 l 14 13 b 154 111 74 49 119 81 b 253 229 194 146 257 221 b 242 219 250 231 247 231 z m -69 -64 b -193 -342 -110 -179 -150 -269 b -381 -531 -251 -439 -321 -510 b -440 -524 -408 -542 -425 -539 b -460 -458 -453 -508 -460 -489 b -428 -337 -460 -419 -450 -382 b -168 -90 -382 -247 -300 -168 b -60 -31 -142 -75 -61 -31 b -69 -64 -58 -31 -64 -44 z m 40 306 b 57 313 49 307 51 308 b 47 335 69 325 65 335 b 24 325 36 335 26 331 b 25 310 19 317 19 315 b 39 306 29 306 31 306 z "},"k":{"ha":342,"x_min":0,"x_max":0,"o":"m 506 772 b 436 818 497 803 474 818 b 381 804 414 818 401 814 b 107 458 297 764 192 635 b 7 204 61 368 31 289 b -26 39 -6 158 -26 53 b -19 29 -25 31 -25 31 b 4 49 -7 25 -6 28 b 42 119 14 72 29 100 b 53 136 47 128 53 136 b 53 125 54 136 54 132 b 61 75 53 110 57 88 b 92 42 67 61 79 47 b 125 36 103 36 104 36 b 186 51 150 36 160 38 b 297 139 221 69 244 88 b 369 219 347 189 374 219 b 308 163 367 219 347 201 b 233 92 276 131 243 99 b 115 46 188 57 140 38 b 86 140 97 53 86 85 l 86 157 l 96 158 b 142 174 111 160 125 164 b 176 201 154 181 161 186 b 218 258 199 222 211 242 b 219 278 221 269 221 272 b 197 289 217 286 211 289 b 40 142 164 289 97 229 b 26 125 31 131 25 125 b 28 136 26 128 28 132 b 57 232 28 142 43 189 b 69 258 64 256 65 258 b 135 293 81 263 113 279 b 374 503 204 339 314 435 b 500 703 433 571 481 647 b 504 771 508 726 510 754 z m 126 225 b 197 278 158 258 194 285 b 197 268 197 275 197 272 b 117 181 186 236 153 199 b 92 172 107 175 97 172 b 81 172 86 171 81 171 b 126 225 81 175 108 204 z m 476 717 b 303 447 464 650 393 540 b 81 271 236 379 135 299 b 68 267 69 265 68 265 b 81 300 68 268 74 282 b 401 790 171 546 300 742 b 468 781 433 806 456 803 b 476 715 478 764 481 740 z "},"l":{"ha":374,"x_min":0,"x_max":0,"o":"m 54 231 b 67 236 54 231 60 232 b 126 269 82 242 104 253 b 364 475 196 314 304 408 b 489 675 422 544 471 621 b 494 744 497 700 499 728 b 425 789 486 775 461 789 b 369 775 403 789 390 786 b 136 508 299 742 215 647 b 31 292 103 453 76 397 b -6 142 15 254 1 192 b -3 33 -8 103 -8 53 b 75 -46 10 -8 38 -37 b 142 -42 92 -49 119 -47 b 247 18 174 -32 210 -12 b 399 172 268 35 375 142 b 403 181 404 179 406 181 b 344 128 401 181 376 158 b 178 -12 253 36 217 7 b 46 4 111 -46 67 -40 b 44 178 31 36 31 94 b 56 231 50 207 54 229 z m 71 275 b 393 764 163 519 292 717 b 460 754 425 781 447 776 b 468 692 469 739 472 714 b 294 421 457 625 386 514 b 71 244 228 353 126 272 b 60 242 61 240 60 239 b 71 275 60 242 64 257 z "},"m":{"ha":489,"x_min":0,"x_max":0,"o":"m 513 186 b 485 165 508 186 501 179 b 304 32 385 75 342 43 b 290 33 294 31 294 31 b 315 161 271 47 281 90 b 364 276 358 246 364 258 b 358 292 364 286 364 288 b 338 299 353 299 353 299 b 307 292 324 299 321 297 b 181 181 269 272 219 228 b 189 213 164 161 164 158 b 211 269 204 244 208 258 b 208 281 214 275 213 276 b 193 286 204 285 201 286 b 174 278 186 286 182 285 b 33 142 138 254 78 197 b 69 244 28 136 47 186 b 69 286 86 286 86 288 b 53 278 60 286 58 286 b 14 201 43 264 25 231 b -36 68 -1 165 -25 97 b -39 39 -42 42 -42 42 b -19 40 -33 36 -22 36 b -3 68 -17 42 -8 54 b 143 242 25 119 92 197 b 183 271 163 258 181 272 b 167 239 183 269 176 256 b 111 107 142 192 121 142 b 111 89 108 92 108 92 b 126 88 114 86 122 86 b 144 111 129 88 136 99 b 319 285 197 189 269 261 b 335 281 335 292 336 292 b 301 213 333 269 324 251 b 258 131 281 178 267 151 b 276 22 240 75 247 33 b 319 25 285 19 308 21 b 417 92 344 35 375 56 b 510 179 443 114 497 165 b 511 186 517 186 517 186 z "},"n":{"ha":386,"x_min":0,"x_max":0,"o":"m 401 210 b 247 57 325 129 272 75 b 197 31 232 46 208 32 b 188 35 193 29 192 31 b 183 51 182 39 182 40 b 225 158 185 69 193 92 b 250 274 268 242 271 263 b 213 271 242 278 225 275 b 22 108 160 250 81 183 l 17 103 l 21 115 b 58 238 28 133 56 225 b 58 253 61 247 61 249 b 36 251 51 257 42 257 b -32 53 25 242 -25 93 b -31 38 -36 42 -36 42 b -22 35 -29 36 -25 35 b 4 57 -14 35 -8 38 b 58 126 22 85 35 100 b 182 239 96 169 144 214 b 225 261 201 251 225 264 b 203 203 229 258 218 232 b 160 117 181 164 167 135 b 150 44 149 89 144 61 b 172 19 153 35 164 22 b 272 61 197 10 231 25 b 408 213 294 81 396 192 b 399 208 415 222 408 219 z "},"o":{"ha":342,"x_min":0,"x_max":0,"o":"m 346 183 b 175 147 278 164 210 149 b 154 149 153 146 153 146 b 164 204 158 161 164 189 b 122 268 164 242 150 264 b 79 258 113 269 92 264 b 63 250 75 254 67 251 b 3 172 42 246 19 218 b 25 35 -25 104 -15 47 b 85 49 42 29 64 35 b 146 126 103 63 131 99 l 151 138 l 164 138 b 354 181 200 138 292 158 b 346 183 375 189 368 190 z m 124 115 b 54 47 108 86 75 54 b 31 49 42 43 38 43 b 38 143 15 61 18 92 b 47 172 42 158 47 169 b 54 169 49 176 51 175 b 118 138 61 157 88 142 b 124 114 136 136 136 138 z m 139 147 b 118 147 136 144 136 144 b 64 197 82 154 64 171 b 72 219 64 204 65 208 b 82 235 75 225 81 232 b 86 242 85 236 86 240 b 90 250 86 246 88 249 b 151 201 125 275 156 253 b 139 149 150 189 142 157 z "},"p":{"ha":219,"x_min":0,"x_max":0,"o":"m 206 254 b 153 276 199 281 176 289 b 4 51 111 256 53 165 b -8 25 -3 36 -8 25 b 14 111 -8 25 3 64 b 46 253 33 192 46 244 b 42 258 46 256 44 258 b 25 257 36 261 26 258 b -51 -6 21 251 -31 75 b -132 -351 -78 -104 -94 -178 b -133 -364 -133 -356 -135 -361 b -125 -365 -133 -365 -131 -365 b -114 -358 -118 -364 -117 -364 b -51 -149 -103 -342 -75 -244 b -31 -72 -42 -111 -33 -76 b 10 36 -25 -47 -1 11 b 17 53 14 42 17 50 b 24 50 19 57 19 57 b 115 25 42 22 86 8 b 186 117 146 39 168 69 b 204 257 204 168 213 229 z m 143 79 b 103 36 131 61 114 44 b 71 31 90 28 83 26 b 28 74 47 39 28 58 b 71 158 28 78 53 129 b 172 275 108 225 153 275 b 186 214 183 275 189 253 b 143 79 186 164 169 117 z "},"q":{"ha":386,"x_min":0,"x_max":0,"o":"m 415 157 b 378 122 414 157 400 146 b 294 53 340 86 322 71 b 153 -3 247 21 206 4 b 113 -6 136 -6 113 -8 b 119 15 113 -4 115 4 b 181 186 131 47 171 158 b 188 231 189 214 192 228 b 169 229 183 235 172 232 b 164 238 165 225 165 225 b 126 285 158 264 147 279 b 14 194 88 296 47 264 b -26 47 -11 147 -26 88 b -3 11 -26 19 -21 11 b 58 56 13 11 29 24 b 139 154 82 81 122 131 b 143 163 142 158 143 163 b 121 103 143 163 133 136 b 90 22 108 71 94 35 l 82 -1 l 74 3 b 56 -3 65 4 56 3 b 64 -8 56 -3 60 -7 b 75 -15 69 -11 74 -14 b 33 -140 75 -19 68 -43 b -3 -251 19 -181 3 -231 b -42 -462 -35 -353 -53 -449 b -14 -462 -36 -468 -24 -468 b 68 -331 3 -450 44 -385 b 113 -174 86 -292 103 -228 b 117 -108 117 -150 117 -142 b 107 -36 117 -65 115 -58 b 103 -19 103 -25 101 -24 b 117 -14 106 -15 107 -14 b 182 -6 131 -14 161 -11 b 313 51 235 7 278 25 b 414 153 336 69 407 139 b 414 157 417 157 417 157 z m 69 86 b 8 28 50 64 24 36 b -3 21 3 25 -1 21 b -4 43 -7 21 -8 32 b 31 147 -3 58 18 115 b 75 233 43 181 61 214 b 107 265 86 247 103 265 b 129 218 114 265 124 244 b 142 196 132 203 136 196 b 146 192 146 196 146 194 b 68 86 142 185 90 111 z m 99 -131 b 53 -304 96 -186 83 -231 b -8 -432 19 -381 7 -410 b -29 -456 -18 -446 -26 -457 b -26 -412 -31 -453 -31 -428 b -14 -364 -25 -403 -19 -382 b 83 -76 -4 -335 67 -122 l 92 -53 l 94 -62 b 100 -131 99 -79 101 -114 z "},"r":{"ha":354,"x_min":0,"x_max":0,"o":"m 361 179 b 285 131 342 164 303 140 b 203 110 254 114 222 106 b 179 131 194 111 185 119 b 181 201 174 142 174 172 b 186 233 183 213 186 228 b 172 251 188 247 185 251 b 118 208 161 251 153 244 b 31 108 86 175 60 146 b 7 81 18 93 8 81 b 31 136 7 79 8 85 b 67 228 47 175 58 206 l 72 247 l 68 250 b 42 251 64 253 47 254 b 0 168 38 249 19 214 b -53 -1 -33 94 -60 8 b -33 -3 -50 -3 -36 -4 b -7 36 -32 -1 -19 15 b 114 192 35 97 72 147 b 164 239 133 213 164 242 b 160 221 164 239 163 231 b 182 108 143 165 151 124 b 282 122 204 97 243 103 b 375 183 301 132 364 174 b 363 181 388 194 381 192 z "},"s":{"ha":286,"x_min":0,"x_max":0,"o":"m 311 192 b 214 161 307 193 251 175 b 92 101 185 149 121 118 l 71 89 l 63 106 b 46 136 58 114 50 129 b 38 158 42 144 38 154 b 69 240 35 179 44 203 b 81 261 75 250 81 258 b 69 265 81 264 75 265 b 42 250 58 265 54 263 b -3 161 14 222 -4 185 b 21 114 -1 149 6 136 b 39 67 36 92 43 71 b 21 53 38 65 29 58 b -42 -56 -42 4 -69 -46 b -6 -54 -35 -58 -15 -58 b 72 32 28 -42 63 -4 b 75 63 75 42 75 47 l 75 81 l 92 92 b 297 181 142 119 206 147 b 313 192 318 188 321 190 z m 42 47 b 8 -21 40 22 29 -1 b -18 -42 0 -29 -11 -37 b -32 -49 -25 -46 -31 -49 b -35 -21 -39 -49 -42 -35 b 36 57 -25 1 8 36 l 42 61 z "},"t":{"ha":244,"x_min":0,"x_max":0,"o":"m 836 728 b 828 719 832 728 831 728 b 797 682 822 708 808 690 b 583 636 758 653 681 636 b 447 647 531 636 506 638 b 310 675 413 653 313 672 b 319 697 308 675 314 686 b 343 747 342 732 347 744 b 324 749 342 751 328 753 b 317 738 322 747 319 742 b 276 681 297 704 281 681 b 260 685 275 681 267 682 b 149 701 235 689 182 697 b 13 703 110 706 42 707 b -132 654 -47 696 -94 679 b -164 622 -147 644 -164 628 b -147 628 -162 617 -157 618 b -19 692 -112 660 -72 681 b 172 690 36 703 90 703 b 269 671 208 685 269 674 b 253 639 271 671 264 657 b 47 265 200 554 83 342 b -18 106 7 186 -10 144 b -19 47 -22 86 -24 60 b 17 15 -14 31 -1 19 b 142 76 49 11 86 29 b 269 196 172 103 269 193 b 203 142 269 201 258 192 b 86 47 129 78 110 63 b 33 26 60 32 47 26 b 15 32 22 26 21 28 b 19 114 3 46 4 67 b 258 586 44 186 190 465 b 307 664 297 657 303 664 b 363 653 308 664 333 658 b 586 625 472 631 514 625 b 668 629 631 625 643 625 b 792 663 725 638 758 647 b 836 704 815 675 826 685 b 838 725 846 719 846 725 z "},"u":{"ha":339,"x_min":0,"x_max":0,"o":"m 328 138 b 206 29 267 74 235 46 b 174 21 186 19 178 17 b 178 78 164 29 167 47 b 231 194 188 104 210 153 b 257 251 253 238 257 244 b 244 258 257 256 253 258 b 224 242 236 258 235 258 b 69 82 213 228 103 113 b 15 36 51 64 28 44 b 7 35 8 32 8 32 b 43 178 -1 47 18 119 b 69 229 49 189 60 213 b 83 263 78 246 85 261 b 65 268 82 265 74 269 b 31 226 57 265 49 257 b -25 58 -6 169 -26 104 b 7 21 -24 29 -15 19 b 42 36 18 21 28 25 b 126 125 60 53 88 81 b 190 193 188 194 196 203 b 140 76 158 136 146 106 b 153 14 133 47 139 24 b 174 8 160 10 164 8 b 307 106 206 8 236 31 b 364 175 347 149 368 175 b 326 138 361 175 344 158 z "},"v":{"ha":332,"x_min":0,"x_max":0,"o":"m 353 215 b 339 210 351 215 346 214 b 285 190 325 203 306 196 b 236 188 264 185 250 185 b 192 217 217 192 200 203 l 186 225 l 192 238 b 196 261 192 244 194 256 b 192 275 196 271 196 272 b 182 279 189 278 186 279 b 161 242 168 279 161 268 b 156 214 161 228 161 225 b 39 53 128 150 81 85 b 18 47 22 40 21 39 b 42 199 13 58 22 119 b 49 236 44 214 47 232 b 47 249 49 244 49 246 b 24 249 42 253 28 253 b 1 186 21 247 7 206 b -14 54 -14 131 -19 76 b 8 31 -8 42 -3 33 b 40 33 17 29 31 31 b 149 153 69 44 113 92 b 171 192 158 165 168 183 b 178 204 175 197 178 204 b 188 197 178 204 182 201 b 247 179 204 186 225 179 b 281 185 258 179 264 181 b 353 217 315 194 367 217 z "},"w":{"ha":447,"x_min":0,"x_max":0,"o":"m 458 224 b 399 199 446 215 425 208 b 361 193 382 194 379 193 b 329 197 342 193 340 193 b 299 221 315 203 306 211 b 296 242 296 228 296 228 b 286 265 297 263 296 265 b 279 264 283 265 281 265 b 276 239 275 263 275 249 b 275 215 278 235 278 231 b 225 94 265 181 246 129 b 174 38 208 65 182 38 b 165 63 169 38 167 47 b 190 208 165 88 172 135 b 199 253 196 231 199 251 b 188 261 199 258 197 261 b 175 254 181 261 181 261 b 153 218 172 251 163 235 b 64 74 99 122 85 97 b 21 39 47 53 26 36 b 14 69 15 42 14 53 b 42 214 14 97 22 139 b 51 256 47 235 51 253 b 46 263 51 258 51 260 b 28 258 39 264 31 263 b -3 154 21 246 3 182 b 8 32 -15 89 -11 42 b 36 32 15 29 29 29 b 150 178 63 44 94 86 b 164 201 158 192 165 203 b 160 179 164 200 163 190 b 151 43 147 115 142 61 b 158 32 153 39 156 35 b 189 33 165 28 178 28 b 286 193 219 50 264 122 b 289 206 286 197 289 203 l 292 210 l 296 206 b 371 185 313 190 344 181 b 432 204 385 186 414 196 b 472 229 453 213 472 225 b 458 225 472 232 467 231 z "},"x":{"ha":289,"x_min":0,"x_max":0,"o":"m 297 194 b 203 100 272 168 224 118 b 97 35 167 65 133 46 b 53 31 83 29 63 28 b 26 78 39 38 29 53 l 25 88 l 46 108 b 86 147 57 119 75 138 b 183 214 129 186 176 219 b 190 213 185 214 188 213 b 192 221 197 214 197 218 b 129 197 181 225 158 218 b 43 128 97 176 76 158 b 26 115 25 110 25 110 b 42 194 31 139 36 165 b 53 236 47 213 51 231 b 49 246 53 243 53 244 b 31 247 46 249 35 249 b -3 147 25 244 4 185 b -8 89 -8 126 -10 103 l -7 79 l -22 64 b -164 -12 -69 22 -122 -6 b -176 -11 -174 -14 -175 -14 b -186 -12 -181 -8 -182 -8 b -186 -18 -190 -14 -190 -15 b -179 -21 -186 -19 -182 -19 b -140 -18 -171 -22 -151 -21 b -11 54 -103 -8 -53 19 l -1 63 l 3 53 b 75 19 15 28 42 17 b 197 85 111 24 153 46 b 314 206 224 106 314 201 b 296 192 314 208 308 204 z "},"y":{"ha":307,"x_min":0,"x_max":0,"o":"m 325 197 b 253 108 314 179 276 132 b 199 58 236 90 219 75 b 135 13 186 49 136 13 b 138 25 135 13 136 19 b 168 203 163 121 174 188 b 161 208 165 208 164 208 b 149 192 156 206 151 201 b 61 47 147 182 97 101 b -6 -26 36 8 13 -15 l -11 -31 l -14 -26 b -18 -10 -18 -24 -18 -21 b 35 188 -18 15 4 97 b 40 208 38 197 40 206 b 31 214 40 211 35 214 b 22 211 29 214 25 213 b 8 189 19 208 17 206 b -42 8 -19 119 -42 44 b -11 -39 -42 -25 -31 -42 b 32 -6 3 -37 11 -32 b 124 131 64 31 81 56 b 143 164 135 150 143 165 b 104 8 144 163 121 65 l 99 -11 l 69 -31 b -129 -186 -31 -92 -86 -135 b -218 -354 -175 -237 -206 -297 b -221 -425 -222 -375 -225 -407 b -181 -479 -218 -453 -201 -475 b -108 -460 -160 -485 -132 -476 b 28 -282 -62 -429 -14 -365 b 115 -46 58 -218 86 -144 l 129 -3 l 150 13 b 257 99 196 44 231 72 b 331 201 286 129 333 194 b 322 194 329 204 328 203 z m 88 -54 b -6 -297 57 -156 26 -235 b -147 -464 -50 -385 -103 -446 b -192 -458 -169 -474 -181 -471 b -207 -399 -203 -444 -207 -426 b -182 -294 -207 -365 -199 -333 b 14 -78 -149 -214 -86 -146 b 94 -25 33 -64 93 -25 b 86 -54 94 -25 92 -37 z "},"z":{"ha":299,"x_min":0,"x_max":0,"o":"m 319 224 b 218 106 301 193 251 135 b 128 39 192 83 132 39 b 124 36 126 39 125 38 b 119 43 121 35 121 36 b 85 75 115 61 104 71 b 74 78 79 75 74 76 b 128 124 74 79 97 99 b 151 172 164 153 169 164 b 58 165 140 176 106 175 b 4 163 28 160 11 158 b -12 163 -3 165 -8 165 b -8 151 -18 160 -15 156 b 14 146 -3 147 1 147 b 88 154 31 146 43 147 b 136 160 125 161 136 163 b 103 131 136 158 122 146 b 47 75 65 103 46 83 b 69 61 47 68 53 64 b 92 47 82 58 86 56 b 92 15 92 42 94 19 b 64 -3 92 15 79 7 b -132 -156 -31 -60 -89 -106 b -221 -325 -178 -208 -208 -268 b -225 -396 -225 -346 -228 -378 b -185 -450 -221 -425 -204 -446 b -111 -431 -164 -454 -136 -447 b 25 -253 -65 -399 -18 -336 b 113 -15 56 -187 83 -115 l 125 28 l 147 42 b 254 129 192 75 228 103 b 328 231 285 158 331 225 b 319 225 325 235 325 232 z m 82 -29 b 78 -43 79 -35 78 -42 b 31 -178 78 -50 51 -128 b -151 -436 -21 -311 -92 -411 b -196 -429 -172 -444 -185 -442 b -211 -371 -206 -415 -211 -397 b -186 -265 -211 -337 -203 -304 b 8 -49 -153 -186 -90 -117 b 89 3 38 -29 88 3 b 81 -29 90 1 86 -17 z "},"{":{"ha":272,"x_min":0,"x_max":0,"o":"m 107 496 b 156 571 125 515 142 544 b 188 658 165 592 172 610 b 213 714 196 686 204 704 b 278 739 225 731 254 742 b 286 744 292 738 296 739 b 197 724 264 754 218 744 b 157 642 182 708 175 692 b 113 547 144 606 128 569 b 11 456 90 518 54 485 b -19 419 -19 436 -26 425 b 14 408 -14 414 -8 413 b 58 358 49 403 57 394 b 43 281 58 336 56 319 b 13 135 17 194 13 171 b 15 94 13 115 13 108 b 101 3 29 46 61 11 b 133 3 106 3 121 3 b 192 14 158 3 179 8 b 215 32 201 18 215 31 b 201 28 215 36 208 35 b 132 10 185 14 165 8 b 103 15 114 11 111 11 b 58 79 81 26 64 51 b 63 153 56 97 57 128 b 92 256 65 172 76 208 b 101 396 114 331 118 369 b 36 429 89 414 64 426 l 29 431 l 42 439 b 106 496 58 450 90 478 z "},"|":{"ha":103,"x_min":0,"x_max":0,"o":"m 119 789 b 89 789 113 794 94 794 b 75 725 86 786 83 774 b 38 511 58 647 53 608 b 11 342 31 468 19 392 b -14 158 -8 231 -11 203 b -18 86 -14 140 -15 108 b -19 14 -19 46 -21 21 b -14 8 -18 13 -15 10 b 4 10 -8 6 1 7 b 18 69 8 13 10 21 b 32 149 24 101 31 136 b 58 314 42 192 46 211 b 108 657 71 403 89 531 b 119 789 128 797 125 786 z "},"}":{"ha":172,"x_min":0,"x_max":0,"o":"m 158 508 b 193 621 183 563 192 589 b 185 675 194 643 192 661 b 146 715 178 692 163 708 b 114 721 135 721 132 721 b 89 719 101 721 93 721 b 103 711 76 713 85 708 b 144 697 119 714 132 711 b 161 615 163 679 167 656 b 121 508 156 586 147 564 b 88 425 101 469 92 447 b 103 326 76 382 81 358 b 110 313 107 319 110 314 b 106 308 110 313 108 308 b 96 197 86 286 82 251 b 104 142 103 174 103 165 b 100 94 104 114 104 111 b 36 -12 92 58 71 25 b -12 -57 14 -37 -3 -51 b -19 -62 -17 -58 -19 -61 b 7 -60 -17 -65 -3 -64 b 78 1 21 -53 42 -36 b 135 75 113 36 124 49 b 147 132 144 96 147 108 b 132 218 147 154 147 158 b 143 299 124 258 125 279 b 153 311 147 304 153 310 b 142 324 153 313 147 318 b 129 431 118 349 114 379 b 158 508 136 453 138 458 z "},"":{"ha":563,"x_min":0,"x_max":0,"o":"m 563 431 b 575 486 586 453 589 471 b 415 519 557 503 513 511 b 322 529 369 522 325 526 b 343 536 321 531 338 536 b 351 546 353 536 356 542 b 308 544 344 551 329 551 l 292 538 l 285 542 b 321 664 247 564 260 606 b 492 751 372 714 432 744 b 553 744 514 753 540 751 b 575 746 563 740 571 740 b 494 769 588 758 547 772 b 374 739 451 769 417 758 b 232 554 275 692 204 599 b 260 531 238 546 249 536 b 269 525 264 528 269 525 b 258 514 269 524 264 519 b 192 425 226 492 194 447 b 219 381 188 406 199 392 b 236 371 228 378 235 374 b 297 353 246 363 261 358 b 406 313 331 349 376 332 b 449 271 421 303 442 283 b 357 119 485 217 449 158 b 165 68 307 97 226 75 b 28 75 128 63 63 65 b 3 92 10 81 4 85 b -6 99 3 97 3 97 b -18 96 -12 99 -14 99 b -1 68 -25 86 -18 75 b 89 49 15 61 56 53 b 181 51 108 47 164 47 b 397 114 256 61 342 86 b 492 256 475 153 511 206 b 379 353 475 293 429 333 b 371 357 375 354 371 357 b 394 363 371 357 381 358 b 563 432 476 379 531 401 z m 294 381 b 229 419 240 394 229 401 b 249 464 229 429 236 444 b 296 513 258 478 285 504 l 303 518 l 315 515 b 425 504 335 513 375 508 b 536 486 493 500 518 496 b 550 475 546 482 549 479 b 538 446 553 468 549 458 b 375 379 510 415 449 392 b 294 381 331 371 331 371 z "},"":{"ha":525,"x_min":0,"x_max":0,"o":"m 539 496 b 489 610 531 535 513 578 b 418 682 474 632 436 671 b 358 703 400 693 378 701 b 340 707 347 703 342 704 b 269 718 326 719 300 722 b 92 608 214 708 146 665 b -17 388 32 547 -1 479 b -19 326 -19 372 -19 358 b -15 264 -19 290 -19 285 b 50 129 -3 208 19 163 b 158 69 79 97 115 78 b 247 71 176 65 229 67 b 425 178 311 86 369 121 b 542 418 492 246 532 331 b 538 492 544 442 542 472 z m 494 385 b 389 186 475 306 442 242 b 226 86 339 135 279 97 b 140 97 199 81 165 85 b 32 254 89 121 47 181 b 38 424 22 304 25 369 b 114 578 53 481 78 532 b 208 663 139 608 199 663 b 225 669 210 663 218 665 b 288 685 244 678 263 682 b 363 678 319 688 347 685 b 428 624 383 668 407 649 b 494 497 463 582 483 542 b 497 443 497 485 497 475 b 492 383 497 408 497 403 z m 403 306 b 325 267 392 293 363 279 b 258 253 296 258 272 253 b 197 281 238 253 214 263 b 238 508 146 332 164 431 b 331 563 268 539 297 558 b 358 563 342 564 346 564 b 381 564 372 558 378 558 b 376 572 382 565 381 568 b 250 563 358 590 296 586 b 128 431 199 538 149 483 b 151 272 103 368 111 313 b 231 236 172 251 199 239 b 328 253 260 232 286 236 b 418 303 375 269 408 288 b 414 314 422 311 422 314 b 401 304 411 314 408 311 z "},"":{"ha":0,"x_min":0,"x_max":0,"o":""},"":{"ha":357,"x_min":0,"x_max":0,"o":"m 281 497 b 268 497 276 496 275 496 b 204 521 264 500 236 510 b 147 542 172 531 147 542 b 154 549 146 543 149 547 b 211 592 165 556 194 578 b 258 689 249 625 269 665 b 169 696 249 711 213 714 b 147 690 156 689 153 689 b 128 681 138 692 131 689 b 117 642 125 675 121 658 b 99 569 113 625 104 592 b 89 518 94 546 89 522 b 75 446 86 497 76 449 b 75 439 72 442 72 442 b 94 439 81 436 88 436 b 119 496 101 442 107 456 b 129 524 125 510 129 522 b 176 508 131 525 151 518 b 286 482 244 486 276 478 b 285 494 292 485 290 492 b 275 496 281 497 279 497 z m 144 615 l 153 664 l 158 669 b 208 692 167 675 196 690 b 222 690 218 694 218 694 b 214 638 231 681 226 658 b 161 586 204 624 181 601 b 139 571 150 578 142 571 b 144 617 138 569 140 590 z m 322 719 b 258 765 301 742 286 753 b 154 782 219 785 188 790 b 75 743 135 778 96 758 b -15 618 35 713 0 665 b -17 471 -29 575 -29 513 b 128 347 3 406 60 357 b 189 351 142 346 171 347 b 256 382 208 356 236 369 b 314 439 272 394 301 422 b 351 503 329 458 342 479 b 322 721 386 588 376 667 z m 325 547 b 181 371 304 464 247 392 b 92 385 149 360 122 364 b 21 553 43 417 18 479 b 46 651 22 589 29 615 b 129 747 64 692 92 724 b 164 763 147 758 154 763 b 179 765 168 763 175 764 b 192 769 182 768 189 769 b 219 761 199 769 213 765 b 231 754 221 758 226 756 b 275 725 239 753 258 739 b 328 636 303 697 319 672 b 331 596 331 625 331 615 b 325 549 331 572 331 565 z "},"":{"ha":653,"x_min":0,"x_max":0,"o":"m 615 264 b 532 308 599 279 558 299 b 419 328 501 318 447 328 b 406 329 414 328 408 329 b 408 333 403 331 403 331 b 478 368 421 336 464 358 b 581 486 518 393 558 439 b 608 608 601 526 611 569 b 575 692 608 646 597 669 b 525 721 560 708 547 715 b 485 725 513 725 506 725 b 415 713 454 725 438 722 b 344 647 389 700 361 674 b 308 565 333 628 318 592 b 292 518 306 554 297 533 b 215 308 272 469 258 435 b 149 140 183 215 153 138 b 140 181 146 142 142 160 b 144 236 138 203 140 231 b 139 242 147 239 144 242 b 121 186 126 242 121 225 b 135 124 121 158 125 147 l 139 114 l 129 96 b 47 -14 108 56 81 19 b -6 -53 19 -42 3 -53 b -15 -56 -8 -53 -14 -54 b -17 -62 -19 -58 -19 -58 b -11 -68 -15 -64 -12 -67 b 86 -19 8 -75 38 -61 b 153 54 119 8 132 22 b 165 75 158 65 165 75 b 172 69 167 75 169 72 b 228 26 181 60 213 36 b 381 -22 275 -1 329 -19 b 578 19 451 -28 521 -12 b 675 154 635 53 671 103 b 619 265 678 194 658 235 z m 267 328 b 289 397 268 331 278 363 b 393 668 356 607 371 646 b 482 710 424 697 449 710 b 558 664 514 710 546 692 b 571 549 575 631 579 599 b 496 403 563 497 532 440 b 394 336 464 372 431 349 b 347 331 381 332 375 331 b 293 325 331 329 306 328 b 265 328 264 322 264 322 z m 326 321 b 325 321 328 321 326 321 b 321 321 321 321 319 321 b 325 321 322 322 325 322 z m 556 46 b 447 3 525 25 488 11 b 367 0 422 -1 386 -3 b 192 79 301 8 236 36 l 175 96 l 186 119 b 247 275 208 168 225 208 l 260 313 l 294 314 b 344 318 315 314 336 315 b 475 314 375 325 431 322 b 625 221 547 297 604 263 b 558 47 654 165 625 92 z "},"":{"ha":511,"x_min":0,"x_max":0,"o":"m 503 503 b 425 504 492 503 458 504 b 365 508 368 504 364 504 b 378 553 367 508 372 531 b 414 686 390 607 406 665 b 461 771 425 722 451 765 b 461 778 465 774 465 775 b 438 775 456 781 444 781 b 421 758 435 775 428 765 b 332 556 393 724 368 665 l 315 506 l 306 504 b 183 503 301 504 246 503 b 68 503 121 503 69 503 b 75 490 64 499 65 493 b 215 481 92 482 118 481 l 308 479 l 294 442 b 200 196 264 353 225 247 b 85 4 165 122 131 65 b 19 -56 64 -21 38 -46 l 8 -61 l 4 -54 b -8 -49 0 -50 -3 -49 b -18 -58 -18 -49 -19 -51 b 6 -76 -14 -69 -8 -75 b 15 -78 10 -78 14 -78 b 58 -64 22 -79 44 -72 b 151 4 92 -47 133 -17 b 296 279 203 63 246 144 b 346 433 313 322 329 371 l 358 481 l 375 481 b 456 486 386 482 421 485 b 525 492 492 488 522 489 b 504 504 542 496 531 503 z "},"":{"ha":510,"x_min":0,"x_max":0,"o":"m 519 -169 b 446 -165 503 -171 469 -169 b 199 64 318 -139 224 -53 b 192 122 196 79 192 121 b 315 146 196 125 269 139 b 353 149 325 147 342 149 b 372 153 365 149 369 149 b 371 158 375 154 375 156 b 225 153 358 169 318 168 b 193 150 208 151 194 149 b 201 229 192 153 196 200 b 224 319 207 263 219 317 b 235 324 225 321 229 322 b 275 332 239 325 258 328 b 364 342 311 339 351 343 b 375 335 368 340 372 338 b 392 333 379 331 388 329 b 386 349 397 338 394 346 b 249 349 369 358 303 358 b 231 347 240 347 232 347 b 264 432 231 349 247 396 b 358 599 292 501 322 554 b 475 708 390 639 440 686 b 490 719 489 714 492 718 b 463 718 486 724 475 722 b 306 586 425 703 346 636 b 182 368 256 522 211 443 b 169 339 176 353 171 339 b 96 333 165 336 122 333 b 8 349 57 333 31 338 b -15 351 0 353 -8 354 b -4 329 -25 347 -19 338 b 125 313 19 315 64 310 l 164 314 l 154 279 b 136 150 142 231 136 181 l 136 138 l 118 138 b 81 144 103 138 97 139 b 46 147 63 151 53 153 b 56 132 42 144 44 142 b 115 115 69 124 92 118 l 136 114 l 138 101 b 299 -139 147 -3 204 -86 b 444 -182 343 -164 378 -175 l 444 -182 b 489 -186 454 -185 475 -186 b 524 -182 511 -186 518 -185 b 519 -171 536 -175 535 -169 z "},"":{"ha":458,"x_min":0,"x_max":0,"o":"m 461 0 b 314 -58 436 -19 363 -47 b 231 -64 279 -65 236 -69 b 232 -33 231 -64 231 -50 b 236 32 233 -17 236 13 b 256 285 240 88 246 160 b 272 554 269 453 271 497 b 297 624 275 614 271 606 b 356 653 314 635 340 647 b 379 658 361 654 371 657 b 386 664 396 658 397 661 b 299 643 365 668 335 660 b 275 632 286 638 275 632 b 272 681 275 632 274 654 b 271 731 272 706 271 729 b 261 736 269 735 265 736 b 254 675 258 735 257 726 b 251 628 253 654 251 633 l 249 617 l 228 601 b -8 265 114 519 24 390 b 25 14 -32 175 -19 75 b 172 -78 56 -31 111 -64 l 188 -81 l 188 -132 b 192 -186 188 -175 188 -185 b 211 -185 196 -187 208 -187 b 222 -135 213 -182 218 -160 b 231 -86 226 -108 231 -86 b 258 -83 231 -86 243 -85 b 353 -61 292 -81 317 -75 b 450 -19 389 -47 435 -28 b 481 6 464 -11 481 3 b 463 1 481 8 471 7 z m 208 192 b 189 -56 206 160 189 -53 b 169 -51 189 -58 189 -58 b 49 76 110 -29 71 13 b 36 169 39 108 36 126 b 42 229 36 199 38 210 b 164 494 57 319 101 414 b 247 582 192 529 247 588 b 233 442 247 581 242 518 b 208 192 219 301 214 253 z "},"":{"ha":93,"x_min":0,"x_max":0,"o":"m 100 708 b 78 683 99 708 89 697 b 42 642 47 642 43 639 b 8 711 31 675 15 706 b -18 713 3 715 -12 715 b -19 701 -21 710 -21 708 b 8 626 -19 692 0 643 b 25 610 14 614 17 613 b 42 610 32 608 32 608 b 58 619 49 611 53 614 b 113 706 69 631 113 700 b 99 708 113 708 103 711 z "},"":{"ha":78,"x_min":0,"x_max":0,"o":"m 86 674 b 56 713 75 708 72 711 b 19 692 39 714 33 710 b -19 642 1 672 -17 647 b -8 633 -22 635 -19 632 b 31 665 4 635 11 640 b 49 688 40 678 47 688 b 58 669 49 688 54 679 b 83 631 74 642 79 633 b 94 631 89 629 90 629 b 86 675 99 635 99 639 z "},"":{"ha":69,"x_min":0,"x_max":0,"o":"m 85 708 b 68 679 79 708 75 703 b 42 636 58 651 47 635 b 31 643 39 636 35 639 b 14 689 25 651 22 658 b -4 713 8 706 6 711 b -15 708 -10 713 -12 713 b -21 692 -19 706 -21 704 b 22 624 -19 660 -1 631 b 76 647 47 617 72 628 b 88 707 79 658 88 704 b 83 708 88 708 86 708 z "},"":{"ha":125,"x_min":0,"x_max":0,"o":"m 124 688 b 71 682 106 679 97 679 b 8 679 42 688 25 686 b -19 653 -3 672 -14 663 b -18 646 -21 649 -21 647 b 4 653 -12 642 -7 642 b 24 667 11 658 19 664 b 74 665 32 671 38 671 b 124 672 96 664 108 664 b 142 689 133 676 142 685 b 122 686 142 694 136 693 z "},"":{"ha":71,"x_min":0,"x_max":0,"o":"m -14 692 b -12 671 -22 688 -21 675 b 18 672 -3 668 11 668 b 22 689 25 678 28 685 b -14 693 18 693 -8 696 z m 86 694 b 71 699 81 697 79 699 b 56 696 65 699 58 697 b 46 681 51 694 46 686 b 56 668 46 675 51 669 b 88 675 67 664 81 668 b 86 694 93 683 92 689 z "},"":{"ha":556,"x_min":0,"x_max":0,"o":"m 519 160 b 500 192 517 172 508 182 b 490 192 497 194 494 194 b 490 182 489 189 489 185 b 511 122 507 167 515 144 b 478 64 506 101 494 81 b 364 -12 447 29 407 3 b 243 -18 324 -26 283 -26 b 200 -1 228 -14 213 -8 b 168 38 185 8 174 21 b 172 99 161 57 167 81 b 194 153 178 118 188 135 b 222 203 203 169 213 186 b 246 246 232 219 243 239 l 251 258 l 249 261 b 238 264 244 264 243 264 b 210 239 228 263 224 258 b 192 217 204 231 196 219 l 183 210 l 188 219 b 146 288 200 260 183 288 b 43 225 113 288 79 267 b -28 75 3 178 -28 114 b 3 42 -28 53 -17 42 b 28 49 13 42 17 42 b 129 139 50 60 74 81 b 169 181 150 161 167 179 b 160 160 171 182 167 172 b 138 99 150 142 139 121 b 194 -14 133 53 156 8 b 261 -35 214 -25 238 -31 b 403 -8 311 -40 360 -31 b 489 58 435 8 464 31 b 522 122 504 76 517 97 b 521 160 526 135 525 147 z m 167 207 l 164 190 l 132 158 b 13 57 68 97 31 65 b 4 53 8 54 6 53 b 0 74 3 53 0 65 b 79 225 4 106 44 183 b 142 275 100 251 126 272 b 167 254 150 278 163 268 b 167 206 169 244 169 225 z "},"":{"ha":590,"x_min":0,"x_max":0,"o":"m 522 461 b 514 461 521 463 517 463 b 514 453 511 458 511 454 b 551 322 557 410 571 365 b 232 161 515 233 357 167 b 233 168 232 163 232 167 b 232 185 232 171 232 175 b 218 226 232 207 228 217 b 203 235 214 229 207 233 b 161 235 193 238 174 238 b 100 204 144 231 115 215 b 32 135 82 190 44 154 b 21 121 26 128 21 121 b 44 201 21 121 25 138 b 64 242 57 239 58 240 b 128 276 74 244 106 261 b 367 485 199 322 307 418 b 493 685 426 553 475 629 b 499 753 500 710 503 736 b 428 799 489 783 465 799 b 374 786 407 799 394 796 b 100 440 289 746 185 617 b -22 90 38 314 3 217 b -33 11 -33 36 -36 14 b -24 10 -33 11 -28 10 b -11 21 -17 10 -17 10 b 149 215 28 108 92 188 b 201 210 181 231 194 229 b 201 168 206 201 206 181 l 200 161 l 178 156 b 72 93 131 143 100 125 b 47 24 47 65 38 40 b 122 24 57 8 94 7 b 218 133 163 43 200 85 b 225 149 222 140 224 146 b 561 318 356 153 522 224 b 521 463 582 365 567 415 z m 74 285 b 396 775 165 531 294 728 b 463 767 428 790 450 788 b 472 701 472 751 475 726 b 297 432 460 635 389 525 b 75 257 232 364 129 285 b 63 251 65 251 63 251 b 75 286 63 253 68 268 z m 189 131 b 97 35 169 93 128 49 b 74 33 83 28 78 28 b 94 90 67 43 76 68 b 147 131 106 106 125 119 b 194 146 164 139 193 149 b 189 131 194 146 193 139 z "},"":{"ha":354,"x_min":0,"x_max":0,"o":"m 317 276 b 311 276 317 276 313 276 b 311 271 311 275 311 271 b 333 221 325 257 333 239 b 317 167 333 201 328 183 b 236 88 297 135 267 108 b 100 40 194 61 149 43 b 72 43 90 40 81 40 b 33 67 57 44 43 54 b 26 94 29 75 28 85 b 39 156 26 115 31 138 b 106 238 53 189 74 221 b 117 243 110 240 113 242 b 139 240 125 243 133 242 b 150 242 143 240 146 240 b 156 249 153 243 156 244 b 144 258 156 254 150 257 b 94 257 128 264 111 263 b 49 232 78 251 61 243 b -11 121 17 204 -6 163 b -3 71 -12 104 -11 88 b 28 42 4 60 17 49 b 83 26 44 32 64 26 b 225 67 133 24 183 42 b 243 78 231 71 238 74 b 325 161 275 100 306 126 b 342 221 335 179 343 199 b 317 275 340 240 332 260 z "},"":{"ha":549,"x_min":0,"x_max":0,"o":"m 171 176 l 182 181 b 231 208 194 185 204 190 b 551 576 356 293 488 443 b 547 714 593 665 593 704 b 519 713 536 715 532 715 b 432 663 494 707 465 690 b 346 576 410 644 367 601 b 175 304 282 499 211 388 b 165 282 171 292 165 282 b 154 283 165 282 160 282 b 99 275 138 286 115 282 b -4 160 65 258 22 211 b -17 58 -26 115 -31 75 b 14 47 -8 49 -1 47 b 110 111 42 47 71 67 l 126 132 l 128 115 b 136 86 131 104 133 94 b 189 14 143 56 161 29 b 256 -7 210 1 232 -6 b 399 19 304 -12 354 -3 b 483 85 431 36 460 58 b 518 149 499 104 513 125 b 517 188 521 161 521 175 b 497 218 513 199 504 210 b 488 218 493 221 490 221 b 488 208 486 215 486 211 b 508 149 504 193 513 171 b 476 90 504 126 492 107 b 361 14 444 56 404 31 b 240 10 321 0 281 0 b 197 25 225 13 210 17 b 165 64 182 33 171 47 b 163 85 164 71 163 78 b 169 165 160 104 163 136 z m 176 193 b 188 221 179 201 186 219 b 190 229 188 224 190 226 b 254 371 192 243 226 318 b 521 689 340 528 443 653 b 554 693 538 699 549 699 b 343 314 593 656 482 451 b 197 199 300 269 243 225 b 176 194 176 188 175 188 z m 149 233 b 131 161 142 210 133 178 b 108 132 131 156 125 150 b 31 64 71 92 49 72 b 15 57 25 60 18 57 b 8 78 10 57 8 64 b 101 244 11 115 64 210 b 154 263 121 264 143 271 l 157 260 z "},"":{"ha":350,"x_min":0,"x_max":0,"o":"m 294 290 b 289 290 294 293 292 293 b 289 286 289 290 289 288 b 311 236 303 274 311 254 b 296 183 313 218 306 199 b 214 103 276 150 246 124 b 178 83 203 96 190 90 b 142 68 167 78 154 72 b 101 58 128 64 115 61 b 67 57 89 57 78 57 b 53 57 61 57 56 57 b 43 65 49 60 44 63 b 33 83 39 71 35 76 b 29 104 32 90 31 97 b 40 179 29 126 32 143 l 43 186 l 58 186 b 89 196 72 188 75 189 b 143 263 119 211 143 240 b 100 294 143 285 128 296 b 50 268 79 293 68 288 b -1 171 26 246 10 213 b -7 135 -6 158 -7 146 b -6 103 -8 124 -7 113 b 6 76 -4 93 0 85 b 21 57 8 68 14 63 b 39 44 26 51 32 47 b 57 40 44 42 50 40 b 58 40 57 40 58 40 b 86 42 67 40 76 40 b 96 43 89 42 93 43 b 135 51 110 44 122 47 b 174 68 149 57 161 61 b 189 75 178 69 183 74 b 201 85 193 78 197 81 b 219 94 208 88 214 90 b 301 179 251 117 282 144 b 318 236 311 196 319 217 b 294 290 318 257 310 278 z m 53 214 b 67 240 56 224 63 235 b 100 278 74 254 90 274 l 107 281 l 111 276 b 115 257 115 271 117 269 b 96 218 115 242 110 231 b 76 203 92 213 82 207 b 49 196 64 196 51 194 b 53 214 46 197 46 201 z "},"":{"ha":546,"x_min":0,"x_max":0,"o":"m 496 765 b 411 767 479 783 444 783 b 197 539 353 739 281 661 b -76 -44 85 368 -25 139 b -136 -403 -115 -183 -142 -342 b -125 -443 -133 -428 -131 -435 b -108 -449 -119 -449 -117 -449 b -92 -444 -103 -449 -96 -447 b -4 -275 -64 -432 -24 -353 b 13 -128 7 -233 14 -167 b -1 -36 8 -82 7 -61 b 1 -33 -1 -35 0 -33 b 336 135 131 -29 297 42 b 296 279 357 183 342 233 b 288 279 294 283 290 283 b 288 272 286 278 286 274 b 325 142 331 228 344 185 b -1 -21 289 50 125 -17 b -3 -18 -1 -21 -3 -19 b -14 -4 -7 -17 -8 -14 l -22 10 l -12 36 b 54 199 8 92 49 193 b 68 203 56 200 61 201 b 181 269 90 207 126 229 b 408 488 272 339 351 414 b 496 639 443 532 481 599 b 497 767 517 700 518 746 z m -31 -290 b -96 -429 -46 -349 -71 -406 b -104 -437 -99 -433 -103 -437 b -108 -431 -104 -437 -107 -433 b -111 -390 -110 -426 -111 -415 b -106 -326 -111 -364 -110 -351 b -47 -72 -94 -253 -69 -149 b -35 -28 -42 -53 -36 -33 b -31 -18 -32 -22 -31 -18 b -28 -32 -29 -19 -28 -25 b -21 -65 -26 -39 -25 -54 b -31 -290 -8 -125 -11 -208 z m 488 686 b 311 392 475 596 408 486 b 92 222 246 328 142 247 b 63 211 82 218 63 210 b 100 289 63 213 81 253 b 397 729 199 489 315 660 b 464 767 425 754 453 768 b 488 686 483 761 494 725 z "},"":{"ha":285,"x_min":0,"x_max":0,"o":"m 581 -79 b 521 -60 561 -68 540 -64 b 397 -74 478 -56 436 -61 b 286 -131 357 -86 319 -104 b 256 -153 276 -136 265 -144 b 129 -110 214 -136 172 -121 b 157 -31 138 -85 147 -58 l 174 19 b 178 32 174 19 178 32 b 182 49 178 32 181 40 b 221 250 215 158 231 239 b 204 249 215 254 210 254 b 199 247 200 246 199 246 b 176 269 196 253 183 264 b 147 272 169 272 165 272 l 126 272 l 110 265 b 8 146 74 247 40 208 b -29 35 -15 101 -29 60 b -15 8 -29 19 -26 13 b 15 14 -7 6 4 7 b 101 100 29 22 65 58 b 172 186 126 129 133 136 b 189 207 182 197 189 207 b 139 31 192 204 160 93 l 132 8 l 131 7 b 126 -11 131 0 129 -6 b 117 -40 124 -17 121 -28 b 94 -103 110 -61 103 -82 b 81 -97 90 -101 86 -100 b -43 -93 40 -90 -1 -86 b -160 -137 -85 -97 -125 -114 b -246 -226 -194 -161 -222 -193 b -304 -336 -269 -261 -290 -297 b -318 -397 -311 -357 -317 -376 b -315 -461 -321 -418 -321 -440 b -275 -514 -310 -482 -296 -503 b -240 -525 -264 -519 -253 -524 b -160 -514 -212 -531 -185 -525 b -140 -504 -153 -511 -146 -508 b 39 -301 -79 -468 -17 -397 b 122 -124 69 -249 96 -192 b 243 -164 164 -135 204 -150 b 142 -328 199 -210 164 -267 b 144 -336 140 -331 142 -335 b 153 -332 149 -336 151 -336 b 257 -169 175 -271 210 -214 b 310 -190 274 -176 292 -183 b 425 -231 347 -204 385 -219 b 488 -240 444 -235 465 -239 b 549 -231 507 -242 529 -240 b 599 -192 569 -224 588 -208 b 618 -131 611 -175 621 -153 b 579 -79 615 -107 597 -89 z m 169 206 b 149 179 164 199 154 186 b 106 125 143 169 122 147 b 19 36 72 85 43 54 b 1 24 10 29 3 24 b 6 49 -1 24 0 33 b 67 169 15 72 54 147 b 149 256 96 215 132 256 b 171 231 153 256 165 242 l 176 219 z m -7 -317 b -56 -386 -24 -342 -37 -364 b -106 -443 -71 -407 -87 -425 b -156 -485 -121 -458 -137 -472 b -179 -497 -162 -490 -171 -494 b -210 -510 -189 -503 -199 -508 b -242 -508 -221 -511 -231 -510 b -271 -497 -251 -506 -261 -503 b -304 -456 -287 -489 -299 -474 b -307 -397 -310 -437 -310 -418 b -292 -342 -304 -379 -299 -360 b -237 -235 -279 -303 -260 -267 b -154 -149 -214 -201 -186 -171 b -44 -107 -121 -126 -83 -111 b 76 -112 -4 -101 36 -104 b 88 -114 79 -114 83 -114 b -7 -317 57 -194 26 -261 z m 588 -183 b 543 -219 576 -200 560 -212 b 426 -217 506 -233 465 -226 b 311 -176 388 -207 349 -192 b 265 -158 296 -171 281 -164 b 290 -140 274 -153 282 -146 b 396 -85 322 -115 358 -97 b 514 -72 433 -74 475 -68 b 569 -90 533 -75 553 -81 b 603 -131 586 -99 600 -114 b 586 -183 606 -150 597 -168 z "},"":{"ha":574,"x_min":0,"x_max":0,"o":"m 547 157 b 531 186 543 168 539 178 b 517 188 526 189 519 193 b 521 178 515 183 519 181 b 535 110 539 161 542 133 b 493 50 526 86 511 67 b 389 -14 464 22 429 -1 b 286 -22 356 -25 319 -28 b 207 18 257 -17 224 -7 b 193 67 197 32 193 50 b 228 189 192 110 211 150 b 253 258 243 225 250 244 b 256 275 254 264 256 269 b 249 294 256 289 256 289 b 231 301 243 300 242 300 b 206 299 219 301 214 301 b 138 253 192 293 158 272 b 33 135 103 225 58 175 b 22 118 26 126 22 118 b 24 124 22 118 22 121 b 31 150 26 129 29 140 b 58 244 31 156 46 206 b 72 272 67 268 68 271 b 136 306 82 275 115 292 b 376 517 208 353 317 449 b 503 715 436 583 486 661 b 508 783 511 739 514 767 b 439 829 500 814 475 829 b 383 817 418 829 404 826 b 108 472 300 776 196 646 b 10 217 64 379 33 300 b -24 51 -3 172 -25 65 b -18 40 -24 43 -24 42 b 0 50 -7 39 -6 39 b 40 118 10 68 26 99 b 185 269 75 172 140 239 b 224 289 200 279 219 289 b 203 219 232 289 226 272 b 167 126 189 189 174 160 b 182 26 160 92 164 56 b 265 -33 200 -6 231 -24 b 392 -28 307 -43 353 -40 b 503 39 433 -14 469 10 b 549 108 522 58 542 82 b 550 158 553 124 554 142 z m 86 315 b 408 806 178 560 307 756 b 475 794 440 819 463 817 b 483 731 485 779 486 756 b 308 460 471 663 400 553 b 86 283 243 393 142 311 b 75 279 76 279 75 278 b 86 314 75 281 81 296 z "},"":{"ha":399,"x_min":0,"x_max":0,"o":"m 369 163 b 350 194 367 175 358 185 b 342 194 347 197 343 197 b 342 185 340 192 340 188 b 361 125 358 169 367 147 b 331 67 358 104 344 83 b 214 -10 299 32 258 6 b 93 -15 175 -24 133 -24 b 51 1 79 -11 64 -6 b 19 40 36 11 25 24 b 24 101 14 60 17 83 b 47 156 29 121 38 138 b 74 206 54 172 64 189 b 97 249 83 222 93 242 l 103 261 l 100 263 b 88 265 97 265 94 267 b 71 254 81 265 75 261 b 36 208 58 239 47 224 b 10 161 25 194 18 178 b -12 99 0 140 -8 121 b 44 -12 -17 54 6 10 b 111 -33 64 -25 88 -32 b 253 -7 161 -39 210 -29 b 339 58 286 10 314 32 b 374 122 354 78 368 99 b 372 161 376 135 376 149 z m 118 322 b 135 329 126 324 129 325 b 125 351 147 342 143 351 b 101 340 114 351 104 349 b 103 328 97 333 97 332 b 117 322 107 322 108 322 z "},"":{"ha":143,"x_min":0,"x_max":0,"o":"m 65 278 b 82 285 75 278 76 281 b 72 307 94 297 92 307 b 49 296 61 307 53 304 b 50 282 44 289 44 288 b 65 278 54 278 56 278 z m 417 -104 b 357 -85 399 -93 378 -89 b 233 -99 315 -81 272 -86 b 122 -156 193 -111 156 -129 b 93 -178 113 -161 103 -169 b -35 -135 51 -161 10 -146 b -7 -56 -25 -110 -15 -83 l 10 -6 b 15 7 10 -6 15 7 b 19 24 15 7 17 15 b 58 225 53 133 68 214 b 47 228 54 228 51 228 b 36 222 43 228 38 225 b 32 204 33 217 32 210 b 26 175 31 194 29 185 b 19 147 25 167 22 157 b 3 89 15 128 10 108 b -17 25 -3 68 -10 47 b -22 6 -18 18 -21 11 l -29 -17 l -31 -17 b -35 -35 -31 -24 -32 -29 b -44 -64 -37 -42 -40 -51 b -67 -126 -51 -86 -58 -106 b -81 -122 -71 -125 -75 -124 b -204 -117 -121 -115 -162 -111 b -321 -161 -246 -122 -286 -139 b -407 -251 -356 -186 -383 -217 b -465 -361 -431 -285 -451 -322 b -479 -422 -472 -381 -478 -400 b -476 -485 -482 -442 -482 -464 b -436 -537 -471 -506 -457 -526 b -401 -550 -425 -543 -414 -547 b -321 -539 -374 -556 -346 -550 b -301 -528 -314 -535 -307 -532 b -122 -325 -240 -493 -178 -421 b -39 -149 -92 -272 -65 -217 b 82 -189 3 -160 43 -174 b -19 -351 38 -235 3 -292 b -17 -360 -21 -356 -19 -358 b -8 -356 -12 -361 -10 -360 b 96 -194 14 -294 49 -239 b 149 -214 113 -200 131 -207 b 264 -254 186 -228 224 -243 b 326 -265 283 -260 304 -262 b 388 -256 346 -267 368 -264 b 438 -217 408 -249 426 -233 b 457 -156 450 -200 460 -178 b 418 -103 454 -132 436 -112 z m -168 -342 b -215 -411 -182 -367 -197 -389 b -265 -468 -231 -432 -247 -450 b -315 -510 -281 -483 -297 -497 b -339 -522 -324 -515 -331 -519 b -368 -535 -349 -528 -358 -533 b -401 -533 -381 -536 -390 -535 b -431 -522 -412 -531 -421 -528 b -464 -481 -447 -514 -458 -499 b -467 -422 -468 -462 -468 -443 b -451 -367 -464 -404 -458 -385 b -397 -260 -439 -328 -419 -292 b -314 -174 -374 -226 -346 -196 b -204 -132 -281 -151 -243 -136 b -85 -137 -164 -126 -124 -129 b -72 -139 -81 -139 -76 -139 b -168 -342 -103 -219 -135 -286 z m 426 -208 b 382 -244 415 -225 400 -237 b 265 -242 346 -258 304 -251 b 151 -201 228 -232 189 -217 b 106 -183 136 -196 121 -189 b 131 -165 114 -178 121 -171 b 236 -110 163 -140 199 -122 b 354 -97 275 -99 315 -93 b 410 -115 374 -100 393 -106 b 443 -156 426 -124 440 -139 b 426 -208 446 -175 438 -193 z "},"":{"ha":442,"x_min":0,"x_max":0,"o":"m 58 235 b 72 261 67 257 68 260 b 136 294 82 264 114 281 b 375 506 207 342 315 438 b 503 706 436 572 483 650 b 507 772 510 729 513 756 b 436 818 499 803 475 818 b 382 806 417 818 403 815 b 108 461 299 767 193 636 b 8 206 63 369 31 290 b -25 40 -4 161 -26 54 b -19 29 -25 32 -25 31 b 6 50 -7 26 -4 28 b 42 119 14 72 29 100 b 43 124 42 122 43 122 b 43 122 43 122 43 122 b 53 74 42 106 43 89 b 83 43 58 61 69 50 b 139 28 100 33 119 29 b 281 69 189 25 238 44 b 299 79 286 72 292 76 b 381 165 331 103 361 129 b 397 222 392 182 399 201 b 374 276 397 243 389 263 b 369 276 372 278 369 278 b 369 272 367 275 367 272 b 390 222 382 258 390 240 b 375 168 392 203 385 185 b 293 89 354 136 325 110 b 167 43 256 65 213 46 b 167 43 167 43 167 43 b 157 43 164 43 160 43 b 131 44 147 43 139 43 b 113 51 125 46 119 49 b 92 68 104 56 97 61 b 86 97 86 78 86 88 b 89 132 85 108 86 119 b 97 158 90 140 93 150 b 99 161 97 160 97 161 b 142 178 113 164 125 168 b 178 206 156 183 163 189 b 219 261 200 226 213 244 b 219 282 222 272 222 275 b 199 292 217 289 213 292 b 126 249 181 292 156 276 b 126 249 126 249 126 249 b 57 168 104 228 81 200 b 42 144 53 161 47 153 b 28 129 33 133 26 126 b 31 139 29 132 31 136 b 58 236 31 144 46 193 z m 83 306 b 404 794 175 550 303 746 b 471 785 436 810 458 806 b 481 722 481 769 483 744 b 306 451 468 656 397 544 b 83 275 240 383 138 303 b 71 272 74 271 71 269 b 83 306 71 272 76 289 z m 131 229 b 169 265 142 243 157 256 b 200 282 186 278 199 285 b 199 272 201 279 200 275 b 196 263 199 268 197 267 b 186 244 193 257 190 251 b 119 185 169 222 146 199 b 106 178 114 182 108 179 b 93 176 100 178 97 176 b 83 176 88 176 83 176 b 129 229 83 179 108 210 z "},"":{"ha":422,"x_min":0,"x_max":0,"o":"m 44 176 b 54 231 49 207 54 231 b 67 235 54 231 60 232 b 126 268 82 242 104 254 b 364 476 196 314 304 410 b 489 675 422 543 471 621 b 494 743 497 700 499 726 b 425 789 486 774 461 789 b 371 776 404 789 390 786 b 136 508 299 743 215 649 b 32 292 104 454 76 397 b -6 142 15 254 1 193 b -1 35 -8 104 -7 54 b 28 -18 4 15 14 -3 b 111 -51 49 -40 82 -49 b 207 -44 143 -56 176 -53 b 338 38 257 -29 301 -1 b 375 103 354 56 369 78 b 354 171 381 126 374 156 b 343 174 350 174 347 176 b 347 161 340 171 343 165 b 360 96 364 144 367 118 b 321 38 353 74 338 54 b 199 -33 288 4 244 -22 b 136 -39 178 -37 157 -39 b 67 -22 114 -37 88 -35 b 33 88 32 0 32 50 b 43 176 35 117 38 147 z m 69 275 b 392 765 160 521 290 717 b 458 754 424 781 444 776 b 467 690 467 739 471 715 b 293 421 454 624 383 514 b 71 244 226 354 125 272 b 58 240 60 240 58 239 b 71 275 58 242 64 257 z "},"":{"ha":692,"x_min":0,"x_max":0,"o":"m 639 161 b 618 193 633 174 626 183 b 610 193 615 196 611 196 b 608 183 606 190 606 188 b 628 125 625 169 633 147 b 594 65 624 103 611 82 b 481 -11 565 32 524 6 b 379 -19 449 -24 413 -24 b 299 15 351 -14 318 -7 b 306 142 267 54 286 104 b 310 149 306 143 308 147 b 311 154 310 150 311 153 b 315 161 313 156 314 160 b 328 188 319 171 324 179 b 329 190 328 189 329 189 b 361 263 350 231 358 249 b 365 278 364 268 365 272 b 358 293 365 288 364 289 b 338 300 353 300 351 300 b 306 293 322 300 322 299 b 181 182 269 274 219 229 b 189 213 165 163 164 160 b 211 271 204 246 208 258 b 208 282 213 276 211 276 b 194 286 206 286 201 286 b 172 279 186 286 183 286 b 33 143 139 256 78 199 b 71 246 29 138 47 188 b 71 288 89 288 89 289 b 53 279 61 288 60 288 b 14 203 44 265 26 232 b -33 69 0 167 -25 99 b -39 40 -42 43 -42 43 b -18 42 -33 38 -22 38 b -1 69 -17 43 -8 56 b 144 243 26 121 92 199 b 183 272 163 260 183 274 b 168 240 185 271 178 257 b 113 107 143 193 122 143 b 113 90 110 93 110 93 b 129 89 117 88 125 88 b 147 113 132 89 139 100 b 322 286 200 190 272 263 b 336 282 336 293 338 293 b 301 214 335 271 325 253 b 260 132 281 179 267 153 b 250 65 253 110 249 88 b 310 -12 254 33 283 3 b 376 -35 329 -25 353 -31 b 518 -7 426 -40 475 -29 b 606 60 551 10 581 32 b 639 122 621 76 633 99 b 638 160 642 135 642 149 z "},"":{"ha":567,"x_min":0,"x_max":0,"o":"m 535 158 b 515 190 531 171 524 181 b 507 190 513 193 508 193 b 506 181 503 188 503 185 b 525 122 522 167 529 144 b 492 63 521 100 507 79 b 378 -14 463 29 421 3 b 257 -18 339 -26 296 -26 b 213 -3 242 -15 226 -10 b 179 68 189 13 176 40 b 208 151 182 97 196 124 b 235 201 217 168 226 185 b 260 244 246 218 257 238 l 263 250 l 265 257 l 263 258 b 250 274 261 267 257 271 b 213 271 242 278 226 276 b 22 110 160 251 82 185 l 17 104 l 22 117 b 58 239 29 135 57 226 b 57 253 61 250 61 250 b 35 251 51 257 40 257 b -33 54 25 242 -26 94 b -32 39 -36 42 -36 42 b -24 35 -29 36 -25 35 b 3 57 -14 35 -10 39 b 57 128 22 85 35 101 b 182 240 96 171 143 214 b 225 263 200 253 224 264 b 213 228 228 261 222 246 b 201 204 210 219 206 213 b 172 146 190 185 181 165 b 150 90 163 128 154 108 b 149 53 146 78 146 65 b 165 19 151 40 157 29 b 203 -17 175 6 189 -10 b 271 -37 224 -29 247 -36 b 413 -11 319 -43 368 -33 b 499 54 446 6 475 28 b 533 118 515 74 529 94 b 532 157 536 131 536 144 z "},"":{"ha":460,"x_min":0,"x_max":0,"o":"m 419 304 b 399 336 414 317 408 328 b 390 336 397 339 392 339 b 392 326 388 333 388 329 b 410 268 407 311 414 289 b 378 208 407 246 393 225 b 264 132 347 175 307 147 b 144 126 225 118 183 118 b 144 126 144 126 144 126 l 150 138 l 150 138 b 153 149 150 142 151 146 b 153 149 153 149 153 149 b 164 204 158 161 164 189 b 122 268 164 242 150 264 b 79 258 113 269 90 264 b 63 250 74 254 67 251 b 1 172 42 246 19 218 b 24 35 -25 104 -15 47 b 85 49 42 29 64 35 b 136 111 99 60 121 86 b 160 107 144 108 153 108 b 303 133 210 101 258 111 b 388 199 335 150 364 172 b 422 264 403 218 417 239 b 419 301 425 275 425 289 z m 54 47 b 32 49 42 43 38 43 b 38 143 17 61 19 92 b 47 171 43 157 47 169 b 47 174 47 172 47 172 b 92 125 58 154 74 138 b 124 113 103 119 114 115 b 54 46 108 83 76 53 z m 136 144 b 135 135 136 142 136 138 b 131 128 135 132 133 129 b 99 142 119 131 108 135 b 68 179 85 149 74 163 b 64 201 65 186 64 193 b 64 201 64 201 64 201 b 71 218 64 206 67 210 b 82 235 75 225 81 232 b 86 242 85 236 86 239 b 90 249 86 244 88 247 b 151 201 125 275 154 251 b 138 147 150 188 142 156 b 136 146 138 147 136 146 z "},"":{"ha":415,"x_min":0,"x_max":0,"o":"m 383 189 b 364 221 379 201 372 213 b 356 221 361 224 357 224 b 356 213 351 218 351 214 b 374 153 371 197 378 175 b 342 93 371 131 357 111 b 228 18 311 58 272 33 b 107 14 189 4 147 4 b 89 18 101 14 94 15 b 118 25 100 18 110 19 b 189 117 147 39 171 69 b 207 257 207 168 215 229 b 154 279 200 282 178 292 b 21 88 117 258 65 186 b 11 65 17 81 14 74 b 6 54 8 63 7 58 b -6 26 -1 39 -6 26 b 6 79 -6 28 -1 49 b 8 89 7 82 7 86 b 14 113 11 96 11 104 b 46 254 35 193 46 246 b 42 260 46 257 44 258 b 25 258 36 263 28 261 b -51 -4 22 253 -29 75 b -133 -349 -78 -103 -94 -175 b -133 -362 -133 -354 -135 -360 b -125 -364 -133 -364 -132 -364 b -112 -358 -118 -364 -117 -362 b -51 -149 -104 -342 -75 -244 b -32 -71 -42 -111 -33 -75 b 10 36 -25 -47 -1 11 b 17 53 11 42 15 49 b 54 15 25 38 39 25 b 122 -6 75 3 99 -3 b 264 21 171 -11 219 -1 b 350 88 296 38 325 60 b 383 151 365 106 378 126 b 382 189 386 164 386 176 z m 71 31 b 42 49 60 36 49 42 b 28 74 33 57 28 65 b 28 75 28 75 28 75 b 71 158 33 88 56 132 b 172 276 108 225 153 276 b 186 215 182 276 189 253 b 143 81 183 164 168 118 b 101 36 131 63 114 44 b 71 31 90 29 83 28 z "},"":{"ha":222,"x_min":0,"x_max":0,"o":"m 458 100 b 439 132 456 111 447 122 b 431 131 436 133 432 133 b 431 122 429 128 429 124 b 451 63 447 106 456 85 b 418 4 446 40 435 21 b 304 -72 388 -31 347 -56 b 182 -78 264 -86 222 -86 b 140 -61 168 -74 153 -68 b 108 -22 125 -51 114 -39 b 108 -21 108 -22 108 -21 b 111 -17 108 -18 110 -17 b 115 3 110 -11 111 -4 b 119 15 118 6 118 11 b 181 186 132 47 172 160 b 189 231 190 214 192 228 b 168 228 185 233 172 233 b 164 239 165 225 165 225 b 128 285 158 264 147 279 b 14 194 89 296 49 265 b -26 49 -10 146 -26 89 b -3 11 -26 21 -21 11 b 60 56 13 11 29 24 b 139 156 83 81 124 131 b 144 163 142 160 144 163 b 122 104 144 163 135 136 b 90 22 108 72 96 35 l 83 1 b 76 1 81 3 79 1 b 76 1 76 1 76 1 l 74 3 b 56 -1 65 6 56 3 b 64 -8 56 -3 60 -6 b 74 -15 68 -11 74 -14 b 35 -139 75 -18 68 -43 b -3 -250 19 -181 3 -231 b -42 -461 -35 -353 -53 -449 b -15 -461 -36 -467 -22 -467 b 68 -331 3 -450 44 -383 b 113 -172 85 -290 103 -228 b 118 -107 117 -150 118 -140 b 114 -61 118 -83 117 -71 b 129 -74 119 -65 124 -71 b 196 -94 149 -85 172 -92 b 338 -67 246 -100 294 -90 b 424 -1 369 -50 399 -28 b 457 63 439 17 451 39 b 456 100 460 75 458 89 z m 67 89 b 7 29 49 67 21 39 b -4 22 1 26 -4 22 b -7 44 -8 22 -10 33 b 29 150 -4 60 15 117 b 72 235 40 182 58 217 b 104 268 83 250 101 268 b 128 221 113 268 122 247 b 140 199 131 206 135 199 b 143 194 143 199 144 197 b 65 89 140 186 88 114 z m 97 -128 b 50 -301 93 -183 81 -228 b -10 -428 18 -378 4 -407 b -32 -451 -19 -443 -29 -454 b -29 -408 -33 -450 -32 -425 b -15 -361 -26 -400 -21 -378 b 81 -74 -6 -331 64 -119 l 90 -50 l 92 -61 b 97 -128 96 -78 99 -111 z "},"":{"ha":564,"x_min":0,"x_max":0,"o":"m 526 268 b 506 300 522 279 515 290 b 497 300 504 301 499 301 b 499 290 496 297 496 293 b 517 232 514 276 522 254 b 486 174 514 210 500 190 b 371 96 454 139 414 113 b 249 92 332 83 289 83 b 219 101 239 94 229 97 b 207 108 215 104 210 107 b 199 113 204 110 201 111 b 199 113 199 113 199 113 b 181 135 192 119 185 126 b 181 135 181 135 181 135 b 175 146 178 139 176 143 b 178 208 168 167 172 190 b 189 235 181 218 185 226 l 189 235 b 175 253 190 249 188 253 b 150 240 168 253 163 250 b 121 210 143 235 133 224 b 32 110 88 176 61 147 b 10 81 19 94 10 81 b 32 135 8 79 10 85 b 67 228 49 174 60 206 l 74 246 l 69 250 b 43 251 65 253 49 254 b 0 168 39 249 21 214 b -51 0 -33 94 -60 8 b -32 -3 -50 -4 -36 -4 b -7 36 -31 -1 -19 17 b 115 192 35 97 74 146 b 143 221 124 201 133 213 b 140 206 143 217 140 211 b 197 93 136 160 157 117 b 264 72 217 81 240 74 b 406 99 313 67 361 76 b 492 164 438 115 467 138 b 526 229 507 183 521 204 b 525 267 529 240 529 254 z "},"":{"ha":378,"x_min":0,"x_max":0,"o":"m 329 249 b 325 244 326 249 325 247 b 136 118 325 194 215 150 b 71 90 110 107 88 99 b 71 90 71 90 71 90 l 69 89 l 61 106 b 46 138 57 115 49 129 b 36 160 42 144 38 154 b 68 240 35 179 43 204 b 81 261 75 250 81 260 b 68 267 81 264 75 267 b 42 250 58 267 53 264 b -3 161 14 222 -6 185 b 19 114 -1 149 4 138 b 39 67 35 92 42 71 b 19 53 38 65 29 60 b -42 -56 -42 4 -69 -46 b -6 -53 -36 -58 -15 -57 b 72 33 28 -42 61 -4 b 75 64 75 42 75 49 l 75 81 b 139 108 90 88 114 99 b 333 243 225 143 333 188 b 329 247 333 244 331 247 z m 42 47 b 6 -22 39 21 28 -1 b -19 -42 -1 -29 -12 -39 b -33 -50 -25 -46 -32 -50 b -36 -22 -42 -50 -42 -35 b 36 56 -25 0 6 35 l 42 60 z "},"":{"ha":415,"x_min":0,"x_max":0,"o":"m 836 726 b 826 719 831 726 831 726 b 796 682 819 707 807 689 b 581 635 757 651 681 635 b 444 646 531 635 504 638 b 308 674 411 651 310 671 b 319 696 308 675 314 685 b 343 747 340 732 346 743 b 322 749 340 750 326 751 b 314 738 321 747 318 742 b 275 681 294 704 278 681 b 258 683 274 681 265 682 b 147 700 233 688 181 697 b 11 701 108 704 40 706 b -133 654 -47 693 -96 678 b -164 621 -147 643 -164 626 b -147 626 -162 615 -157 617 b -19 690 -112 660 -72 679 b 172 689 36 701 90 701 b 271 671 208 683 269 672 b 253 639 271 671 264 656 b 47 265 200 554 83 342 b -10 135 17 204 0 167 b -10 135 -10 135 -10 135 b -21 94 -15 122 -19 110 b -21 72 -22 88 -22 81 b -19 49 -21 64 -19 54 b -8 31 -17 42 -14 35 b 35 -17 0 11 15 -6 b 103 -37 56 -29 79 -35 b 244 -11 151 -43 200 -33 b 331 54 276 6 307 28 b 364 119 347 74 360 94 b 364 157 368 132 367 144 b 342 188 358 168 351 179 b 333 188 340 190 336 190 b 335 179 331 186 331 182 b 353 121 350 164 358 142 b 321 60 350 99 336 78 b 207 -15 292 26 250 0 b 86 -19 168 -29 126 -29 b 43 -4 71 -17 57 -12 b 24 14 35 0 28 7 b 11 35 18 21 14 26 b 11 38 11 36 11 38 b 13 88 7 54 8 71 b 15 97 14 90 14 93 b 15 99 15 97 15 99 b 19 114 17 103 18 108 b 86 258 29 139 54 193 b 258 585 142 369 214 508 b 307 664 297 654 303 664 b 363 653 308 664 333 658 b 586 625 471 631 514 625 b 668 628 631 625 643 625 b 792 661 725 638 758 646 b 838 704 815 674 828 683 b 838 725 846 719 846 725 z "},"":{"ha":578,"x_min":0,"x_max":0,"o":"m 533 160 b 514 192 529 172 522 182 b 504 192 510 194 507 194 b 506 182 503 189 503 186 b 525 124 521 168 529 146 b 492 64 519 101 508 81 b 378 -12 463 31 421 4 b 257 -17 339 -25 297 -25 b 214 -1 242 -14 226 -8 b 197 14 207 3 201 8 b 189 22 193 15 192 19 b 181 38 186 26 183 32 b 183 94 175 56 179 76 b 183 94 183 94 183 94 b 231 194 196 122 214 161 b 232 196 231 194 231 196 b 236 203 232 197 233 200 b 258 244 244 219 256 238 l 264 257 l 261 260 b 250 263 258 263 256 264 b 242 261 247 263 244 263 l 242 261 b 224 243 236 260 233 257 b 69 82 213 228 103 113 b 15 38 51 64 29 46 b 6 36 8 33 7 32 b 43 178 -1 47 18 121 b 69 231 49 190 60 214 b 83 263 76 247 83 261 b 65 268 82 267 74 269 b 31 228 57 267 49 258 b -25 58 -4 169 -26 104 b 7 21 -24 31 -15 21 b 42 36 18 21 29 25 b 126 125 60 53 89 82 b 192 197 175 179 190 196 b 172 158 185 185 179 171 b 163 138 169 151 165 144 b 160 132 161 136 160 135 b 160 132 160 132 160 132 b 150 97 156 121 153 108 b 176 11 147 65 157 35 b 207 -14 186 1 196 -8 b 275 -36 228 -26 251 -32 b 417 -8 324 -42 372 -31 b 503 58 449 8 478 31 b 536 121 518 75 531 97 b 536 158 539 133 539 147 z "},"":{"ha":540,"x_min":0,"x_max":0,"o":"m 504 385 b 483 415 499 396 493 407 b 475 415 481 418 476 418 b 476 406 472 413 472 408 b 494 347 492 392 499 369 b 463 288 490 325 478 304 b 349 211 432 253 392 228 b 226 207 310 197 267 197 b 186 222 213 210 199 214 b 188 222 188 222 188 222 b 188 222 188 222 188 222 l 186 225 l 190 236 b 194 261 193 244 193 254 b 192 275 196 271 196 271 b 182 278 189 278 186 278 b 160 242 167 278 160 267 b 156 214 160 226 160 225 b 38 53 126 149 79 85 b 17 46 22 39 21 39 b 40 197 13 57 21 118 b 49 236 43 214 47 231 b 46 247 49 244 49 246 b 22 249 42 251 26 253 b 0 185 21 247 6 204 b -14 54 -14 131 -21 75 b 8 31 -10 40 -3 32 b 39 32 15 28 31 29 b 149 153 68 44 111 92 b 171 190 157 165 167 182 b 175 200 172 194 174 197 b 176 208 175 203 176 206 b 176 208 176 208 176 208 b 243 188 197 197 221 192 b 386 214 293 182 342 192 b 471 281 417 231 447 253 b 506 344 488 299 500 319 b 504 382 508 357 507 369 z "},"":{"ha":661,"x_min":0,"x_max":0,"o":"m 615 386 b 596 419 613 399 604 408 b 588 418 593 421 589 421 b 588 408 586 415 586 411 b 608 349 604 393 613 371 b 576 292 604 328 592 308 b 461 214 544 257 504 231 b 339 210 421 201 379 201 b 297 225 325 214 310 218 b 296 225 297 225 297 225 b 296 243 294 229 294 232 b 286 267 297 264 296 267 b 279 265 282 267 279 265 b 276 239 275 263 274 249 b 274 217 278 236 276 231 b 225 94 265 182 244 131 b 172 39 208 67 182 39 b 165 64 169 39 165 47 b 189 208 165 89 172 136 b 199 254 194 231 199 251 b 188 263 199 260 196 263 b 175 256 181 263 179 261 b 153 219 171 253 161 236 b 64 75 99 122 83 99 b 21 40 46 53 26 36 b 14 69 15 43 14 53 b 42 214 14 97 21 139 b 51 256 46 235 51 253 b 46 263 51 260 50 261 b 28 258 39 265 32 264 b -4 156 21 246 1 182 b 10 32 -17 90 -11 42 b 36 33 15 29 28 31 b 149 179 61 44 94 86 b 165 203 158 192 165 203 b 160 181 164 201 161 192 b 150 44 146 117 143 63 b 158 33 153 40 156 36 b 188 35 165 28 178 28 b 285 194 219 51 263 122 b 289 206 286 197 288 203 l 290 211 l 292 210 b 292 210 292 210 292 210 b 357 189 311 197 333 192 b 499 215 406 183 454 193 b 585 282 532 232 560 254 b 619 346 600 300 614 321 b 617 385 621 358 621 372 z "},"":{"ha":389,"x_min":0,"x_max":0,"o":"m 350 207 b 329 239 346 219 339 229 b 321 239 328 242 324 242 b 321 229 318 236 318 232 b 340 171 336 215 344 193 b 307 111 336 149 324 128 b 193 36 278 78 236 51 b 51 38 149 19 96 21 b 24 78 33 44 24 57 l 22 86 l 43 108 b 83 146 54 119 72 136 b 179 213 126 186 174 218 b 188 211 181 213 185 211 b 189 219 193 213 194 217 b 126 197 178 225 156 217 b 42 126 96 176 74 158 b 24 115 24 110 24 110 b 40 193 29 139 35 164 b 50 235 46 211 50 231 b 47 244 51 243 51 243 b 29 246 43 249 33 249 b -4 146 24 244 3 183 b -10 89 -10 125 -10 100 l -7 78 l -24 63 b -165 -14 -71 22 -124 -7 b -176 -12 -174 -15 -176 -15 b -187 -14 -181 -11 -183 -11 b -187 -18 -190 -17 -190 -17 b -181 -22 -187 -21 -183 -22 b -142 -19 -172 -24 -153 -22 b -12 53 -104 -11 -54 18 l -3 61 b 21 31 3 49 10 39 b 49 17 29 25 39 21 b 193 19 96 3 146 4 b 232 36 207 24 219 29 b 318 101 264 53 294 75 b 351 167 335 119 347 142 b 351 203 354 178 354 192 z "},"":{"ha":242,"x_min":0,"x_max":0,"o":"m 535 -121 b 475 -103 515 -110 494 -104 b 351 -115 432 -99 390 -104 b 240 -171 311 -128 274 -147 b 210 -196 231 -179 219 -187 b 83 -151 168 -179 126 -164 b 111 -72 92 -126 101 -101 l 128 -24 b 132 -10 128 -24 132 -10 b 136 7 132 -10 135 -3 b 175 207 169 117 185 197 b 164 211 172 211 168 213 b 153 204 160 211 156 207 b 150 188 151 200 150 192 b 149 181 149 185 149 183 b 64 44 136 156 97 90 b -3 -29 39 7 15 -18 l -8 -32 l -11 -29 b -14 -12 -14 -26 -14 -24 b 38 185 -14 14 8 96 b 43 206 42 194 43 203 b 33 213 43 208 38 213 b 26 208 32 213 29 211 b 14 186 22 207 19 204 b -36 6 -17 118 -36 42 b -7 -42 -36 -28 -26 -44 b 36 -8 7 -40 14 -35 b 126 129 67 28 83 53 b 143 158 133 142 140 153 b 143 158 143 158 143 158 b 136 131 142 150 139 140 b 119 74 131 113 125 92 b 100 8 114 51 107 31 b 93 -11 97 1 96 -4 l 86 -32 l 86 -33 b 81 -51 86 -40 85 -46 b 71 -81 79 -58 75 -68 b 50 -143 64 -103 57 -122 b 36 -139 44 -142 40 -140 b -89 -135 -6 -132 -47 -128 b -204 -179 -131 -139 -169 -154 b -292 -268 -239 -203 -267 -235 b -349 -378 -315 -303 -336 -339 b -364 -437 -356 -399 -361 -418 b -360 -503 -367 -460 -367 -482 b -319 -554 -354 -524 -340 -543 b -286 -565 -310 -560 -299 -565 b -204 -554 -258 -571 -231 -565 b -186 -546 -197 -553 -192 -549 b -7 -343 -125 -510 -61 -437 b 76 -165 24 -290 50 -233 b 199 -206 118 -176 158 -192 b 97 -369 153 -251 118 -308 b 100 -376 94 -372 97 -376 b 108 -374 103 -378 107 -376 b 211 -211 131 -312 164 -256 b 264 -232 229 -218 247 -225 b 381 -271 301 -246 340 -260 b 442 -282 400 -276 419 -281 b 504 -272 463 -282 485 -282 b 553 -232 525 -265 542 -250 b 574 -171 567 -215 576 -194 b 533 -121 569 -149 553 -131 z m -53 -360 b -99 -428 -67 -382 -82 -406 b -149 -485 -114 -449 -131 -468 b -199 -526 -164 -500 -181 -515 b -224 -540 -207 -532 -215 -536 b -253 -551 -232 -544 -242 -549 b -286 -549 -264 -554 -275 -551 b -314 -539 -296 -549 -306 -544 b -347 -499 -331 -532 -342 -515 b -350 -440 -353 -479 -353 -460 b -336 -382 -347 -421 -342 -401 b -281 -276 -322 -344 -303 -310 b -197 -192 -257 -243 -231 -214 b -86 -149 -164 -168 -126 -154 b 32 -154 -47 -143 -7 -146 b 44 -156 36 -154 40 -156 b -51 -358 14 -236 -18 -303 z m 543 -225 b 499 -261 532 -242 517 -254 b 383 -258 464 -275 421 -268 b 268 -218 344 -249 307 -232 b 222 -200 253 -212 238 -206 b 247 -182 231 -193 238 -187 b 353 -126 279 -157 314 -137 b 471 -114 392 -115 431 -110 b 526 -132 490 -115 510 -121 b 560 -172 543 -140 557 -154 b 543 -225 563 -192 554 -210 z "},"":{"ha":163,"x_min":0,"x_max":0,"o":"m 507 -75 b 447 -56 488 -64 467 -60 b 324 -69 404 -51 363 -57 b 213 -126 283 -82 246 -100 b 182 -149 203 -132 192 -140 b 56 -106 140 -132 99 -117 b 83 -26 64 -81 74 -54 b 93 3 86 -17 90 -7 b 103 31 97 13 101 22 b 97 61 106 42 106 53 b 72 75 92 69 82 74 b 60 79 65 76 60 78 b 115 124 60 79 86 101 b 139 174 150 153 157 167 b 46 167 126 178 93 175 b -8 163 15 161 -1 160 b -25 164 -17 167 -19 167 b -21 151 -31 161 -29 157 b 0 147 -15 149 -11 147 b 75 156 17 146 31 147 b 122 161 114 163 122 163 b 90 133 122 158 108 147 b 33 75 53 104 33 85 b 56 63 35 68 40 65 b 75 53 67 61 71 58 b 69 39 75 51 69 40 b 64 22 68 33 65 28 b 53 -12 60 11 57 0 b 24 -96 43 -40 33 -68 b 8 -93 19 -94 14 -93 b -114 -87 -31 -83 -74 -81 b -231 -132 -157 -93 -197 -107 b -318 -221 -265 -156 -293 -187 b -375 -331 -342 -254 -361 -292 b -390 -390 -382 -350 -387 -371 b -386 -454 -393 -411 -393 -433 b -347 -507 -381 -476 -367 -496 b -314 -519 -336 -512 -325 -517 b -231 -507 -285 -524 -257 -519 b -212 -499 -225 -504 -218 -501 b -33 -294 -151 -462 -87 -390 b 50 -117 -3 -243 24 -186 b 172 -160 92 -129 132 -143 b 69 -321 126 -204 92 -260 b 74 -329 69 -325 69 -328 b 81 -326 76 -331 81 -329 b 186 -164 103 -265 139 -208 b 236 -183 203 -171 219 -176 b 353 -224 275 -199 314 -212 b 415 -233 374 -229 393 -232 b 478 -226 436 -236 458 -233 b 526 -186 497 -217 515 -203 b 547 -124 540 -169 550 -147 b 507 -72 543 -100 525 -82 z m -78 -311 b -125 -381 -93 -336 -108 -360 b -175 -437 -142 -400 -158 -421 b -225 -479 -192 -453 -208 -467 b -250 -493 -233 -483 -242 -489 b -281 -504 -258 -497 -269 -503 b -312 -503 -292 -506 -301 -504 b -342 -493 -322 -500 -331 -497 b -375 -450 -358 -483 -369 -468 b -376 -393 -381 -432 -381 -412 b -362 -336 -375 -374 -369 -354 b -308 -229 -349 -297 -331 -261 b -225 -143 -285 -196 -257 -165 b -114 -100 -192 -121 -153 -106 b 6 -107 -75 -96 -35 -99 b 17 -110 8 -107 14 -110 b -78 -311 -14 -189 -44 -256 z m 517 -178 b 472 -214 506 -193 490 -207 b 356 -211 436 -228 394 -221 b 242 -171 317 -200 279 -186 b 196 -154 225 -165 210 -160 b 219 -133 203 -147 211 -140 b 325 -79 253 -110 288 -92 b 443 -67 364 -67 404 -62 b 499 -83 464 -69 482 -75 b 532 -126 515 -93 531 -108 b 515 -178 536 -143 526 -162 z "},".":{"ha":115,"x_min":0,"x_max":0,"o":"m 36 -11 b 18 -69 32 -17 19 -56 b 19 -82 17 -78 17 -79 b 42 -81 25 -85 36 -85 b 61 -46 43 -78 53 -62 l 76 -15 l 72 -11 b 35 -12 64 -6 42 -6 z "},",":{"ha":93,"x_min":0,"x_max":0,"o":"m 36 -11 b 18 -69 32 -17 19 -56 b 19 -82 17 -78 17 -79 b 42 -81 25 -85 36 -85 b 61 -46 43 -78 53 -62 l 76 -15 l 72 -11 b 35 -12 64 -6 42 -6 z "},":":{"ha":172,"x_min":0,"x_max":0,"o":"m 69 333 b 51 275 65 328 53 289 b 53 263 50 267 50 265 b 75 264 58 260 69 260 b 94 299 76 267 86 282 l 110 329 l 106 333 b 68 332 97 339 75 339 z m 26 46 b 8 -12 22 40 10 1 b 10 -25 7 -21 7 -22 b 32 -24 15 -28 26 -28 b 51 11 33 -21 43 -6 l 67 42 l 63 46 b 25 44 54 51 32 51 z "},";":{"ha":154,"x_min":0,"x_max":0,"o":"m 69 333 b 51 275 65 328 53 289 b 53 263 50 267 50 265 b 75 264 58 260 69 260 b 94 299 76 267 86 282 l 110 329 l 106 333 b 68 332 97 339 75 339 z m 26 46 b 8 -12 22 40 10 1 b 10 -25 7 -21 7 -22 b 32 -24 15 -28 26 -28 b 51 11 33 -21 43 -6 l 67 42 l 63 46 b 25 44 54 51 32 51 z "},"=":{"ha":394,"x_min":0,"x_max":0,"o":"m 333 199 b 143 196 326 201 213 199 b 64 193 115 193 81 192 b 25 185 31 193 24 192 b 49 172 26 179 35 174 b 74 171 54 172 65 171 b 214 179 89 171 183 176 b 278 186 222 182 251 185 b 332 192 304 189 328 190 b 332 201 339 196 339 199 z m 331 36 b 140 33 324 39 210 36 b 61 31 113 31 78 29 b 22 22 28 31 21 29 b 46 10 24 17 32 11 b 71 8 51 10 63 8 b 211 17 86 8 181 14 b 275 24 219 19 249 22 b 329 29 301 26 325 28 b 329 39 336 33 336 36 z "},"%":{"ha":949,"x_min":0,"x_max":0,"o":"m 774 729 b 753 729 765 731 758 731 b 729 708 751 728 742 719 b 492 564 660 651 582 604 b 374 526 443 543 414 535 b 314 522 351 522 342 522 b 271 518 286 522 281 521 b 253 514 264 515 256 514 b 242 513 249 514 244 514 b 242 506 239 511 239 508 b 235 500 246 504 242 501 b 189 469 224 497 210 489 b 104 347 156 436 131 401 b 72 229 79 294 71 265 b 86 178 72 204 75 192 b 146 149 100 158 118 149 b 199 163 167 149 179 153 b 374 419 279 203 363 325 b 358 496 376 451 371 481 b 383 508 353 506 349 504 b 575 578 436 515 492 536 b 667 631 599 590 646 617 b 672 633 669 632 672 635 b 664 618 672 632 669 625 b 531 354 631 561 592 486 b 364 25 469 221 408 97 b 115 -256 282 -112 189 -219 b 19 -285 88 -269 39 -285 b 3 -279 10 -285 8 -283 b -11 -274 -3 -275 -6 -272 b -19 -276 -15 -274 -19 -275 b -3 -294 -19 -281 -11 -292 b 58 -294 8 -297 38 -297 b 164 -260 92 -287 139 -272 b 292 -151 204 -239 247 -203 b 485 156 361 -72 414 13 b 601 418 525 236 546 285 b 718 656 644 521 686 603 b 753 697 728 671 736 681 b 776 719 764 708 775 718 b 775 726 782 721 782 725 z m 331 364 b 289 282 322 344 301 303 b 160 165 250 222 199 175 b 140 165 147 163 149 163 b 115 193 131 169 119 181 b 118 261 111 208 113 242 b 182 399 128 299 156 360 b 258 486 208 442 242 478 b 263 497 267 492 268 494 b 258 501 260 499 258 500 b 296 503 260 501 276 503 l 331 503 l 336 493 b 331 364 353 464 350 418 z m 772 154 b 726 171 760 167 749 171 b 694 167 710 172 706 171 b 668 161 683 164 678 161 b 615 135 649 163 639 158 b 560 53 596 114 576 86 b 521 -96 535 4 521 -49 b 571 -186 521 -146 538 -179 b 613 -185 582 -189 603 -189 b 704 -117 642 -179 675 -153 b 781 21 733 -82 765 -24 b 772 154 801 82 799 128 z m 754 61 b 685 -89 746 15 717 -46 b 610 -161 660 -122 632 -149 b 583 -162 594 -169 592 -169 b 569 -111 575 -153 571 -140 b 593 19 568 -72 576 -26 b 654 129 607 61 638 115 b 722 158 669 142 706 158 b 754 125 736 158 749 144 b 754 61 760 111 760 81 z "},"'":{"ha":153,"x_min":0,"x_max":0,"o":"m 67 760 b 49 701 63 754 50 715 b 50 689 47 693 47 692 b 72 690 56 686 67 686 b 92 725 74 693 83 708 l 107 756 l 103 760 b 65 758 94 765 72 765 z "},"#":{"ha":918,"x_min":0,"x_max":0,"o":"m 872 361 b 776 375 857 368 811 376 b 622 360 753 375 692 369 l 576 353 b 633 494 594 394 614 442 b 668 501 644 496 656 499 b 843 526 767 521 807 526 b 894 513 863 525 886 519 b 903 513 897 511 901 511 b 890 531 904 515 899 524 l 892 531 b 796 544 876 538 831 546 b 647 529 772 544 714 539 l 660 564 b 729 726 694 658 710 696 b 767 764 740 743 757 760 b 771 771 769 765 772 769 b 750 769 769 774 760 774 l 750 771 b 689 696 736 761 706 726 b 622 556 676 676 650 621 l 608 524 b 383 501 522 513 447 506 b 407 564 392 521 399 542 b 476 726 442 658 457 696 b 514 764 488 743 504 760 b 518 771 517 765 519 769 b 497 769 517 774 507 774 l 497 771 b 436 696 483 761 453 726 b 369 556 424 676 397 621 l 344 499 b 258 499 311 497 282 497 b 100 531 196 500 139 513 b 43 567 74 543 46 561 b 31 560 38 576 31 572 b 58 521 31 549 43 533 b 133 475 75 508 119 481 b 290 451 169 458 224 450 l 324 451 b 264 328 303 406 283 364 b 239 329 256 328 246 328 b 81 361 176 331 119 343 b 24 397 54 374 26 392 b 11 390 18 407 11 403 b 39 351 11 379 24 364 b 114 306 56 339 100 311 b 239 282 143 292 188 283 b 197 213 224 254 210 231 b 88 93 164 160 124 117 b 28 63 64 76 35 63 b 28 49 17 63 17 54 b 75 53 36 43 57 46 b 153 93 94 60 140 83 b 254 215 186 115 221 157 l 290 282 b 504 306 351 283 421 292 b 450 213 485 268 467 236 b 340 93 417 160 376 117 b 281 63 317 76 288 63 b 281 49 269 63 269 54 b 328 53 289 43 310 46 b 406 93 347 60 393 83 b 507 215 439 115 474 157 b 558 315 524 244 542 278 b 649 332 588 319 617 325 b 824 357 747 351 788 357 b 875 343 843 356 867 350 b 883 343 878 342 882 342 b 871 361 885 346 879 354 z m 365 456 b 592 486 429 461 504 471 b 526 347 569 435 547 388 b 313 329 443 338 369 331 b 365 456 329 367 347 408 z "},"\"":{"ha":226,"x_min":0,"x_max":0,"o":"m 67 760 b 49 701 63 754 50 715 b 50 689 47 693 47 692 b 72 690 56 686 67 686 b 92 725 74 693 83 708 l 107 756 l 103 760 b 65 758 94 765 72 765 z m 150 760 b 132 701 146 754 133 715 b 133 689 131 693 131 692 b 156 690 139 686 150 686 b 175 725 157 693 167 708 l 190 756 l 186 760 b 149 758 178 765 156 765 z "},"`":{"ha":165,"x_min":0,"x_max":0,"o":"m 69 760 b 51 701 65 754 53 715 b 53 689 50 693 50 692 b 75 690 58 686 69 686 b 94 725 76 693 86 708 l 110 756 l 106 760 b 68 758 97 765 75 765 z "},"^":{"ha":260,"x_min":0,"x_max":0,"o":"m 68 951 b 97 994 82 974 96 993 b 131 972 106 1000 107 1000 b 176 917 153 943 164 932 b 214 886 192 901 213 886 b 217 889 215 886 215 888 b 208 899 217 892 214 893 b 129 1000 175 928 153 958 b 114 1024 117 1021 118 1021 b 89 1013 108 1029 99 1025 b 46 953 81 1003 60 974 b 18 900 35 933 22 910 b 18 888 17 894 15 892 b 69 953 22 883 35 899 z "},"_":{"ha":378,"x_min":0,"x_max":0,"o":"m 333 199 b 143 196 326 201 213 199 b 64 193 115 193 81 192 b 25 185 31 193 24 192 b 49 172 26 179 35 174 b 74 171 54 172 65 171 b 214 179 89 171 183 176 b 278 186 222 182 251 185 b 332 192 304 189 328 190 b 332 201 339 196 339 199 z "},"":{"ha":201,"x_min":0,"x_max":0,"o":"m 149 708 b 126 683 147 708 138 697 b 90 642 96 642 92 639 b 57 711 79 675 64 706 b 31 713 51 715 36 715 b 29 701 28 710 28 708 b 57 626 29 692 49 643 b 74 610 63 614 65 613 b 90 610 81 608 81 608 b 107 619 97 611 101 614 b 161 706 118 631 161 700 b 147 708 161 708 151 711 z "},"":{"ha":119,"x_min":0,"x_max":0,"o":"m 85 708 b 68 679 79 708 75 703 b 42 636 58 651 47 635 b 31 643 39 636 35 639 b 14 689 25 651 22 658 b -4 713 8 706 6 711 b -15 708 -10 713 -12 713 b -21 692 -19 706 -21 704 b 22 624 -19 660 -1 631 b 76 647 47 617 72 628 b 88 707 79 658 88 704 b 83 708 88 708 86 708 z "},"":{"ha":151,"x_min":0,"x_max":0,"o":"m 115 674 b 85 713 104 708 101 711 b 49 692 68 714 63 710 b 10 642 31 672 13 647 b 21 633 7 635 10 632 b 60 665 33 635 40 640 b 78 688 69 678 76 688 b 88 669 78 688 83 679 b 113 631 103 642 108 633 b 124 631 118 629 119 629 b 115 675 128 635 128 639 z "},"~":{"ha":172,"x_min":0,"x_max":0,"o":"m 124 340 b 71 335 106 332 97 332 b 8 332 42 340 25 339 b -19 306 -3 325 -14 315 b -18 299 -21 301 -21 300 b 4 306 -12 294 -7 294 b 24 319 11 311 19 317 b 74 318 32 324 38 324 b 124 325 96 317 108 317 b 142 342 133 329 142 338 b 122 339 142 347 136 346 z "},"":{"ha":190,"x_min":0,"x_max":0,"o":"m 157 688 b 104 682 139 679 131 679 b 42 679 75 688 58 686 b 14 653 31 672 19 663 b 15 646 13 649 13 647 b 38 653 21 642 26 642 b 57 667 44 658 53 664 b 107 665 65 671 71 671 b 157 672 129 664 142 664 b 175 689 167 676 175 685 b 156 686 175 694 169 693 z "},"":{"ha":172,"x_min":0,"x_max":0,"o":"m 31 692 b 32 671 22 688 24 675 b 63 672 42 668 56 668 b 67 689 69 678 72 685 b 31 693 63 693 36 696 z m 131 694 b 115 699 125 697 124 699 b 100 696 110 699 103 697 b 90 681 96 694 90 686 b 100 668 90 675 96 669 b 132 675 111 664 125 668 b 131 694 138 683 136 689 z "},"":{"ha":151,"x_min":0,"x_max":0,"o":"m 69 760 b 51 701 65 754 53 715 b 53 689 50 693 50 692 b 75 690 58 686 69 686 b 94 725 76 693 86 708 l 110 756 l 106 760 b 68 758 97 765 75 765 z "},"":{"ha":458,"x_min":0,"x_max":0,"o":"m 461 0 b 314 -58 436 -19 363 -47 b 231 -64 279 -65 236 -69 b 232 -33 231 -64 231 -50 b 236 32 233 -17 236 13 b 256 285 240 88 246 160 b 272 554 269 453 271 497 b 297 624 275 614 271 606 b 356 653 314 635 340 647 b 379 658 361 654 371 657 b 386 664 396 658 397 661 b 299 643 365 668 335 660 b 275 632 286 638 275 632 b 272 681 275 632 274 654 b 271 731 272 706 271 729 b 261 736 269 735 265 736 b 254 675 258 735 257 726 b 251 628 253 654 251 633 l 249 617 l 228 601 b -8 265 114 519 24 390 b 25 14 -32 175 -19 75 b 172 -78 56 -31 111 -64 l 188 -81 l 188 -132 b 192 -186 188 -175 188 -185 b 211 -185 196 -187 208 -187 b 222 -135 213 -182 218 -160 b 231 -86 226 -108 231 -86 b 258 -83 231 -86 243 -85 b 353 -61 292 -81 317 -75 b 450 -19 389 -47 435 -28 b 481 6 464 -11 481 3 b 463 1 481 8 471 7 z m 208 192 b 189 -56 206 160 189 -53 b 169 -51 189 -58 189 -58 b 49 76 110 -29 71 13 b 36 169 39 108 36 126 b 42 229 36 199 38 210 b 164 494 57 319 101 414 b 247 582 192 529 247 588 b 233 442 247 581 242 518 b 208 192 219 301 214 253 z "},"":{"ha":510,"x_min":0,"x_max":0,"o":"m 519 -169 b 446 -165 503 -171 469 -169 b 199 64 318 -139 224 -53 b 192 122 196 79 192 121 b 315 146 196 125 269 139 b 353 149 325 147 342 149 b 372 153 365 149 369 149 b 371 158 375 154 375 156 b 225 153 358 169 318 168 b 193 150 208 151 194 149 b 201 229 192 153 196 200 b 224 319 207 263 219 317 b 235 324 225 321 229 322 b 275 332 239 325 258 328 b 364 342 311 339 351 343 b 375 335 368 340 372 338 b 392 333 379 331 388 329 b 386 349 397 338 394 346 b 249 349 369 358 303 358 b 231 347 240 347 232 347 b 264 432 231 349 247 396 b 358 599 292 501 322 554 b 475 708 390 639 440 686 b 490 719 489 714 492 718 b 463 718 486 724 475 722 b 306 586 425 703 346 636 b 182 368 256 522 211 443 b 169 339 176 353 171 339 b 96 333 165 336 122 333 b 8 349 57 333 31 338 b -15 351 0 353 -8 354 b -4 329 -25 347 -19 338 b 125 313 19 315 64 310 l 164 314 l 154 279 b 136 150 142 231 136 181 l 136 138 l 118 138 b 81 144 103 138 97 139 b 46 147 63 151 53 153 b 56 132 42 144 44 142 b 115 115 69 124 92 118 l 136 114 l 138 101 b 299 -139 147 -3 204 -86 b 444 -182 343 -164 378 -175 l 444 -182 b 489 -186 454 -185 475 -186 b 524 -182 511 -186 518 -185 b 519 -171 536 -175 535 -169 z "},"":{"ha":489,"x_min":0,"x_max":0,"o":"m 949 704 b 940 699 944 706 943 704 b 910 660 935 685 921 668 b 696 614 871 631 793 614 b 560 625 643 614 618 615 b 524 632 553 626 539 628 b 560 696 544 669 556 688 b 583 747 582 732 586 743 b 564 749 582 750 568 751 b 556 738 563 747 560 742 b 513 671 538 704 513 671 b 494 638 513 671 504 656 b 493 638 493 638 493 638 b 310 674 418 650 311 671 b 321 694 310 674 314 683 b 343 747 342 732 346 743 b 324 747 342 750 328 750 b 315 738 322 746 319 742 b 276 681 296 704 279 681 b 260 682 275 681 267 682 b 149 700 235 688 182 696 b 13 701 110 704 42 704 b -132 653 -46 693 -94 676 b -164 621 -147 643 -164 626 b -147 626 -162 615 -157 617 b -21 689 -112 658 -72 678 b 171 688 36 700 89 700 b 271 671 208 683 268 671 b 253 638 271 669 263 654 b 46 264 199 554 83 340 b -18 104 7 183 -10 143 b -19 47 -22 85 -24 58 b 17 15 -15 29 -1 17 b 143 75 49 10 86 28 b 243 168 163 93 213 139 b 222 104 232 143 226 124 b 221 47 219 85 218 60 b 258 15 226 31 240 18 b 383 76 290 10 328 28 b 511 194 414 101 511 193 b 443 142 511 200 499 192 b 326 47 371 76 351 61 b 275 26 301 32 288 26 b 257 32 264 26 263 26 b 261 114 244 44 246 65 b 499 585 286 185 432 465 b 519 624 507 600 514 611 b 699 604 597 608 638 604 b 781 608 743 604 756 604 b 904 640 838 615 871 625 b 949 682 928 653 939 664 b 950 704 958 699 958 704 z m 288 265 b 250 182 271 231 260 204 b 203 140 240 174 226 161 b 86 44 129 75 111 60 b 33 25 60 31 49 25 b 15 31 22 25 21 25 b 21 113 4 43 4 65 b 258 583 44 183 190 464 b 307 663 299 654 304 663 b 476 631 308 663 446 638 b 489 628 481 629 485 628 b 289 264 433 538 325 338 z "},"\u0000":{"ha":0,"x_min":0,"x_max":0,"o":""},"":{"ha":3758,"x_min":0,"x_max":0,"o":"m 129 -186 b 233 -222 156 -201 197 -215 b 294 -224 244 -224 261 -225 b 367 -219 335 -224 344 -222 b 539 -150 419 -208 486 -182 b 557 -140 549 -146 557 -140 b 581 -147 558 -140 569 -143 b 763 -176 639 -167 690 -175 b 1322 -28 943 -181 1143 -128 b 1826 640 1607 131 1800 386 b 1711 1008 1842 786 1800 915 b 1593 1092 1674 1044 1640 1069 b 1407 1147 1536 1119 1479 1136 b 1250 1149 1376 1150 1286 1151 b 749 958 1074 1135 889 1064 b 656 878 711 931 690 914 b 569 776 618 842 593 811 b 467 475 500 676 464 571 b 478 403 469 444 471 433 b 479 379 483 381 483 381 b 432 328 472 375 447 347 b 356 171 389 269 367 224 b 356 76 350 147 350 99 b 504 -117 372 -6 422 -72 b 517 -125 511 -121 517 -125 b 494 -136 517 -125 506 -131 b 264 -206 407 -186 338 -208 b 181 -190 233 -204 211 -200 b 81 -125 144 -179 117 -161 b 39 -72 58 -103 47 -90 b 28 -60 33 -61 32 -60 b 21 -64 24 -60 21 -61 b 35 -100 18 -68 26 -86 b 128 -189 53 -126 100 -172 z m 514 631 b 579 757 528 668 554 718 b 776 957 628 828 700 903 b 1226 1132 910 1051 1067 1114 b 1376 1133 1260 1136 1347 1136 b 1672 1003 1504 1118 1600 1076 b 1783 769 1733 943 1769 867 b 1785 643 1788 743 1789 672 b 1617 258 1768 504 1713 378 b 1303 -7 1533 154 1428 64 b 839 -156 1154 -92 999 -142 b 725 -157 819 -158 738 -158 b 703 -154 722 -157 711 -156 b 608 -136 675 -153 633 -143 b 583 -126 596 -131 583 -126 b 604 -110 583 -125 593 -119 b 810 99 678 -57 744 14 l 832 131 l 856 131 b 1061 193 929 135 1007 158 b 1107 244 1083 208 1113 240 b 1092 231 1107 246 1100 239 b 1029 186 1074 214 1057 200 b 854 138 979 160 917 143 l 838 136 l 867 181 b 985 376 910 244 938 292 b 1126 649 1011 425 1036 471 b 1331 983 1231 853 1278 929 b 1404 1036 1360 1014 1378 1026 b 1414 1042 1410 1038 1414 1040 b 1396 1044 1415 1044 1406 1046 b 1326 1008 1374 1042 1356 1031 b 1215 875 1290 979 1261 943 b 1078 638 1168 807 1143 764 b 811 172 946 388 878 269 l 788 139 l 778 140 b 750 144 772 142 760 143 b 526 319 651 165 572 228 b 504 376 517 340 504 371 b 503 383 504 381 503 382 b 490 433 500 386 494 414 b 517 631 483 497 490 564 z m 501 -85 b 389 78 440 -42 403 11 b 383 135 383 94 383 103 b 389 192 383 167 383 174 b 417 267 394 217 404 242 b 472 353 428 288 456 331 b 488 364 483 364 486 367 b 569 231 510 307 533 269 b 758 133 621 178 686 144 l 779 131 l 761 106 b 557 -97 688 11 632 -43 b 543 -108 550 -103 543 -108 b 501 -85 539 -108 517 -94 z m 2074 164 b 1985 99 2063 154 2010 117 b 1890 49 1942 69 1911 53 b 1874 49 1881 47 1879 47 b 1865 78 1865 53 1864 63 b 1922 203 1871 101 1892 147 b 1947 246 1932 219 1943 239 l 1953 258 l 1949 261 b 1938 264 1946 264 1943 264 b 1910 239 1928 264 1925 260 b 1893 218 1904 231 1897 221 l 1885 211 l 1888 219 b 1847 289 1901 261 1883 289 b 1743 225 1814 289 1781 268 b 1674 75 1704 178 1674 114 b 1704 42 1674 53 1683 42 b 1728 49 1714 42 1717 43 b 1831 140 1750 61 1775 82 b 1871 181 1850 161 1868 181 b 1860 161 1871 182 1867 174 b 1838 78 1842 125 1835 99 b 1861 42 1838 58 1847 47 b 1910 44 1871 39 1897 40 b 1961 71 1925 49 1946 60 b 2090 172 1999 96 2090 168 b 2076 168 2090 175 2082 174 z m 1868 208 l 1865 192 l 1833 161 b 1715 58 1771 100 1733 68 b 1707 56 1710 57 1707 56 b 1704 75 1704 56 1703 68 b 1782 228 1707 108 1747 186 b 1843 278 1801 253 1828 275 b 1868 256 1854 279 1865 269 b 1868 208 1871 246 1871 228 z m 2635 -79 b 2575 -60 2615 -68 2594 -64 b 2451 -74 2532 -56 2490 -61 b 2340 -131 2411 -86 2374 -104 b 2310 -153 2331 -136 2319 -144 b 2183 -110 2268 -136 2226 -121 b 2211 -31 2192 -85 2201 -58 l 2228 19 b 2232 32 2228 19 2232 32 b 2236 49 2232 32 2235 40 b 2275 250 2269 158 2285 239 b 2258 249 2269 254 2264 254 b 2253 247 2254 246 2253 246 b 2231 269 2250 253 2238 264 b 2201 272 2224 272 2219 272 l 2181 272 l 2164 265 b 2063 146 2128 247 2094 208 b 2025 35 2039 101 2025 60 b 2039 8 2025 19 2028 13 b 2069 14 2047 6 2058 7 b 2156 100 2083 22 2119 58 b 2226 186 2181 129 2188 136 b 2243 207 2236 197 2243 207 b 2193 31 2246 204 2214 93 l 2186 8 l 2185 7 b 2181 -11 2185 0 2183 -6 b 2171 -40 2178 -17 2175 -28 b 2149 -103 2164 -61 2157 -82 b 2135 -97 2144 -101 2140 -100 b 2011 -93 2094 -90 2053 -86 b 1894 -137 1969 -97 1929 -114 b 1808 -226 1860 -161 1832 -193 b 1750 -336 1785 -261 1764 -297 b 1736 -397 1743 -357 1738 -376 b 1739 -461 1733 -418 1733 -440 b 1779 -514 1744 -482 1758 -503 b 1814 -525 1790 -519 1801 -524 b 1894 -514 1842 -531 1869 -525 b 1914 -504 1901 -511 1908 -508 b 2093 -301 1975 -468 2038 -397 b 2176 -124 2124 -249 2150 -192 b 2297 -164 2218 -135 2258 -150 b 2196 -328 2253 -210 2218 -267 b 2199 -336 2194 -331 2196 -335 b 2207 -332 2203 -336 2206 -336 b 2311 -169 2229 -271 2264 -214 b 2364 -190 2328 -176 2346 -183 b 2479 -231 2401 -204 2439 -219 b 2542 -240 2499 -235 2519 -239 b 2603 -231 2561 -242 2583 -240 b 2653 -192 2624 -224 2642 -208 b 2672 -131 2665 -175 2675 -153 b 2633 -79 2669 -107 2651 -89 z m 2224 206 b 2203 179 2218 199 2208 186 b 2160 125 2197 169 2176 147 b 2074 36 2126 85 2097 54 b 2056 24 2064 29 2057 24 b 2060 49 2053 24 2054 33 b 2121 169 2069 72 2108 147 b 2203 256 2150 215 2186 256 b 2225 231 2207 256 2219 242 l 2231 219 z m 2047 -317 b 1999 -386 2031 -342 2017 -364 b 1949 -443 1983 -407 1967 -425 b 1899 -485 1933 -458 1917 -472 b 1875 -497 1892 -490 1883 -494 b 1844 -510 1865 -503 1856 -508 b 1813 -508 1833 -511 1824 -510 b 1783 -497 1803 -506 1793 -503 b 1750 -456 1767 -489 1756 -474 b 1747 -397 1744 -437 1744 -418 b 1763 -342 1750 -379 1756 -360 b 1817 -235 1775 -303 1794 -267 b 1900 -149 1840 -201 1868 -171 b 2010 -107 1933 -126 1971 -111 b 2131 -112 2050 -101 2090 -104 b 2142 -114 2133 -114 2138 -114 b 2047 -317 2111 -194 2081 -261 z m 2642 -183 b 2597 -219 2631 -200 2614 -212 b 2481 -217 2560 -233 2519 -226 b 2365 -176 2442 -207 2403 -192 b 2319 -158 2350 -171 2335 -164 b 2344 -140 2328 -153 2336 -146 b 2450 -85 2376 -115 2413 -97 b 2568 -72 2488 -74 2529 -68 b 2624 -90 2588 -75 2607 -81 b 2657 -131 2640 -99 2654 -114 b 2640 -183 2660 -150 2651 -168 z m 3288 704 b 3279 699 3283 706 3282 704 b 3249 660 3274 685 3260 668 b 3035 614 3210 631 3132 614 b 2899 625 2982 614 2957 615 b 2863 632 2892 626 2878 628 b 2899 696 2883 669 2894 688 b 2922 747 2921 732 2925 743 b 2903 749 2921 750 2907 751 b 2894 738 2901 747 2899 742 b 2851 671 2876 704 2851 671 b 2833 638 2851 671 2843 656 b 2832 638 2832 638 2832 638 b 2649 674 2757 650 2650 671 b 2660 694 2649 674 2653 683 b 2682 747 2681 732 2685 743 b 2663 747 2681 750 2667 750 b 2654 738 2661 746 2658 742 b 2615 681 2635 704 2618 681 b 2599 682 2614 681 2606 682 b 2488 700 2574 688 2521 696 b 2351 701 2449 704 2381 704 b 2207 653 2293 693 2244 676 b 2175 621 2192 643 2175 626 b 2192 626 2176 615 2182 617 b 2318 689 2226 658 2267 678 b 2510 688 2375 700 2428 700 b 2610 671 2547 683 2607 671 b 2592 638 2610 669 2601 654 b 2385 264 2538 554 2422 340 b 2321 104 2346 183 2329 143 b 2319 47 2317 85 2315 58 b 2356 15 2324 29 2338 17 b 2482 75 2388 10 2425 28 b 2582 168 2501 93 2551 139 b 2561 104 2571 143 2565 124 b 2560 47 2558 85 2557 60 b 2597 15 2565 31 2579 18 b 2722 76 2629 10 2667 28 b 2850 194 2753 101 2850 193 b 2782 142 2850 200 2838 192 b 2665 47 2710 76 2690 61 b 2614 26 2640 32 2626 26 b 2596 32 2603 26 2601 26 b 2600 114 2583 44 2585 65 b 2838 585 2625 185 2771 465 b 2858 624 2846 600 2853 611 b 3038 604 2936 608 2976 604 b 3119 608 3082 604 3094 604 b 3243 640 3176 615 3210 625 b 3288 682 3267 653 3278 664 b 3289 704 3297 699 3297 704 z m 2626 265 b 2589 182 2610 231 2599 204 b 2542 140 2579 174 2565 161 b 2425 44 2468 75 2450 60 b 2372 25 2399 31 2388 25 b 2354 31 2361 25 2360 25 b 2360 113 2343 43 2343 65 b 2597 583 2383 183 2529 464 b 2646 663 2638 654 2643 663 b 2815 631 2647 663 2785 638 b 2828 628 2819 629 2824 628 b 2628 264 2772 538 2664 338 z m 3171 183 b 3000 147 3103 164 3035 149 b 2979 149 2978 146 2978 146 b 2989 204 2983 161 2989 189 b 2947 268 2989 242 2975 264 b 2904 258 2938 269 2917 264 b 2888 250 2900 254 2892 251 b 2828 172 2867 246 2844 218 b 2850 35 2800 104 2810 47 b 2910 49 2867 29 2889 35 b 2971 126 2928 63 2956 99 l 2976 138 l 2989 138 b 3179 181 3025 138 3117 158 b 3171 183 3200 189 3193 190 z m 2949 115 b 2879 47 2933 86 2900 54 b 2856 49 2867 43 2863 43 b 2863 143 2840 61 2843 92 b 2872 172 2867 158 2872 169 b 2879 169 2874 176 2876 175 b 2943 138 2886 157 2913 142 b 2949 114 2961 136 2961 138 z m 2964 147 b 2943 147 2961 144 2961 144 b 2889 197 2907 154 2889 171 b 2897 219 2889 204 2890 208 b 2907 235 2900 225 2906 232 b 2911 242 2910 236 2911 240 b 2915 250 2911 246 2913 249 b 2976 201 2950 275 2981 253 b 2964 149 2975 189 2967 157 z m 3701 158 b 3682 190 3697 171 3690 181 b 3674 190 3679 193 3675 193 b 3672 181 3669 188 3669 185 b 3692 122 3689 167 3696 144 b 3658 63 3688 100 3674 79 b 3544 -14 3629 29 3588 3 b 3424 -18 3506 -26 3463 -26 b 3379 -3 3408 -15 3393 -10 b 3346 68 3356 13 3343 40 b 3375 151 3349 97 3363 124 b 3401 201 3383 168 3393 185 b 3426 244 3413 218 3424 238 l 3429 250 l 3432 257 l 3429 258 b 3417 274 3428 267 3424 271 b 3379 271 3408 278 3393 276 b 3189 110 3326 251 3249 185 l 3183 104 l 3189 117 b 3225 239 3196 135 3224 226 b 3224 253 3228 250 3228 250 b 3201 251 3218 257 3207 257 b 3133 54 3192 242 3140 94 b 3135 39 3131 42 3131 42 b 3143 35 3138 36 3142 35 b 3169 57 3153 35 3157 39 b 3224 128 3189 85 3201 101 b 3349 240 3263 171 3310 214 b 3392 263 3367 253 3390 264 b 3379 228 3394 261 3389 246 b 3368 204 3376 219 3372 213 b 3339 146 3357 185 3347 165 b 3317 90 3329 128 3321 108 b 3315 53 3313 78 3313 65 b 3332 19 3318 40 3324 29 b 3369 -17 3342 6 3356 -10 b 3438 -37 3390 -29 3414 -36 b 3579 -11 3486 -43 3535 -33 b 3665 54 3613 6 3642 28 b 3700 118 3682 74 3696 94 b 3699 157 3703 131 3703 144 z "}}}
